<svg width="375" height="450" viewBox="0 0 375 450" fill="none" xmlns="http://www.w3.org/2000/svg">
<g clip-path="url(#clip0_804_3799)">
<g opacity="0.7">
<path d="M-28.4728 457.535C-34.3997 452.858 -40.0134 448.207 -45.2773 443.607C-74.1871 418.349 -91.855 395.487 -97.7929 375.661C-103.869 355.377 -97.3849 338.758 -78.5149 326.274C-21.2307 288.365 20.3307 269.659 47.8308 257.277C60.2092 251.706 69.9867 247.302 76.7369 243.102C87.9642 236.113 113.282 235.047 142.804 240.32C174.577 245.997 204.197 257.626 224.073 272.234C251.489 292.379 286.559 307.591 311.148 316.805C339.796 327.54 371.245 336.435 395.28 340.598C410.795 343.286 422.07 351.86 427.888 365.391C437.96 388.825 430.401 424.054 408.161 457.335C397.619 473.11 386.72 489.423 375.281 504.437C362.633 521.041 350.666 534.22 338.692 544.729C324.394 557.278 309.72 566.457 293.823 572.788C276.075 579.857 257.212 583.246 236.153 583.155C200.186 582.999 124.065 553.275 51.0401 510.867C21.1722 493.521 -5.93069 475.328 -28.4728 457.535ZM415.254 350.024C409.772 345.697 403.01 342.791 395.135 341.424C371.052 337.249 339.544 328.34 310.853 317.591C286.213 308.358 251.066 293.11 223.574 272.906C203.797 258.375 174.304 246.797 142.655 241.146C113.33 235.909 88.2411 236.931 77.1814 243.815C70.3838 248.044 60.5845 252.459 48.1768 258.044C20.6987 270.412 -20.8264 289.103 -78.0522 326.973C-96.5726 339.231 -102.944 355.529 -96.9878 375.421C-91.0937 395.094 -73.5096 417.821 -44.7236 442.975C-19.4785 465.033 13.7845 488.259 51.4627 510.139C124.371 552.478 200.321 582.159 236.156 582.315C257.106 582.406 275.863 579.035 293.509 572.006C309.312 565.711 323.909 556.584 338.135 544.096C364.819 520.674 386.497 488.234 407.458 456.866C429.542 423.818 437.075 388.894 427.112 365.719C424.365 359.326 420.365 354.057 415.254 350.024Z" fill="url(#paint0_linear_804_3799)"/>
<path d="M-16.0179 449.342C-20.7063 445.644 -25.1688 441.964 -29.3981 438.316C-56.0494 415.323 -72.3803 394.508 -77.9357 376.45C-83.5494 358.195 -77.8847 343.213 -61.0947 331.922C-10.6301 297.445 28.2794 278.848 54.0272 266.542C66.1143 260.764 75.6622 256.2 82.4598 251.92C93.4503 245.004 117.289 243.549 144.676 248.128C173.998 253.03 201.706 263.662 220.692 277.306C246.076 295.768 278.246 309.94 300.766 318.576C327.221 328.722 355.191 336.991 377.503 341.26C391.583 343.958 401.797 351.995 407.047 364.508C416.161 386.224 409.196 418.632 388.869 449.084C369.718 477.833 349.916 507.565 324.889 529.478C311.706 541.02 298.172 549.478 283.513 555.333C267.161 561.867 249.791 565.038 230.419 565.035C197.152 565.133 126.83 538.209 59.4041 499.561C30.9533 483.248 5.20184 466.091 -16.0179 449.342ZM395.135 349.86C390.253 346.006 384.279 343.362 377.354 342.035C354.997 337.755 326.98 329.474 300.482 319.311C277.918 310.656 245.679 296.456 220.226 277.943C201.338 264.368 173.75 253.782 144.542 248.902C117.34 244.357 93.7126 245.768 82.8787 252.586C76.0411 256.895 66.4785 261.466 54.366 267.252C28.6401 279.546 -10.2366 298.128 -60.6539 332.573C-77.1234 343.649 -82.686 358.329 -77.1853 376.217C-71.6736 394.13 -55.4264 414.821 -28.8845 437.72C-5.56284 457.84 25.0992 478.986 59.7902 498.874C127.107 537.463 197.268 564.344 230.411 564.242C249.686 564.246 266.957 561.093 283.215 554.598C297.79 548.776 311.247 540.365 324.361 528.881C349.307 507.037 369.081 477.353 388.202 448.644C408.384 418.407 415.323 386.283 406.311 364.81C403.754 358.704 399.98 353.686 395.135 349.86Z" fill="url(#paint1_linear_804_3799)"/>
<path d="M-3.54447 441.2C-7.01612 438.458 -10.3457 435.734 -13.5332 433.029C-37.9332 412.298 -52.9236 393.527 -58.0928 377.239C-63.2438 361.01 -58.3915 347.664 -43.6743 337.569C0.295116 306.307 35.2157 288.547 60.7121 275.579C72.2819 269.695 81.4218 265.044 88.1793 260.735C99.1007 253.786 120.918 251.99 146.542 255.931C173.423 260.066 199.214 269.706 217.305 282.379C259.627 312.791 325.658 334.649 359.719 341.922C372.363 344.628 381.521 352.133 386.206 363.624C394.355 383.625 387.98 413.21 369.573 440.829C353.071 465.702 334.364 493.899 311.083 514.219C299.018 524.754 286.625 532.489 273.204 537.874C258.247 543.874 242.375 546.827 224.681 546.911C209.345 547.089 185.87 541.38 156.796 530.409C128.867 519.867 97.2428 504.896 67.7501 488.252C40.7273 473.001 16.3347 456.891 -3.54447 441.2ZM375.008 349.675C370.728 346.297 365.547 343.926 359.566 342.646C325.447 335.362 259.292 313.46 216.878 282.983C198.883 270.372 173.204 260.779 146.432 256.662C120.98 252.75 99.352 254.506 88.58 261.361C81.7934 265.688 72.6425 270.343 61.0509 276.237C35.5727 289.194 0.681259 306.943 -43.2481 338.176C-57.6702 348.068 -62.4278 361.137 -57.3861 377.017C-52.2606 393.17 -37.343 411.829 -13.0524 432.469C8.34586 450.651 36.4142 469.717 68.1144 487.608C97.5743 504.234 129.162 519.187 157.055 529.718C186.045 540.66 209.425 546.351 224.674 546.173C242.276 546.093 258.061 543.154 272.927 537.191C286.271 531.838 298.595 524.143 310.598 513.667C333.803 493.412 352.48 465.262 368.957 440.425C387.233 413.003 393.579 383.686 385.521 363.908C383.15 358.079 379.598 353.297 375.008 349.675Z" fill="url(#paint2_linear_804_3799)"/>
<path d="M8.95795 433.127C6.67387 431.324 4.459 429.531 2.317 427.742C-19.828 409.272 -33.4815 392.548 -38.2646 378.028C-42.942 363.824 -38.9021 352.111 -26.2504 343.217C11.6245 314.863 44.3156 297.129 68.1874 284.176C78.4748 278.594 87.3561 273.775 93.906 269.55C104.598 262.67 124.972 260.499 148.418 263.735C172.865 267.11 196.741 275.757 213.928 287.452C230.79 299.394 253.635 311.38 279.998 322.114C301.16 330.733 323.738 338.191 341.945 342.584C353.162 345.297 361.267 352.271 365.38 362.755C372.556 381.043 366.771 407.796 350.284 432.578C333.064 458.659 317.188 481.655 297.284 498.965C286.333 508.488 275.084 515.507 262.899 520.416C249.336 525.881 234.958 528.616 218.948 528.783C204.879 529.089 183.448 524.114 156.979 514.394C131.657 505.099 102.929 491.797 76.0887 476.939C50.4939 462.775 27.4674 447.738 8.95795 433.127ZM354.878 349.46C351.206 346.562 346.816 344.471 341.781 343.253C323.545 338.857 300.93 331.384 279.736 322.754C253.325 311.998 230.43 299.987 213.531 288.019C196.435 276.383 172.665 267.783 148.32 264.419C125.034 261.204 104.831 263.339 94.2776 270.128C87.7095 274.368 78.8136 279.194 68.5152 284.779C44.6617 297.721 11.9925 315.445 -25.846 343.769C-38.2281 352.479 -42.1843 363.93 -37.6125 377.814C-32.8695 392.207 -19.2889 408.829 2.75415 427.214C22.2326 443.458 47.7035 460.444 76.4166 476.339C103.224 491.179 131.919 504.467 157.208 513.75C183.597 523.438 204.941 528.398 218.929 528.096C234.86 527.929 249.154 525.209 262.633 519.78C274.749 514.899 285.933 507.921 296.825 498.448C316.66 481.197 332.507 458.24 349.701 432.204C366.068 407.603 371.828 381.09 364.732 363.01C362.553 357.442 359.22 352.889 354.878 349.46Z" fill="url(#paint3_linear_804_3799)"/>
<path d="M21.4856 425.145C20.3491 424.247 19.2343 423.352 18.1378 422.462C-1.75223 406.258 -14.0688 391.577 -18.4657 378.828C-22.6659 366.65 -19.4238 356.57 -8.83031 348.868C23.4054 323.005 54.3261 305.078 76.9046 291.987C85.8588 286.797 93.589 282.314 99.6288 278.368C110.251 271.455 128.717 268.968 150.287 271.543C172.308 274.172 194.271 281.823 210.543 292.528C242.171 314.529 291.608 334.242 324.164 343.246C333.96 345.966 341.009 352.417 344.554 361.897C350.746 378.468 345.548 402.388 330.987 424.323C316.361 446.604 301.721 467.913 283.477 483.706C273.641 492.223 263.536 498.517 252.586 502.957C240.418 507.888 227.537 510.405 213.206 510.659C200.402 511.092 181.014 506.848 157.146 498.39C134.426 490.335 108.59 478.706 84.4053 465.637C60.2458 452.589 38.5926 438.647 21.4856 425.145ZM334.736 349.209C331.683 346.798 328.08 344.998 323.993 343.864C291.389 334.846 241.865 315.1 210.186 293.059C194.001 282.412 172.14 274.797 150.214 272.179C128.79 269.619 110.481 272.07 99.9786 278.903C93.9278 282.856 86.1867 287.343 77.2252 292.536C54.6649 305.616 23.7697 323.529 -8.44417 349.369C-18.7972 356.897 -21.9629 366.733 -17.8646 378.617C-13.5078 391.254 -1.26044 405.836 18.5386 421.967C36.1008 436.265 58.9744 451.178 84.704 465.08C108.864 478.132 134.666 489.75 157.357 497.794C181.149 506.227 200.456 510.456 213.188 510.027C227.443 509.776 240.251 507.27 252.342 502.372C263.226 497.961 273.274 491.699 283.058 483.23C301.24 467.488 315.851 446.222 330.452 423.978C344.903 402.21 350.076 378.508 343.952 362.126C341.967 356.799 338.845 352.453 334.736 349.209Z" fill="url(#paint4_linear_804_3799)"/>
<path d="M34.0534 417.287C34.0097 417.254 33.9696 417.222 33.9259 417.189C16.2871 403.247 5.31114 390.614 1.29669 379.635C-2.41903 369.472 0.0362565 361.021 8.58971 354.515C35.6417 330.566 65.6553 311.976 87.5708 298.405C94.4339 294.154 100.361 290.485 105.352 287.187C115.759 280.336 132.819 277.481 152.155 279.354C171.768 281.256 191.819 287.907 207.155 297.609C220.929 306.98 238.447 316.416 259.223 325.664C274.851 332.62 292.041 339.271 306.38 343.915C314.762 346.646 320.762 352.577 323.734 361.071C328.929 375.926 324.31 397.003 311.684 416.08C299.517 434.753 286.246 454.182 269.663 468.459C260.942 475.964 251.981 481.543 242.265 485.506C231.493 489.899 220.109 492.201 207.461 492.539C184.58 493.652 138.454 478.303 92.689 454.346C69.9794 442.455 49.7068 429.644 34.0534 417.287ZM314.591 348.9C312.165 346.984 309.36 345.497 306.208 344.471C291.852 339.82 274.639 333.158 258.993 326.198C238.185 316.936 220.638 307.481 206.842 298.096C191.586 288.448 171.634 281.827 152.104 279.936C132.899 278.074 115.978 280.896 105.679 287.674C100.681 290.976 94.7509 294.649 87.8841 298.903C65.9868 312.467 35.995 331.038 8.96493 354.97C0.622758 361.315 -1.76332 369.541 1.85041 379.435C5.82478 390.312 16.7388 402.858 34.2902 416.731C34.3302 416.763 34.374 416.796 34.414 416.829C50.0383 429.16 70.2817 441.953 92.9659 453.826C138.644 477.739 184.65 493.059 207.443 491.954C220.026 491.616 231.344 489.328 242.05 484.961C251.708 481.019 260.618 475.477 269.288 468.011C285.812 453.786 299.054 434.396 311.199 415.756C323.727 396.828 328.317 375.948 323.184 361.264C321.396 356.14 318.481 351.97 314.591 348.9Z" fill="url(#paint5_linear_804_3799)"/>
<path d="M46.5996 409.556C32.9971 398.817 24.3927 389.043 21.0121 380.464C17.7954 372.312 19.4748 365.486 25.9992 360.177C48.1333 337.373 78.8463 317.205 101.268 302.478C104.787 300.169 108.109 297.983 111.078 296.001C121.439 289.103 136.691 285.961 154.031 287.157C171.514 288.365 189.182 293.878 203.779 302.681C213.567 309.151 241.402 326.173 288.61 344.58C295.593 347.322 300.551 352.748 302.941 360.279C307.112 373.41 303.072 391.628 292.395 407.825C282.541 423.094 270.782 440.455 255.864 453.204C240.102 466.677 222.394 473.615 201.728 474.419C191.433 475.11 176.118 472.335 157.441 466.4C139.653 460.746 120.12 452.677 100.955 443.066C81.1632 433.138 63.4297 422.374 49.6705 411.938C48.625 411.138 47.5978 410.345 46.5996 409.556ZM294.428 348.504C292.646 347.097 290.635 345.948 288.417 345.078C280.865 342.133 265.653 335.987 248.619 327.918C230.736 319.445 215.556 311.107 203.494 303.136C188.978 294.383 171.393 288.896 153.995 287.696C136.772 286.507 121.639 289.616 111.377 296.449C108.408 298.434 105.086 300.616 101.563 302.929C79.1559 317.642 48.4684 337.795 26.3708 360.562L26.3489 360.584C20.0139 365.73 18.3856 372.355 21.5075 380.272C25.052 389.257 34.9024 400.061 49.9984 411.512C63.732 421.931 81.4364 432.676 101.199 442.589C120.339 452.189 139.843 460.248 157.605 465.891C176.217 471.808 191.466 474.572 201.702 473.884C222.248 473.088 239.85 466.19 255.518 452.797C270.381 440.095 282.115 422.774 291.947 407.534V407.53C302.537 391.465 306.555 373.421 302.431 360.439C300.854 355.464 298.129 351.424 294.428 348.504Z" fill="url(#paint6_linear_804_3799)"/>
<path d="M59.4478 402.287C49.7869 394.661 43.339 387.497 40.6396 381.348C37.9293 375.173 38.8619 369.955 43.4119 365.839C60.3293 343.024 99.9018 316.252 116.805 304.82C137.948 290.568 172.322 291.776 200.398 307.758C221.931 321.456 249.478 334.856 265.94 342.86C267.689 343.711 269.328 344.508 270.84 345.249C276.446 348.009 280.362 352.959 282.169 359.559C285.287 370.955 281.812 386.286 273.106 399.574C264.428 413.207 254.658 427.291 242.065 437.949C228.623 449.324 213.552 455.324 195.997 456.295C178.216 457.909 144.137 448.302 109.188 431.818C92.3829 423.891 77.2323 415.218 65.3711 406.73C63.2801 405.232 61.3056 403.748 59.4478 402.287ZM274.246 347.958C273.135 347.082 271.929 346.322 270.625 345.678C269.113 344.94 267.474 344.14 265.725 343.293C249.256 335.282 221.69 321.874 200.146 308.169C172.235 292.281 138.072 291.067 117.074 305.216C100.19 316.638 60.6426 343.387 43.7871 366.141L43.7725 366.159L43.7543 366.173C39.361 370.137 38.4612 375.177 41.0841 381.148C44.2679 388.399 52.7631 397.108 65.6516 406.33C77.4873 414.8 92.6124 423.458 109.392 431.374C144.268 447.826 178.249 457.415 195.957 455.808C234.95 453.655 255.245 426.716 272.694 399.308V399.305C281.328 386.13 284.777 370.948 281.696 359.679C280.351 354.755 277.805 350.769 274.246 347.958Z" fill="url(#paint7_linear_804_3799)"/>
<path d="M72.2709 395.403C66.3658 390.741 62.1875 386.305 60.1365 382.356C57.9289 378.105 58.1585 374.454 60.8141 371.508C63.7102 363.952 72.2418 353.904 86.1758 341.639C96.3248 332.704 109.578 322.496 122.528 313.634C143.329 299.445 171.175 299.143 197.014 312.834C205.717 318.078 214.904 323.376 223.785 328.5C235.275 335.126 246.123 341.388 253.067 345.919C258.895 349.751 262.083 356.726 262.05 365.548C262.017 373.908 259.015 383.301 253.81 391.319C242.204 409.912 234.058 417.854 228.259 422.691C217.144 431.964 204.715 437.026 190.256 438.167C174.938 440.044 147.015 433.327 117.392 420.636C98.4705 412.531 82.6859 403.625 72.2709 395.403ZM254.043 347.155C253.653 346.846 253.249 346.555 252.833 346.282C245.901 341.759 235.056 335.5 223.574 328.875C214.689 323.747 205.502 318.449 196.806 313.209C171.124 299.601 143.445 299.892 122.779 313.991C109.843 322.842 96.6089 333.038 86.4708 341.962C72.566 354.202 64.0672 364.206 61.2112 371.701L61.1966 371.741L61.1711 371.77C58.6211 374.574 58.4062 378.068 60.53 382.159C66.1509 392.985 88.0081 407.578 117.574 420.243C147.132 432.906 174.971 439.611 190.223 437.742C204.598 436.607 216.947 431.578 227.989 422.364C238.983 413.189 247.373 400.832 253.453 391.094L253.456 391.09C258.618 383.141 261.598 373.832 261.627 365.552C261.649 357.512 258.972 351.046 254.043 347.155Z" fill="url(#paint8_linear_804_3799)"/>
<path d="M85.0719 389.305C82.6312 387.377 80.7442 385.53 79.5056 383.81C77.6951 381.297 77.258 379.083 78.2124 377.228C76.4857 370.337 85.9207 359.021 94.1572 350.726C103.443 341.373 116.193 330.806 128.258 322.453C138.651 315.278 148.917 311.394 159.645 310.583C170.599 309.758 181.721 312.154 193.64 317.911C210.977 327.533 227.33 338.795 235.308 346.602C239.176 350.424 241.136 356.428 240.819 363.508C240.524 370.133 238.229 377.261 234.524 383.068C225.082 398.676 210.867 416.985 184.53 420.047C171.776 422.174 149.828 418.309 125.828 409.701C108.288 403.41 93.4287 395.901 85.0719 389.305ZM227.745 340.569C218.98 333.653 206.496 325.485 193.458 318.245C181.612 312.522 170.556 310.14 159.671 310.962C149.012 311.765 138.808 315.627 128.473 322.762C105.924 338.369 75.5422 365.581 78.5985 377.199L78.6168 377.272L78.5803 377.337C77.6587 379.068 78.074 381.17 79.8116 383.585C85.2468 391.127 103.359 401.236 125.952 409.338C149.893 417.923 171.769 421.782 184.468 419.665C210.649 416.622 224.794 398.399 234.189 382.868L234.193 382.865C237.865 377.112 240.138 370.05 240.429 363.49C240.739 356.519 238.819 350.617 235.031 346.871C233.074 344.955 230.608 342.828 227.745 340.569Z" fill="url(#paint9_linear_804_3799)"/>
<path d="M97.7927 385.315C96.7399 384.483 96.0259 383.701 95.6981 382.992C93.7382 381.857 92.6963 380.155 92.5907 377.933C92.2883 371.432 99.9639 361.86 106.455 354.98C114.182 346.791 124.469 337.926 133.981 331.267C144.746 323.74 153.234 319.769 161.51 318.391C170.337 316.922 179.473 318.38 190.252 322.983C202.176 328.736 212.878 338.278 217.534 347.297C221.679 355.409 219.618 367.657 215.228 374.813C206.594 389.941 194.336 399.061 178.796 401.919C172.745 403.33 164.869 403.57 155.401 402.628C147.201 401.814 138.035 400.119 128.892 397.723C114.575 393.974 102.627 389.13 97.7927 385.315ZM95.9531 382.759L95.9749 382.81C96.2773 383.501 96.9694 384.264 97.9967 385.075C108.634 393.476 155.292 407.061 178.726 401.599C194.176 398.759 206.358 389.69 214.94 374.65L214.944 374.646C219.286 367.57 221.333 355.464 217.239 347.453C212.616 338.496 201.968 329.013 190.114 323.293C179.4 318.718 170.326 317.263 161.561 318.725C153.339 320.096 144.888 324.049 134.17 331.544C124.677 338.191 114.408 347.038 106.696 355.209C100.248 362.046 92.6235 371.533 92.9186 377.923C93.0169 380.043 94.0224 381.664 95.9057 382.737L95.9531 382.759Z" fill="url(#paint10_linear_804_3799)"/>
<path d="M107.111 386.523C106.058 385.69 105.363 384.632 105.031 383.355C104.2 380.148 105.301 373.89 115.242 362.286C121.905 354.507 131.052 346.209 139.704 340.078C149.933 332.834 156.629 328.289 163.372 326.198C170.348 324.038 177.156 324.576 186.868 328.056C192.223 329.976 195.961 333.478 197.982 338.471C202.354 349.267 197.396 363.58 195.935 366.548C193.203 372.086 188.249 376.73 181.211 380.355C175.153 383.475 167.539 385.85 158.578 387.417C142.381 390.25 124.528 389.904 113.217 388.635C110.557 388.341 108.517 387.632 107.111 386.523ZM192.383 331.376C190.777 330.111 188.908 329.093 186.777 328.329C177.127 324.871 170.373 324.332 163.459 326.474C156.756 328.551 150.075 333.089 139.868 340.315C124.09 351.486 102.703 373.221 105.304 383.29C106.044 386.148 108.718 387.857 113.249 388.366C124.542 389.635 142.367 389.981 158.534 387.152C167.466 385.588 175.054 383.221 181.087 380.115C188.07 376.519 192.981 371.919 195.687 366.435C197.137 363.493 202.062 349.289 197.727 338.587C196.54 335.653 194.751 333.245 192.383 331.376Z" fill="url(#paint11_linear_804_3799)"/>
</g>
</g>
<defs>
<linearGradient id="paint0_linear_804_3799" x1="166.137" y1="236.999" x2="166.137" y2="583.157" gradientUnits="userSpaceOnUse">
<stop stop-color="#E9CBA3"/>
<stop offset="0.1507" stop-color="#EEDEBC"/>
<stop offset="0.3859" stop-color="#C9A885"/>
<stop offset="0.6326" stop-color="#9A7A5F"/>
<stop offset="0.8567" stop-color="#C9A885"/>
<stop offset="0.9987" stop-color="#C9A885"/>
</linearGradient>
<linearGradient id="paint1_linear_804_3799" x1="165.475" y1="245.489" x2="165.475" y2="565.032" gradientUnits="userSpaceOnUse">
<stop stop-color="#E9CBA3"/>
<stop offset="0.1507" stop-color="#EEDEBC"/>
<stop offset="0.3859" stop-color="#C9A885"/>
<stop offset="0.6326" stop-color="#9A7A5F"/>
<stop offset="0.8567" stop-color="#C9A885"/>
<stop offset="0.9987" stop-color="#C9A885"/>
</linearGradient>
<linearGradient id="paint2_linear_804_3799" x1="164.806" y1="253.878" x2="164.806" y2="546.913" gradientUnits="userSpaceOnUse">
<stop stop-color="#E9CBA3"/>
<stop offset="0.1507" stop-color="#EEDEBC"/>
<stop offset="0.3859" stop-color="#C9A885"/>
<stop offset="0.6326" stop-color="#9A7A5F"/>
<stop offset="0.8567" stop-color="#C9A885"/>
<stop offset="0.9987" stop-color="#C9A885"/>
</linearGradient>
<linearGradient id="paint3_linear_804_3799" x1="164.128" y1="262.266" x2="164.128" y2="528.799" gradientUnits="userSpaceOnUse">
<stop stop-color="#E9CBA3"/>
<stop offset="0.1507" stop-color="#EEDEBC"/>
<stop offset="0.3859" stop-color="#C9A885"/>
<stop offset="0.6326" stop-color="#9A7A5F"/>
<stop offset="0.8567" stop-color="#C9A885"/>
<stop offset="0.9987" stop-color="#C9A885"/>
</linearGradient>
<linearGradient id="paint4_linear_804_3799" x1="163.438" y1="270.551" x2="163.438" y2="510.692" gradientUnits="userSpaceOnUse">
<stop stop-color="#E9CBA3"/>
<stop offset="0.1507" stop-color="#EEDEBC"/>
<stop offset="0.3859" stop-color="#C9A885"/>
<stop offset="0.6326" stop-color="#9A7A5F"/>
<stop offset="0.8567" stop-color="#C9A885"/>
<stop offset="0.9987" stop-color="#C9A885"/>
</linearGradient>
<linearGradient id="paint5_linear_804_3799" x1="162.729" y1="278.79" x2="162.729" y2="492.596" gradientUnits="userSpaceOnUse">
<stop stop-color="#E9CBA3"/>
<stop offset="0.1507" stop-color="#EEDEBC"/>
<stop offset="0.3859" stop-color="#C9A885"/>
<stop offset="0.6326" stop-color="#9A7A5F"/>
<stop offset="0.8567" stop-color="#C9A885"/>
<stop offset="0.9987" stop-color="#C9A885"/>
</linearGradient>
<linearGradient id="paint6_linear_804_3799" x1="161.993" y1="286.91" x2="161.993" y2="474.519" gradientUnits="userSpaceOnUse">
<stop stop-color="#E9CBA3"/>
<stop offset="0.1507" stop-color="#EEDEBC"/>
<stop offset="0.3859" stop-color="#C9A885"/>
<stop offset="0.6326" stop-color="#9A7A5F"/>
<stop offset="0.8567" stop-color="#C9A885"/>
<stop offset="0.9987" stop-color="#C9A885"/>
</linearGradient>
<linearGradient id="paint7_linear_804_3799" x1="161.209" y1="294.897" x2="161.209" y2="456.468" gradientUnits="userSpaceOnUse">
<stop stop-color="#E9CBA3"/>
<stop offset="0.1507" stop-color="#EEDEBC"/>
<stop offset="0.3859" stop-color="#C9A885"/>
<stop offset="0.6326" stop-color="#9A7A5F"/>
<stop offset="0.8567" stop-color="#C9A885"/>
<stop offset="0.9987" stop-color="#C9A885"/>
</linearGradient>
<linearGradient id="paint8_linear_804_3799" x1="160.345" y1="302.775" x2="160.345" y2="438.479" gradientUnits="userSpaceOnUse">
<stop stop-color="#E9CBA3"/>
<stop offset="0.1507" stop-color="#EEDEBC"/>
<stop offset="0.3859" stop-color="#C9A885"/>
<stop offset="0.6326" stop-color="#9A7A5F"/>
<stop offset="0.8567" stop-color="#C9A885"/>
<stop offset="0.9987" stop-color="#C9A885"/>
</linearGradient>
<linearGradient id="paint9_linear_804_3799" x1="159.284" y1="310.423" x2="159.284" y2="420.618" gradientUnits="userSpaceOnUse">
<stop stop-color="#E9CBA3"/>
<stop offset="0.1507" stop-color="#EEDEBC"/>
<stop offset="0.3859" stop-color="#C9A885"/>
<stop offset="0.6326" stop-color="#9A7A5F"/>
<stop offset="0.8567" stop-color="#C9A885"/>
<stop offset="0.9987" stop-color="#C9A885"/>
</linearGradient>
<linearGradient id="paint10_linear_804_3799" x1="156.182" y1="317.841" x2="156.182" y2="403.193" gradientUnits="userSpaceOnUse">
<stop stop-color="#E9CBA3"/>
<stop offset="0.1507" stop-color="#EEDEBC"/>
<stop offset="0.3859" stop-color="#C9A885"/>
<stop offset="0.6326" stop-color="#9A7A5F"/>
<stop offset="0.8567" stop-color="#C9A885"/>
<stop offset="0.9987" stop-color="#C9A885"/>
</linearGradient>
<linearGradient id="paint11_linear_804_3799" x1="152.28" y1="324.921" x2="152.28" y2="389.587" gradientUnits="userSpaceOnUse">
<stop stop-color="#E9CBA3"/>
<stop offset="0.1507" stop-color="#EEDEBC"/>
<stop offset="0.3859" stop-color="#C9A885"/>
<stop offset="0.6326" stop-color="#9A7A5F"/>
<stop offset="0.8567" stop-color="#C9A885"/>
<stop offset="0.9987" stop-color="#C9A885"/>
</linearGradient>
<clipPath id="clip0_804_3799">
<rect width="375" height="450" fill="white"/>
</clipPath>
</defs>
</svg>
