<svg width="126" height="126" viewBox="0 0 126 126" fill="none" xmlns="http://www.w3.org/2000/svg">
<g filter="url(#filter0_d_670_13265)">
<rect x="40" y="20" width="46" height="46" rx="23" fill="white"/>
<path d="M54 48.3977C54.4505 48.6546 54.9176 48.8827 55.3985 49.0807C56.371 49.4809 57.394 49.7534 58.4405 49.8908C58.9767 49.9621 59.5172 49.9983 60.0583 49.9991C61.6825 50.0193 63.2916 49.694 64.7732 49.046C66.0509 48.4752 67.1806 47.6324 68.079 46.5797C68.9117 45.5963 69.5315 44.4592 69.9014 43.2367C70.2713 42.0142 70.3835 40.7316 70.2314 39.4658C70.4063 39.3437 70.5747 39.2131 70.7359 39.0744C70.8976 38.9356 71.0529 38.789 71.2017 38.6344C71.3505 38.4798 71.4915 38.3193 71.6249 38.1529C71.7587 37.9861 71.8837 37.8141 72 37.6368C71.8318 37.7019 71.6605 37.7646 71.4868 37.8236C71.313 37.8827 71.136 37.9374 70.956 37.9861C70.776 38.0348 70.5934 38.078 70.4071 38.114C70.2208 38.1499 70.032 38.1748 69.8389 38.1961C70.0224 38.0854 70.1958 37.9596 70.3571 37.82C70.517 37.6825 70.6635 37.5309 70.7947 37.3671C70.9244 37.2043 71.0373 37.0294 71.1317 36.8449C71.2271 36.6583 71.3023 36.4624 71.3561 36.2606C71.1811 36.3629 71.0002 36.458 70.8135 36.5461C70.6267 36.6341 70.4342 36.7141 70.2358 36.7859C70.0374 36.8581 69.8334 36.9218 69.6238 36.977C69.4142 37.0322 69.1985 37.0784 68.9768 37.1158C68.7879 36.9466 68.5844 36.7937 68.3685 36.6587C68.1493 36.5208 67.9179 36.4022 67.6771 36.3044C67.4324 36.2066 67.1787 36.1316 66.9194 36.0804C66.6538 36.0272 66.3834 36.0003 66.1123 36.0001C65.5312 35.9958 64.9565 36.1188 64.4307 36.3598C63.9521 36.5808 63.5336 36.9084 63.2091 37.316C62.8913 37.717 62.679 38.1875 62.5908 38.6867C62.4994 39.2231 62.5442 39.7731 62.7215 40.2887C61.9243 40.2613 61.132 40.1559 60.3565 39.974C59.604 39.7971 58.8711 39.5486 58.1685 39.2321C57.4783 38.922 56.8207 38.5473 56.2049 38.1133C55.5993 37.6863 55.038 37.2028 54.5289 36.6696C54.3053 37.0505 54.1676 37.4733 54.125 37.9101C54.084 38.3431 54.1314 38.7798 54.2644 39.1949C54.4031 39.6263 54.6227 40.0289 54.9121 40.3824C55.2235 40.7641 55.6033 41.0879 56.033 41.338C55.8786 41.3376 55.7244 41.3264 55.5716 41.3045C55.4179 41.2827 55.2657 41.2516 55.1159 41.2114C54.9685 41.1718 54.8234 41.1243 54.6814 41.069C54.5442 41.0151 54.41 40.9541 54.2794 40.8864C54.2983 41.2927 54.3941 41.6922 54.562 42.0647C54.7345 42.4485 54.9704 42.8021 55.2603 43.1116C55.8762 43.7723 56.697 44.2188 57.5977 44.3831C57.4639 44.421 57.3275 44.4497 57.1895 44.4689C57.0466 44.4889 56.9025 44.5011 56.7582 44.5054C56.6119 44.5103 56.4637 44.5054 56.3162 44.4993C56.1687 44.4932 56.0211 44.4768 55.8786 44.4579C56.0278 44.8086 56.2312 45.135 56.4819 45.4257C56.7365 45.7216 57.0328 45.9811 57.3621 46.1963C57.6977 46.4165 58.0631 46.5903 58.448 46.7124C58.8438 46.838 59.2564 46.9067 59.6726 46.9163C59.2744 47.2079 58.8486 47.462 58.4011 47.6753C57.9563 47.887 57.4918 48.0568 57.0139 48.1823C56.5309 48.3088 56.0367 48.3903 55.5379 48.4257C55.0255 48.4629 54.5106 48.4535 54 48.3977Z" fill="#E0E0E5"/>
</g>
<defs>
<filter id="filter0_d_670_13265" x="0" y="0" width="126" height="126" filterUnits="userSpaceOnUse" color-interpolation-filters="sRGB">
<feFlood flood-opacity="0" result="BackgroundImageFix"/>
<feColorMatrix in="SourceAlpha" type="matrix" values="0 0 0 0 0 0 0 0 0 0 0 0 0 0 0 0 0 0 127 0" result="hardAlpha"/>
<feOffset dy="20"/>
<feGaussianBlur stdDeviation="20"/>
<feComposite in2="hardAlpha" operator="out"/>
<feColorMatrix type="matrix" values="0 0 0 0 0 0 0 0 0 0 0 0 0 0 0 0 0 0 0.08 0"/>
<feBlend mode="normal" in2="BackgroundImageFix" result="effect1_dropShadow_670_13265"/>
<feBlend mode="normal" in="SourceGraphic" in2="effect1_dropShadow_670_13265" result="shape"/>
</filter>
</defs>
</svg>
