<svg width="375" height="200" viewBox="0 0 375 200" fill="none" xmlns="http://www.w3.org/2000/svg">
<g clip-path="url(#clip0_804_3283)">
<rect width="375" height="200" fill="#3148EB"/>
<g opacity="0.6">
<path d="M373.492 246.334C370.115 245.059 366.74 243.657 363.375 242.134C344.448 233.564 334.323 222.731 332.424 209.015C330.778 197.13 335.523 184.91 339.71 174.129C342.505 166.932 345.144 160.136 345.389 154.567C346.204 136.03 341.595 130.091 338.841 126.543C337.247 124.487 336.192 123.131 337.304 120.593C338.392 118.105 348.902 118.379 370.377 121.453C379.664 122.783 385.687 126.947 390.528 130.292C392.953 131.968 395.05 133.418 397.082 134.18C402.681 136.278 404.44 136.245 408.295 136.173C411.51 136.113 416.369 136.022 426.266 137.17C434.963 138.179 447.522 142.448 459.041 148.313C465.596 151.649 471.61 155.366 476.916 159.362C482.856 163.834 487.767 168.557 491.514 173.402C498.453 182.375 501.314 191.604 500.016 200.832C498.736 209.923 495.238 218.396 489.621 226.016C484.041 233.584 476.653 239.927 467.665 244.865C454.584 252.054 438.666 255.822 421.636 255.76C412.558 255.727 403.143 254.614 393.652 252.453C386.983 250.929 380.234 248.882 373.492 246.334ZM378.352 123.876C375.97 122.976 373.317 122.249 370.323 121.82C360.556 120.422 353.195 119.619 347.817 119.37C340.06 119.008 338.003 119.916 337.642 120.741C336.618 123.078 337.512 124.229 339.133 126.316C341.918 129.905 346.578 135.91 345.758 154.583C345.511 160.213 342.861 167.036 340.055 174.262C335.885 185 331.159 197.173 332.791 208.962C334.671 222.543 344.725 233.283 363.529 241.795C373.587 246.35 383.751 249.811 393.733 252.085C403.196 254.241 412.584 255.351 421.635 255.384C438.603 255.445 454.458 251.694 467.485 244.536C476.426 239.624 483.772 233.317 489.321 225.791C494.902 218.222 498.377 209.805 499.648 200.775C500.931 191.649 498.097 182.515 491.22 173.622C487.495 168.804 482.607 164.104 476.693 159.652C471.403 155.671 465.408 151.964 458.873 148.638C447.39 142.794 434.88 138.538 426.223 137.535C416.351 136.389 411.507 136.481 408.302 136.54C404.398 136.613 402.616 136.647 396.952 134.523C396.943 134.52 396.933 134.516 396.923 134.512C394.853 133.73 392.751 132.276 390.317 130.594C387.072 128.354 383.294 125.742 378.352 123.876Z" fill="url(#paint0_linear_804_3283)"/>
<path d="M377.607 240.682C374.876 239.65 372.147 238.529 369.424 237.318C352.267 229.742 342.89 220.125 340.757 207.918C338.904 197.314 342.768 186.29 346.178 176.564C348.554 169.789 350.797 163.391 350.767 158.092C350.899 141.215 346.508 135.435 343.886 131.981C342.3 129.895 341.252 128.516 342.298 126.037C342.865 124.628 346.066 123.884 351.81 123.827C356.978 123.776 364.005 124.288 372.127 125.304C380.621 126.334 386.189 129.925 390.664 132.81C392.828 134.204 394.696 135.408 396.533 136.105C402.353 138.323 403.972 138.408 408.773 138.668C411.998 138.842 416.415 139.082 424.349 140.066C432.475 141.073 444.187 145.071 454.912 150.497C461.046 153.6 466.666 157.049 471.614 160.745C477.167 164.891 481.748 169.266 485.23 173.747C491.514 181.83 494.161 190.141 493.098 198.445C492.01 206.797 488.889 214.595 483.822 221.623C478.787 228.607 472.091 234.472 463.92 239.056C452.115 245.677 437.725 249.211 422.304 249.274C414.082 249.307 405.547 248.364 396.933 246.468C390.547 245.066 384.074 243.125 377.607 240.682ZM380.358 127.675C377.935 126.759 375.209 126.03 372.083 125.651C354.901 123.5 343.61 123.699 342.617 126.171C341.649 128.468 342.594 129.712 344.16 131.774C346.811 135.262 351.245 141.1 351.112 158.093C351.143 163.449 348.89 169.876 346.504 176.679C343.108 186.366 339.261 197.344 341.097 207.859C343.208 219.944 352.519 229.476 369.563 237.002C378.714 241.067 387.947 244.138 397.007 246.133C405.595 248.023 414.104 248.964 422.301 248.931C437.663 248.868 451.996 245.349 463.748 238.757C471.873 234.199 478.531 228.369 483.537 221.426C488.571 214.445 491.671 206.699 492.751 198.406C493.802 190.196 491.177 181.972 484.952 173.964C480.351 168.046 471.378 159.225 454.75 150.81C444.059 145.4 432.392 141.416 424.302 140.414C416.381 139.431 411.971 139.192 408.751 139.018C404.041 138.763 402.276 138.665 396.406 136.433C394.535 135.723 392.652 134.509 390.473 133.104C387.681 131.3 384.457 129.222 380.358 127.675Z" fill="url(#paint1_linear_804_3283)"/>
<path d="M381.807 235.076C379.698 234.279 377.588 233.422 375.469 232.504C360.07 225.911 351.446 217.501 349.1 206.789C347.056 197.456 350.056 187.627 352.702 178.956C354.634 172.621 356.461 166.636 356.141 161.616C355.611 146.411 351.436 140.801 348.943 137.449C347.356 135.316 346.307 133.907 347.286 131.482C348.516 128.131 361.931 127.926 373.873 129.155C381.616 129.882 386.753 132.915 390.881 135.352C392.753 136.458 394.37 137.412 395.98 138.031C402.578 140.586 403.908 140.738 411.288 141.589C414.067 141.91 417.525 142.31 422.426 142.964C427.438 143.632 434.003 145.511 440.912 148.255C448.687 151.342 456.213 155.256 462.676 159.575C470.323 164.686 476.24 170.163 480.264 175.858C484.95 182.492 486.94 189.292 486.179 196.066C485.282 203.68 482.537 210.804 478.021 217.242C473.531 223.644 467.526 229.034 460.173 233.261C449.645 239.313 436.78 242.613 422.968 242.801C409.684 242.983 395.862 240.386 381.807 235.076ZM382.51 131.477C380.02 130.535 377.174 129.791 373.843 129.479C359.621 128.014 348.582 128.905 347.592 131.598C346.679 133.858 347.629 135.137 349.206 137.255C351.722 140.636 355.935 146.296 356.469 161.599C356.792 166.676 354.958 172.686 353.016 179.051C350.381 187.685 347.396 197.471 349.422 206.721C351.743 217.321 360.307 225.658 375.602 232.206C391.8 239.23 407.735 242.685 422.97 242.478C436.725 242.291 449.536 239.007 460.016 232.982C467.328 228.779 473.297 223.421 477.76 217.06C482.244 210.665 484.969 203.591 485.86 196.033C486.612 189.34 484.641 182.617 480.003 176.048C476.003 170.386 470.114 164.935 462.499 159.847C456.057 155.543 448.551 151.639 440.796 148.56C433.91 145.826 427.373 143.954 422.387 143.289C417.49 142.633 414.032 142.235 411.255 141.916C403.84 141.06 402.505 140.905 395.867 138.337C394.231 137.708 392.604 136.748 390.72 135.635C388.398 134.264 385.756 132.703 382.51 131.477Z" fill="url(#paint2_linear_804_3283)"/>
<path d="M385.889 229.435C384.436 228.886 382.979 228.304 381.519 227.69C367.864 222.072 359.996 214.853 357.465 205.622C355.251 197.549 357.31 189.285 359.302 181.294C360.766 175.423 362.147 169.877 361.521 165.14C360.356 151.622 356.55 146.409 354.031 142.96C352.368 140.684 351.366 139.309 352.281 136.928C353.314 133.834 363.569 132.11 375.623 133.008C382.7 133.423 387.446 135.928 391.26 137.941C392.72 138.712 394.098 139.438 395.429 139.958L396.103 140.224C403.851 143.284 404.484 143.534 420.508 145.861C425.011 146.511 431.145 148.285 437.337 150.722C444.459 153.526 451.354 157.052 457.274 160.92C464.309 165.515 469.778 170.434 473.527 175.538C477.901 181.494 479.83 187.598 479.263 193.684C478.56 200.561 476.193 207.013 472.229 212.865C468.285 218.685 462.97 223.601 456.432 227.474C447.178 232.957 435.838 236.019 423.637 236.328C411.502 236.641 398.824 234.322 385.889 229.435ZM384.924 135.294C382.316 134.31 379.274 133.524 375.604 133.31C363.878 132.437 353.544 134.106 352.567 137.03C351.708 139.265 352.675 140.588 354.277 142.781C356.662 146.046 360.653 151.511 361.824 165.106C362.458 169.894 361.067 175.467 359.598 181.367C357.616 189.321 355.566 197.545 357.759 205.541C360.263 214.674 368.075 221.829 381.637 227.409C396.046 233.47 410.175 236.37 423.631 236.028C435.781 235.719 447.07 232.671 456.279 227.215C462.777 223.364 468.059 218.479 471.98 212.696C475.918 206.886 478.267 200.481 478.964 193.656C479.525 187.648 477.615 181.611 473.286 175.717C469.558 170.641 464.116 165.749 457.112 161.174C451.209 157.318 444.334 153.8 437.229 151.003C431.059 148.573 424.948 146.808 420.468 146.161C404.411 143.828 403.774 143.578 395.995 140.505L395.321 140.239C393.973 139.712 392.587 138.982 391.121 138.207C389.314 137.255 387.297 136.192 384.924 135.294Z" fill="url(#paint3_linear_804_3283)"/>
<path d="M389.956 223.81C389.161 223.509 388.365 223.198 387.566 222.875C360.833 212.436 363.571 197.094 365.989 183.557C366.948 178.182 367.854 173.106 366.901 168.664C365.143 156.855 361.54 151.845 359.157 148.53C357.45 146.158 356.42 144.725 357.274 142.372C357.734 140.854 360.084 139.373 363.72 138.316C367.581 137.195 372.43 136.678 377.372 136.859C383.973 136.937 388.24 138.895 392.004 140.622C393.003 141.08 393.947 141.514 394.881 141.885C396.285 142.451 397.499 142.972 398.57 143.431C403.516 145.552 406.503 146.832 418.59 148.759C426.303 149.98 440.006 154.729 451.872 162.266C458.295 166.347 463.313 170.705 466.789 175.219C470.851 180.495 472.72 185.907 472.344 191.303C471.836 197.444 469.848 203.228 466.435 208.494C463.037 213.736 458.411 218.181 452.689 221.702C444.708 226.613 434.892 229.435 424.299 229.866C413.321 230.313 401.778 228.276 389.956 223.81ZM387.761 139.104C384.946 138.04 381.65 137.189 377.363 137.139C366.745 136.751 358.395 139.631 357.539 142.46C356.733 144.683 357.73 146.069 359.382 148.366C361.781 151.703 365.408 156.745 367.174 168.613C368.138 173.1 367.227 178.203 366.263 183.605C365.039 190.46 363.774 197.55 366.11 204.309C368.768 211.999 375.819 217.986 387.67 222.613C400.29 227.714 412.61 230.061 424.289 229.585C434.834 229.157 444.604 226.348 452.543 221.463C458.229 217.964 462.825 213.55 466.2 208.341C469.588 203.114 471.562 197.375 472.065 191.283C472.547 184.357 469.407 173.739 451.721 162.502C439.889 154.984 426.229 150.252 418.545 149.036C406.422 147.102 403.424 145.816 398.458 143.688C397.389 143.229 396.177 142.71 394.775 142.145C393.832 141.77 392.887 141.335 391.885 140.877C390.596 140.284 389.245 139.665 387.761 139.104Z" fill="url(#paint4_linear_804_3283)"/>
<path d="M392.748 217.739C383.021 214.064 376.962 209.273 374.241 203.112C371.766 197.507 372.279 191.511 372.776 185.711C373.19 180.878 373.582 176.314 372.279 172.187C369.99 162.123 366.594 157.356 364.345 154.202C362.553 151.685 361.47 150.165 362.266 147.815C363.144 144.576 370.54 140.844 379.117 140.71C385.835 140.347 389.925 142.015 393.88 143.628L394.331 143.811C396.233 144.598 397.787 145.364 399.289 146.105C403.316 148.088 407.119 149.963 416.674 151.658C423.637 152.883 435.933 157.147 446.473 163.614C455.356 169.066 465.856 177.882 465.431 188.924C464.812 199.736 458.807 209.587 448.954 215.951C442.243 220.286 433.947 222.866 424.962 223.414C415.139 224.011 404.722 222.26 393.996 218.207C393.868 218.159 393.742 218.111 393.615 218.062C393.321 217.954 393.033 217.847 392.748 217.739ZM391.396 142.918C388.13 141.683 384.462 140.68 379.127 140.968C369.958 141.111 363.271 145.097 362.513 147.89C361.758 150.122 362.811 151.601 364.556 154.051C366.816 157.223 370.232 162.015 372.529 172.12C373.844 176.285 373.45 180.875 373.033 185.732C372.54 191.499 372.027 197.461 374.477 203.007C377.248 209.281 383.536 214.124 393.704 217.818C393.831 217.866 393.959 217.915 394.085 217.962C404.78 222.003 415.159 223.75 424.945 223.153C433.886 222.61 442.139 220.043 448.812 215.732C453.688 212.582 457.598 208.634 460.43 203.998C463.269 199.35 464.864 194.274 465.17 188.91C465.591 177.996 455.16 169.249 446.335 163.833C435.824 157.381 423.566 153.132 416.626 151.91C407.035 150.208 403.217 148.326 399.174 146.334C397.675 145.596 396.125 144.832 394.231 144.048L393.782 143.866C393 143.548 392.209 143.225 391.396 142.918Z" fill="url(#paint5_linear_804_3283)"/>
<path d="M397.046 212.328C389.931 209.641 385.206 206.156 382.641 201.723C380.088 197.31 379.879 192.424 379.68 187.699C379.508 183.661 379.331 179.488 377.661 175.711C374.949 167.456 371.765 162.997 369.658 160.046C367.699 157.301 366.516 155.643 367.258 153.259C368.006 150.165 373.681 145.231 380.862 144.562C386.044 143.769 389.908 144.123 393.778 145.738C395.827 146.61 397.519 147.578 399.311 148.601C403.099 150.765 407.017 153.002 414.752 154.554C421.001 155.795 431.902 159.581 441.067 164.96C449.01 169.621 458.483 177.147 458.509 186.54C458.296 195.92 453.452 204.553 445.22 210.229C439.774 213.983 432.995 216.314 425.616 216.973C417.453 217.699 408.721 216.446 399.66 213.245C398.759 212.951 397.886 212.645 397.046 212.328ZM392.997 145.679C389.396 144.318 385.725 144.057 380.892 144.796C373.805 145.457 368.22 150.287 367.487 153.322C366.776 155.603 367.868 157.133 369.851 159.909C371.966 162.872 375.162 167.348 377.882 175.626C379.566 179.432 379.744 183.63 379.917 187.687C380.116 192.384 380.322 197.241 382.848 201.604C385.684 206.507 391.21 210.24 399.74 213.021C408.772 216.211 417.472 217.46 425.6 216.737C432.939 216.083 439.678 213.766 445.091 210.034C453.261 204.402 458.068 195.838 458.28 186.538C458.253 177.259 448.843 169.791 440.953 165.162C431.811 159.798 420.941 156.024 414.711 154.786C406.938 153.225 403.004 150.978 399.2 148.807C397.414 147.786 395.726 146.822 393.691 145.955C393.458 145.859 393.227 145.768 392.997 145.679Z" fill="url(#paint6_linear_804_3283)"/>
<path d="M401.204 206.984C389.742 202.653 388.241 196.196 386.66 189.401C385.881 186.051 385.074 182.586 383.045 179.232C380.114 172.91 377.294 169.054 375.235 166.236C372.86 162.987 371.551 161.199 372.253 158.703C372.617 156.994 373.911 154.741 375.629 152.827C377.705 150.514 380.183 148.947 382.607 148.414C386.64 147.134 389.99 146.264 393.231 147.663C395.269 148.564 397.114 149.777 399.069 151.059C402.598 153.375 406.596 156.001 412.838 157.451C417.164 158.444 426.84 161.427 435.668 166.305C440.261 168.843 443.931 171.519 446.577 174.26C449.702 177.497 451.392 180.826 451.595 184.156C451.805 192.121 448.129 199.557 441.51 204.56C437.321 207.728 432.053 209.802 426.276 210.56C419.886 211.399 412.967 210.681 405.713 208.43C404.059 207.981 402.562 207.498 401.204 206.984ZM392.784 147.714C389.721 146.556 386.509 147.401 382.661 148.622C377.119 149.841 373.076 155.866 372.46 158.755C371.783 161.157 373.07 162.917 375.406 166.112C377.471 168.935 380.297 172.803 383.232 179.132C385.274 182.504 386.084 185.986 386.867 189.352C387.76 193.191 388.603 196.817 391.167 200.054C394.057 203.702 398.698 206.298 405.772 208.224C413.001 210.469 419.888 211.183 426.247 210.348C431.988 209.596 437.222 207.536 441.382 204.391C447.945 199.429 451.589 192.057 451.383 184.166C451.182 180.893 449.514 177.609 446.424 174.409C443.793 171.684 440.139 169.021 435.566 166.493C426.759 161.627 417.107 158.652 412.791 157.661C406.513 156.202 402.498 153.565 398.954 151.238C397.007 149.96 395.168 148.752 393.147 147.86C393.024 147.808 392.904 147.759 392.784 147.714Z" fill="url(#paint7_linear_804_3283)"/>
<path d="M405.078 201.814C398.154 199.199 395.999 195.245 393.412 190.504C392.062 188.03 390.667 185.47 388.427 182.753C385.747 178.651 383.416 175.676 381.542 173.288C378.329 169.188 376.56 166.929 377.246 164.149C377.834 160.982 380.602 154.015 384.336 152.279C384.576 152.124 384.816 151.966 385.057 151.808C387.565 150.162 390.162 148.46 392.68 149.592C394.634 150.494 396.626 151.981 398.734 153.556C402.146 156.105 406.012 158.993 410.92 160.353C416.238 161.808 442.86 169.683 444.677 181.773C445.348 188.354 442.858 194.629 437.844 198.996C434.852 201.601 431.182 203.354 426.934 204.206C422.305 205.135 417.201 204.937 411.763 203.617C409.127 203.118 406.931 202.514 405.078 201.814ZM392.371 149.668C390.015 148.778 387.549 150.397 385.161 151.965C384.918 152.125 384.676 152.284 384.434 152.439L384.423 152.446C380.749 154.148 378.016 161.045 377.433 164.187C376.767 166.882 378.517 169.115 381.693 173.168C383.568 175.561 385.901 178.538 388.581 182.639C390.826 185.362 392.227 187.929 393.581 190.41C396.835 196.376 399.406 201.088 411.805 203.429C417.221 204.744 422.298 204.941 426.898 204.018C431.113 203.171 434.753 201.432 437.72 198.85C442.687 194.526 445.154 188.31 444.489 181.796C443.765 176.978 438.95 172.275 430.179 167.822C422.46 163.902 414.103 161.421 410.87 160.535C405.928 159.164 402.047 156.265 398.62 153.707C396.52 152.138 394.536 150.656 392.601 149.763C392.523 149.729 392.448 149.698 392.371 149.668Z" fill="url(#paint8_linear_804_3283)"/>
<path d="M147.383 250.633C144.272 249.458 141.295 248.252 138.473 247.021C122.972 240.262 112.511 233.013 107.379 225.479C102.129 217.77 102.64 209.929 108.902 202.176C127.911 178.634 142.873 165.249 152.773 156.39C157.229 152.403 160.749 149.253 163.024 146.591C166.808 142.162 177.298 138.346 190.396 136.631C204.493 134.786 218.478 135.728 228.767 139.216C242.96 144.027 259.711 145.747 271.262 146.344C284.72 147.039 299.109 146.589 309.755 145.139C316.628 144.203 322.503 146.303 326.747 151.21C334.095 159.709 335.609 175.508 330.699 192.442C328.372 200.469 325.966 208.77 323.161 216.597C320.06 225.252 316.789 232.378 313.159 238.384C308.825 245.556 303.885 251.363 298.053 256.137C291.541 261.467 284.071 265.401 275.216 268.165C260.093 272.886 224.174 270.535 187.868 262.445C173.018 259.137 159.216 255.104 147.383 250.633ZM319.397 146.439C316.519 145.351 313.293 145.031 309.804 145.505C299.136 146.957 284.721 147.409 271.243 146.713C259.667 146.115 242.88 144.39 228.647 139.565C218.409 136.095 204.484 135.158 190.443 136.997C177.432 138.701 167.034 142.469 163.306 146.831C161.014 149.512 157.487 152.669 153.02 156.666C143.128 165.516 128.179 178.89 109.189 202.407C103.044 210.019 102.537 217.711 107.686 225.271C112.779 232.747 123.187 239.95 138.621 246.681C152.157 252.584 169.215 257.91 187.948 262.084C224.197 270.159 260.038 272.515 275.106 267.812C283.915 265.062 291.343 261.15 297.817 255.851C303.615 251.104 308.53 245.329 312.841 238.193C320.929 224.807 325.714 208.3 330.342 192.339C335.216 175.523 333.732 159.856 326.464 151.451C324.46 149.132 322.08 147.452 319.397 146.439Z" fill="url(#paint9_linear_804_3283)"/>
<path d="M151.522 245.535C149.061 244.606 146.698 243.655 144.437 242.686C130.186 236.578 120.558 230.011 115.822 223.167C111.036 216.249 111.421 209.204 116.968 202.229C133.57 181.036 147.434 168.049 156.608 159.456C160.914 155.421 164.316 152.234 166.601 149.532C170.295 145.165 180.112 141.382 192.221 139.66C205.185 137.816 218.235 138.594 228.023 141.796C241.138 146.17 256.532 147.84 267.138 148.469C279.597 149.209 292.442 148.959 302.379 147.782C308.65 147.042 314.009 149.057 317.878 153.612C324.595 161.518 325.983 176.053 321.5 191.545C317.285 206.166 312.926 221.285 305.334 233.817C301.334 240.418 296.777 245.771 291.401 250.18C285.404 255.1 278.532 258.743 270.397 261.319C256.442 265.788 223.33 263.84 189.875 256.585C175.758 253.521 162.661 249.744 151.522 245.535ZM310.927 149.047C308.364 148.078 305.504 147.763 302.419 148.127C292.462 149.305 279.596 149.557 267.117 148.816C256.49 148.184 241.063 146.512 227.912 142.125C218.174 138.939 205.181 138.165 192.267 140.003C180.24 141.714 170.507 145.451 166.865 149.756C164.567 152.475 161.16 155.667 156.844 159.708C147.678 168.295 133.827 181.271 117.24 202.443C111.799 209.286 111.416 216.191 116.107 222.97C120.805 229.758 130.381 236.284 144.573 242.367C157.043 247.712 172.732 252.511 189.946 256.245C223.347 263.491 256.386 265.441 270.289 260.987C278.383 258.424 285.215 254.802 291.178 249.911C296.523 245.527 301.054 240.204 305.033 233.637C312.601 221.145 316.953 206.049 321.162 191.449C325.612 176.067 324.251 161.654 317.609 153.837C315.723 151.614 313.47 150.009 310.927 149.047Z" fill="url(#paint10_linear_804_3283)"/>
<path d="M155.676 240.456C153.854 239.767 152.093 239.066 150.395 238.355C137.39 232.897 128.598 227.009 124.26 220.858C119.937 214.729 120.198 208.479 125.035 202.282C139.337 183.303 151.637 171.199 160.617 162.361C164.692 158.35 167.911 155.181 170.175 152.472C173.836 148.101 182.758 144.443 194.042 142.689C205.88 140.848 217.993 141.463 227.275 144.377C249.094 151.515 279.729 151.906 294.999 150.427C300.669 149.88 305.513 151.813 309.009 156.015C315.093 163.329 316.353 176.6 312.299 190.647C308.68 203.287 304.578 217.616 297.506 229.247C293.842 235.276 289.667 240.173 284.749 244.221C279.266 248.731 272.995 252.083 265.576 254.473C259.16 256.588 248.543 257.315 234.875 256.577C221.745 255.868 206.473 253.79 191.874 250.726C178.498 247.918 166.112 244.4 155.676 240.456ZM302.451 151.648C300.204 150.799 297.713 150.493 295.031 150.751C279.735 152.233 249.042 151.84 227.177 144.687C217.942 141.787 205.883 141.176 194.094 143.01C182.885 144.754 174.038 148.37 170.427 152.682C168.153 155.402 164.93 158.574 160.847 162.592C151.873 171.423 139.584 183.519 125.294 202.48C120.555 208.553 120.296 214.674 124.527 220.671C128.829 226.771 137.575 232.621 150.522 238.055C161.927 242.842 176.25 247.113 191.942 250.407C206.525 253.468 221.778 255.543 234.892 256.253C248.521 256.989 259.096 256.268 265.475 254.164C272.856 251.787 279.092 248.453 284.541 243.971C289.432 239.947 293.583 235.076 297.229 229.08C304.277 217.487 308.374 203.181 311.987 190.559C316.012 176.612 314.775 163.458 308.759 156.225C306.988 154.093 304.86 152.558 302.451 151.648Z" fill="url(#paint11_linear_804_3283)"/>
<path d="M159.852 235.403C158.653 234.949 157.484 234.491 156.347 234.025C144.59 229.217 136.631 224.011 132.691 218.551C128.836 213.209 128.974 207.753 133.103 202.334C145.233 185.389 156.6 173.591 164.9 164.976C168.477 161.263 171.565 158.058 173.753 155.412C177.327 151.1 185.593 147.477 195.869 145.716C206.584 143.879 217.76 144.333 226.533 146.957C235.203 149.727 246.39 151.72 258.889 152.719C268.921 153.521 279.395 153.649 287.624 153.07C292.695 152.717 297.027 154.567 300.149 158.421C305.596 165.145 306.727 177.149 303.102 189.749C299.342 202.992 295.736 214.761 289.682 224.678C286.351 230.134 282.561 234.578 278.098 238.261C273.131 242.361 267.457 245.423 260.756 247.624C254.89 249.624 245.229 250.387 232.821 249.828C220.951 249.295 207.118 247.533 193.871 244.866C181.238 242.324 169.568 239.075 159.852 235.403ZM293.97 154.237C292.042 153.508 289.921 153.214 287.645 153.373C279.402 153.954 268.912 153.825 258.864 153.022C246.342 152.02 235.13 150.024 226.442 147.248C217.714 144.636 206.589 144.188 195.919 146.016C185.713 147.765 177.514 151.35 173.986 155.605C171.792 158.259 168.699 161.47 165.118 165.185C156.824 173.794 145.465 185.584 133.346 202.513C129.306 207.818 129.169 213.152 132.936 218.374C136.843 223.786 144.757 228.959 156.46 233.745C166.801 237.974 179.756 241.717 193.928 244.57C207.16 247.234 220.977 248.995 232.832 249.528C245.201 250.084 254.824 249.326 260.657 247.338C267.324 245.147 272.965 242.103 277.902 238.03C282.34 234.368 286.107 229.95 289.42 224.522C295.453 214.639 299.052 202.89 302.807 189.669C306.406 177.162 305.296 165.262 299.911 158.615C298.255 156.567 296.249 155.099 293.97 154.237Z" fill="url(#paint12_linear_804_3283)"/>
<path d="M164.05 230.384C163.453 230.158 162.866 229.931 162.287 229.702C151.779 225.545 144.653 221.02 141.11 216.252C137.726 211.697 137.746 207.033 141.169 202.389C151.263 187.24 161.861 175.597 169.6 167.095C172.669 163.725 175.318 160.813 177.329 158.353C180.87 154.036 188.293 150.535 197.692 148.745C207.289 146.919 217.529 147.209 225.787 149.538C241.995 154.568 265.377 156.266 280.246 155.714C284.721 155.553 288.54 157.323 291.289 160.833C296.095 166.967 297.096 177.703 293.901 188.851C290.724 200.153 287.412 211.049 281.854 220.108C278.857 224.993 275.451 228.981 271.444 232.303C266.991 235.993 261.917 238.763 255.934 240.777C250.614 242.663 241.909 243.461 230.761 243.086C220.149 242.727 207.753 241.282 195.858 239.013C183.977 236.749 173.03 233.777 164.05 230.384ZM285.479 156.812C283.876 156.205 282.124 155.929 280.256 155.997C265.366 156.549 241.943 154.848 225.708 149.809C217.495 147.492 207.302 147.204 197.746 149.022C188.41 150.798 181.048 154.264 177.547 158.531C175.533 160.996 172.879 163.91 169.808 167.283C162.075 175.778 151.486 187.411 141.398 202.548C138.053 207.087 138.032 211.639 141.335 216.083C144.846 220.81 151.929 225.303 162.389 229.441C171.667 233.108 183.256 236.326 195.91 238.74C207.791 241.005 220.172 242.45 230.77 242.807C241.883 243.182 250.553 242.389 255.842 240.514C261.794 238.512 266.839 235.755 271.264 232.09C275.247 228.789 278.633 224.822 281.614 219.964C287.154 210.934 290.459 200.06 293.63 188.777C296.801 177.714 295.819 167.073 291.068 161.009C289.525 159.036 287.636 157.627 285.479 156.812Z" fill="url(#paint13_linear_804_3283)"/>
<path d="M168.281 225.412C168.259 225.404 168.237 225.395 168.215 225.387C158.953 221.881 152.663 218.037 149.516 213.961C146.603 210.188 146.51 206.312 149.236 202.442C157.408 188.786 167.536 176.986 174.933 168.371C177.249 165.673 179.249 163.343 180.906 161.294C184.365 157.032 191.148 153.564 199.517 151.777C208.005 149.965 217.31 150.09 225.04 152.123C232.071 154.225 240.683 155.856 250.637 156.974C258.125 157.815 266.229 158.32 272.867 158.362C276.75 158.393 280.059 160.085 282.438 163.257C286.596 168.803 287.461 178.268 284.698 187.958C282.074 197.418 279.087 207.343 274.024 215.544C271.361 219.857 268.34 223.391 264.788 226.349C260.85 229.627 256.376 232.108 251.11 233.933C241.65 237.446 220.239 237.139 197.834 233.17C186.716 231.199 176.499 228.517 168.281 225.412ZM276.979 159.363C275.705 158.881 274.329 158.63 272.869 158.618C266.222 158.576 258.108 158.069 250.612 157.229C240.642 156.109 232.016 154.474 224.974 152.369C217.284 150.348 208.025 150.223 199.573 152.028C191.26 153.802 184.531 157.239 181.109 161.455C179.449 163.507 177.448 165.838 175.131 168.539C167.741 177.148 157.619 188.937 149.454 202.583C146.795 206.358 146.888 210.129 149.722 213.803C152.838 217.842 159.091 221.657 168.307 225.147C168.328 225.155 168.351 225.163 168.372 225.171C176.573 228.27 186.776 230.948 197.881 232.914C220.244 236.877 241.6 237.188 251.024 233.69C256.263 231.874 260.711 229.407 264.625 226.148C268.156 223.208 271.16 219.695 273.807 215.406C278.852 207.234 281.832 197.33 284.451 187.887C287.193 178.272 286.342 168.894 282.232 163.411C280.799 161.497 279.021 160.134 276.979 159.363Z" fill="url(#paint14_linear_804_3283)"/>
<path d="M172.52 220.496C165.38 217.797 160.466 214.838 157.905 211.686C155.469 208.691 155.266 205.601 157.299 202.503C163.558 189.982 173.771 177.427 181.226 168.259C182.396 166.821 183.5 165.461 184.483 164.234C187.916 159.959 193.902 156.609 201.343 154.804C208.844 152.985 216.996 152.948 224.297 154.703C229.268 156.116 243.222 159.56 265.494 161.007C268.791 161.229 271.595 162.847 273.601 165.691C277.1 170.65 277.828 178.838 275.5 187.06C273.394 194.783 270.767 203.637 266.199 210.976C261.373 218.731 254.861 224.001 246.291 227.088C242.06 228.748 235.26 229.621 226.628 229.615C218.406 229.608 209.13 228.819 199.803 227.334C190.172 225.799 181.293 223.639 174.127 221.088C173.581 220.891 173.044 220.695 172.52 220.496ZM268.459 161.88C267.524 161.526 266.526 161.311 265.479 161.242C261.916 161.01 254.711 160.454 246.484 159.332C237.848 158.154 230.364 156.673 224.238 154.931C216.978 153.188 208.864 153.224 201.399 155.035C194.008 156.828 188.068 160.147 184.668 164.382C183.686 165.611 182.581 166.969 181.41 168.409C173.959 177.569 163.755 190.115 157.506 202.616L157.5 202.628C155.525 205.632 155.723 208.63 158.087 211.539C160.771 214.84 166.345 218.066 174.208 220.865C181.361 223.413 190.225 225.569 199.843 227.101C209.157 228.585 218.419 229.373 226.629 229.379C235.231 229.387 242.002 228.518 246.209 226.867C254.73 223.799 261.203 218.559 266 210.851C270.55 203.539 273.172 194.705 275.273 186.997L275.272 186.995C277.581 178.84 276.867 170.729 273.408 165.826C272.083 163.947 270.402 162.614 268.459 161.88Z" fill="url(#paint15_linear_804_3283)"/>
<path d="M176.949 215.733C171.877 213.817 168.216 211.667 166.265 209.444C164.305 207.212 164.002 204.897 165.365 202.563C169.432 190.732 182.486 174.224 188.062 167.174C195.044 158.376 209.638 154.309 223.554 157.283C234.419 160.17 247.769 162.131 255.747 163.301C256.594 163.425 257.389 163.542 258.122 163.652C260.844 164.065 263.146 165.622 264.784 168.153C267.61 172.523 268.19 179.423 266.303 186.161C264.474 193.04 262.245 200.255 258.376 206.406C254.245 212.971 248.715 217.496 241.473 220.24C234.222 223.284 218.634 223.785 201.764 221.514C193.653 220.422 186.137 218.797 180.027 216.811C178.95 216.46 177.923 216.1 176.949 215.733ZM259.913 164.336C259.33 164.116 258.722 163.957 258.089 163.861C257.356 163.752 256.561 163.634 255.714 163.511C247.732 162.339 234.373 160.377 223.503 157.489C209.669 154.533 195.162 158.569 188.228 167.305C182.658 174.348 169.612 190.843 165.563 202.64L165.559 202.649L165.553 202.658C164.236 204.907 164.529 207.143 166.425 209.301C168.727 211.922 173.453 214.449 180.092 216.606C186.189 218.587 193.692 220.21 201.791 221.301C218.625 223.568 234.17 223.072 241.392 220.041C257.478 213.948 262.415 199.935 266.095 186.105L266.094 186.103C267.966 179.422 267.394 172.588 264.601 168.266C263.381 166.377 261.781 165.043 259.913 164.336Z" fill="url(#paint16_linear_804_3283)"/>
<path d="M181.417 211.136C178.317 209.965 175.973 208.658 174.586 207.273C173.093 205.781 172.704 204.218 173.427 202.628C173.637 199.069 175.883 193.715 180.101 186.71C183.174 181.608 187.38 175.558 191.639 170.114C198.485 161.387 210.137 157.555 222.809 159.865C227.161 160.909 231.724 161.911 236.135 162.881C241.841 164.134 247.23 165.319 250.748 166.298C253.706 167.132 255.973 169.636 257.133 173.345C258.232 176.86 258.221 181.203 257.102 185.263C254.703 194.615 252.34 199.033 250.548 201.836C247.115 207.209 242.57 210.988 236.651 213.392C230.468 216.218 217.85 217.114 203.722 215.727C194.698 214.842 186.885 213.203 181.417 211.136ZM251.323 166.687C251.118 166.609 250.91 166.541 250.699 166.482C247.186 165.505 241.799 164.32 236.096 163.066C231.683 162.095 227.12 161.093 222.772 160.05C210.177 157.754 198.593 161.56 191.792 170.23C187.538 175.668 183.338 181.711 180.268 186.807C176.058 193.797 173.821 199.129 173.619 202.656L173.618 202.674L173.612 202.69C172.914 204.207 173.289 205.703 174.725 207.138C178.526 210.935 189.646 214.154 203.746 215.538C217.842 216.921 230.424 216.032 236.58 213.218C242.465 210.828 246.981 207.073 250.391 201.735C253.787 196.419 255.665 190.114 256.922 185.216L256.923 185.214C258.033 181.189 258.045 176.883 256.956 173.403C255.895 170.024 253.91 167.665 251.323 166.687Z" fill="url(#paint17_linear_804_3283)"/>
<path d="M185.98 206.872C184.699 206.388 183.661 205.863 182.912 205.306C181.817 204.492 181.339 203.62 181.493 202.714C179.851 200.051 182.307 194.043 184.661 189.464C187.316 184.301 191.263 178.167 195.218 173.054C198.627 168.658 202.421 165.661 206.818 163.893C211.307 162.089 216.296 161.615 222.067 162.446C230.628 164.179 238.993 166.732 243.382 168.949C245.515 170.038 247.137 172.299 247.946 175.314C248.704 178.135 248.689 181.433 247.906 184.365C246.018 192.175 242.486 201.755 231.834 206.546C226.762 209.136 217.031 210.434 205.808 210.013C197.606 209.706 190.367 208.53 185.98 206.872ZM239.403 167.422C234.803 165.684 228.474 163.916 222.036 162.611C216.299 161.784 211.34 162.255 206.879 164.049C202.51 165.805 198.739 168.784 195.349 173.155C187.958 182.71 178.822 198.179 181.651 202.651L181.669 202.679L181.662 202.711C181.505 203.561 181.959 204.388 183.01 205.171C186.296 207.614 195.247 209.449 205.812 209.844C217.007 210.263 226.706 208.972 231.757 206.393C242.346 201.631 245.86 192.097 247.738 184.325L247.739 184.323C248.516 181.419 248.53 178.151 247.78 175.358C246.982 172.39 245.391 170.167 243.301 169.098C242.225 168.554 240.906 167.989 239.403 167.422Z" fill="url(#paint18_linear_804_3283)"/>
<path d="M190.791 203.504C190.238 203.295 189.834 203.062 189.602 202.807C188.628 202.592 187.964 202.016 187.624 201.097C186.632 198.407 188.581 193.367 190.391 189.614C192.546 185.147 195.686 180.055 198.794 175.994C202.312 171.4 205.348 168.603 208.64 166.923C212.15 165.132 216.181 164.528 221.32 165.027C227.092 165.856 232.856 168.438 236.011 171.605C238.831 174.46 239.595 179.877 238.704 183.467C237.092 190.968 233.159 196.428 227.014 199.697C224.661 201.094 221.386 202.243 217.285 203.108C213.733 203.857 209.659 204.365 205.501 204.576C198.99 204.907 193.328 204.463 190.791 203.504ZM189.678 202.676L189.694 202.694C189.913 202.944 190.305 203.173 190.845 203.376C196.429 205.488 217.829 204.984 226.942 199.572C233.051 196.323 236.959 190.894 238.562 183.436L238.563 183.434C239.444 179.885 238.693 174.529 235.908 171.71C232.775 168.565 227.041 165.999 221.303 165.175C216.195 164.68 212.191 165.277 208.706 167.057C205.436 168.727 202.413 171.511 198.91 176.084C195.808 180.139 192.674 185.221 190.523 189.678C188.725 193.407 186.786 198.405 187.76 201.049C188.084 201.926 188.722 202.473 189.655 202.673L189.678 202.676Z" fill="url(#paint19_linear_804_3283)"/>
<path d="M194.864 202.771C194.312 202.562 193.879 202.21 193.57 201.718C192.794 200.482 192.423 197.708 195.053 191.512C196.816 187.36 199.552 182.658 202.369 178.932C205.701 174.529 207.907 171.729 210.46 169.954C213.102 168.119 216.033 167.439 220.574 167.607C223.078 167.701 225.113 168.674 226.627 170.501C229.899 174.453 229.722 181.123 229.504 182.563C229.093 185.253 227.631 187.862 225.158 190.321C223.03 192.437 220.149 194.447 216.594 196.298C210.171 199.643 202.628 201.874 197.709 202.846C196.553 203.076 195.603 203.05 194.864 202.771ZM223.332 168.268C222.489 167.95 221.568 167.771 220.572 167.734C216.06 167.566 213.152 168.239 210.534 170.058C207.996 171.822 205.794 174.617 202.47 179.009C197.332 185.8 191.243 197.772 193.676 201.654C194.366 202.756 195.717 203.118 197.687 202.729C202.598 201.759 210.129 199.532 216.541 196.192C220.083 194.347 222.954 192.343 225.074 190.236C227.528 187.797 228.978 185.212 229.385 182.549C229.602 181.121 229.78 174.501 226.535 170.584C225.646 169.51 224.575 168.737 223.332 168.268Z" fill="url(#paint20_linear_804_3283)"/>
</g>
</g>
<defs>
<linearGradient id="paint0_linear_804_3283" x1="385.797" y1="104.628" x2="434.121" y2="257.106" gradientUnits="userSpaceOnUse">
<stop stop-color="#E9CBA3"/>
<stop offset="0.1507" stop-color="#EEDEBC"/>
<stop offset="0.3859" stop-color="#C9A885"/>
<stop offset="0.6326" stop-color="#9A7A5F"/>
<stop offset="0.8567" stop-color="#C9A885"/>
<stop offset="0.9987" stop-color="#C9A885"/>
</linearGradient>
<linearGradient id="paint1_linear_804_3283" x1="388.807" y1="110.541" x2="433.136" y2="250.413" gradientUnits="userSpaceOnUse">
<stop stop-color="#E9CBA3"/>
<stop offset="0.1507" stop-color="#EEDEBC"/>
<stop offset="0.3859" stop-color="#C9A885"/>
<stop offset="0.6326" stop-color="#9A7A5F"/>
<stop offset="0.8567" stop-color="#C9A885"/>
<stop offset="0.9987" stop-color="#C9A885"/>
</linearGradient>
<linearGradient id="paint2_linear_804_3283" x1="391.783" y1="116.376" x2="432.146" y2="243.734" gradientUnits="userSpaceOnUse">
<stop stop-color="#E9CBA3"/>
<stop offset="0.1507" stop-color="#EEDEBC"/>
<stop offset="0.3859" stop-color="#C9A885"/>
<stop offset="0.6326" stop-color="#9A7A5F"/>
<stop offset="0.8567" stop-color="#C9A885"/>
<stop offset="0.9987" stop-color="#C9A885"/>
</linearGradient>
<linearGradient id="paint3_linear_804_3283" x1="394.715" y1="122.103" x2="431.152" y2="237.074" gradientUnits="userSpaceOnUse">
<stop stop-color="#E9CBA3"/>
<stop offset="0.1507" stop-color="#EEDEBC"/>
<stop offset="0.3859" stop-color="#C9A885"/>
<stop offset="0.6326" stop-color="#9A7A5F"/>
<stop offset="0.8567" stop-color="#C9A885"/>
<stop offset="0.9987" stop-color="#C9A885"/>
</linearGradient>
<linearGradient id="paint4_linear_804_3283" x1="397.555" y1="127.584" x2="430.153" y2="230.441" gradientUnits="userSpaceOnUse">
<stop stop-color="#E9CBA3"/>
<stop offset="0.1507" stop-color="#EEDEBC"/>
<stop offset="0.3859" stop-color="#C9A885"/>
<stop offset="0.6326" stop-color="#9A7A5F"/>
<stop offset="0.8567" stop-color="#C9A885"/>
<stop offset="0.9987" stop-color="#C9A885"/>
</linearGradient>
<linearGradient id="paint5_linear_804_3283" x1="400.226" y1="132.662" x2="429.127" y2="223.854" gradientUnits="userSpaceOnUse">
<stop stop-color="#E9CBA3"/>
<stop offset="0.1507" stop-color="#EEDEBC"/>
<stop offset="0.3859" stop-color="#C9A885"/>
<stop offset="0.6326" stop-color="#9A7A5F"/>
<stop offset="0.8567" stop-color="#C9A885"/>
<stop offset="0.9987" stop-color="#C9A885"/>
</linearGradient>
<linearGradient id="paint6_linear_804_3283" x1="402.455" y1="137.283" x2="427.848" y2="217.405" gradientUnits="userSpaceOnUse">
<stop stop-color="#E9CBA3"/>
<stop offset="0.1507" stop-color="#EEDEBC"/>
<stop offset="0.3859" stop-color="#C9A885"/>
<stop offset="0.6326" stop-color="#9A7A5F"/>
<stop offset="0.8567" stop-color="#C9A885"/>
<stop offset="0.9987" stop-color="#C9A885"/>
</linearGradient>
<linearGradient id="paint7_linear_804_3283" x1="402.4" y1="142.101" x2="424.464" y2="211.722" gradientUnits="userSpaceOnUse">
<stop stop-color="#E9CBA3"/>
<stop offset="0.1507" stop-color="#EEDEBC"/>
<stop offset="0.3859" stop-color="#C9A885"/>
<stop offset="0.6326" stop-color="#9A7A5F"/>
<stop offset="0.8567" stop-color="#C9A885"/>
<stop offset="0.9987" stop-color="#C9A885"/>
</linearGradient>
<linearGradient id="paint8_linear_804_3283" x1="401.937" y1="145.498" x2="421.175" y2="206.199" gradientUnits="userSpaceOnUse">
<stop stop-color="#E9CBA3"/>
<stop offset="0.1507" stop-color="#EEDEBC"/>
<stop offset="0.3859" stop-color="#C9A885"/>
<stop offset="0.6326" stop-color="#9A7A5F"/>
<stop offset="0.8567" stop-color="#C9A885"/>
<stop offset="0.9987" stop-color="#C9A885"/>
</linearGradient>
<linearGradient id="paint9_linear_804_3283" x1="199.751" y1="132.131" x2="245.817" y2="277.484" gradientUnits="userSpaceOnUse">
<stop stop-color="#E9CBA3"/>
<stop offset="0.1507" stop-color="#EEDEBC"/>
<stop offset="0.3859" stop-color="#C9A885"/>
<stop offset="0.6326" stop-color="#9A7A5F"/>
<stop offset="0.8567" stop-color="#C9A885"/>
<stop offset="0.9987" stop-color="#C9A885"/>
</linearGradient>
<linearGradient id="paint10_linear_804_3283" x1="200.603" y1="135.784" x2="243.127" y2="269.961" gradientUnits="userSpaceOnUse">
<stop stop-color="#E9CBA3"/>
<stop offset="0.1507" stop-color="#EEDEBC"/>
<stop offset="0.3859" stop-color="#C9A885"/>
<stop offset="0.6326" stop-color="#9A7A5F"/>
<stop offset="0.8567" stop-color="#C9A885"/>
<stop offset="0.9987" stop-color="#C9A885"/>
</linearGradient>
<linearGradient id="paint11_linear_804_3283" x1="201.438" y1="139.396" x2="240.435" y2="262.442" gradientUnits="userSpaceOnUse">
<stop stop-color="#E9CBA3"/>
<stop offset="0.1507" stop-color="#EEDEBC"/>
<stop offset="0.3859" stop-color="#C9A885"/>
<stop offset="0.6326" stop-color="#9A7A5F"/>
<stop offset="0.8567" stop-color="#C9A885"/>
<stop offset="0.9987" stop-color="#C9A885"/>
</linearGradient>
<linearGradient id="paint12_linear_804_3283" x1="202.27" y1="143.008" x2="237.74" y2="254.926" gradientUnits="userSpaceOnUse">
<stop stop-color="#E9CBA3"/>
<stop offset="0.1507" stop-color="#EEDEBC"/>
<stop offset="0.3859" stop-color="#C9A885"/>
<stop offset="0.6326" stop-color="#9A7A5F"/>
<stop offset="0.8567" stop-color="#C9A885"/>
<stop offset="0.9987" stop-color="#C9A885"/>
</linearGradient>
<linearGradient id="paint13_linear_804_3283" x1="203.083" y1="146.579" x2="235.04" y2="247.414" gradientUnits="userSpaceOnUse">
<stop stop-color="#E9CBA3"/>
<stop offset="0.1507" stop-color="#EEDEBC"/>
<stop offset="0.3859" stop-color="#C9A885"/>
<stop offset="0.6326" stop-color="#9A7A5F"/>
<stop offset="0.8567" stop-color="#C9A885"/>
<stop offset="0.9987" stop-color="#C9A885"/>
</linearGradient>
<linearGradient id="paint14_linear_804_3283" x1="203.881" y1="150.133" x2="232.334" y2="239.91" gradientUnits="userSpaceOnUse">
<stop stop-color="#E9CBA3"/>
<stop offset="0.1507" stop-color="#EEDEBC"/>
<stop offset="0.3859" stop-color="#C9A885"/>
<stop offset="0.6326" stop-color="#9A7A5F"/>
<stop offset="0.8567" stop-color="#C9A885"/>
<stop offset="0.9987" stop-color="#C9A885"/>
</linearGradient>
<linearGradient id="paint15_linear_804_3283" x1="204.653" y1="153.641" x2="229.619" y2="232.418" gradientUnits="userSpaceOnUse">
<stop stop-color="#E9CBA3"/>
<stop offset="0.1507" stop-color="#EEDEBC"/>
<stop offset="0.3859" stop-color="#C9A885"/>
<stop offset="0.6326" stop-color="#9A7A5F"/>
<stop offset="0.8567" stop-color="#C9A885"/>
<stop offset="0.9987" stop-color="#C9A885"/>
</linearGradient>
<linearGradient id="paint16_linear_804_3283" x1="205.387" y1="157.098" x2="226.889" y2="224.942" gradientUnits="userSpaceOnUse">
<stop stop-color="#E9CBA3"/>
<stop offset="0.1507" stop-color="#EEDEBC"/>
<stop offset="0.3859" stop-color="#C9A885"/>
<stop offset="0.6326" stop-color="#9A7A5F"/>
<stop offset="0.8567" stop-color="#C9A885"/>
<stop offset="0.9987" stop-color="#C9A885"/>
</linearGradient>
<linearGradient id="paint17_linear_804_3283" x1="206.073" y1="160.521" x2="224.132" y2="217.504" gradientUnits="userSpaceOnUse">
<stop stop-color="#E9CBA3"/>
<stop offset="0.1507" stop-color="#EEDEBC"/>
<stop offset="0.3859" stop-color="#C9A885"/>
<stop offset="0.6326" stop-color="#9A7A5F"/>
<stop offset="0.8567" stop-color="#C9A885"/>
<stop offset="0.9987" stop-color="#C9A885"/>
</linearGradient>
<linearGradient id="paint18_linear_804_3283" x1="206.645" y1="163.874" x2="221.309" y2="210.145" gradientUnits="userSpaceOnUse">
<stop stop-color="#E9CBA3"/>
<stop offset="0.1507" stop-color="#EEDEBC"/>
<stop offset="0.3859" stop-color="#C9A885"/>
<stop offset="0.6326" stop-color="#9A7A5F"/>
<stop offset="0.8567" stop-color="#C9A885"/>
<stop offset="0.9987" stop-color="#C9A885"/>
</linearGradient>
<linearGradient id="paint19_linear_804_3283" x1="206.329" y1="167.402" x2="217.688" y2="203.241" gradientUnits="userSpaceOnUse">
<stop stop-color="#E9CBA3"/>
<stop offset="0.1507" stop-color="#EEDEBC"/>
<stop offset="0.3859" stop-color="#C9A885"/>
<stop offset="0.6326" stop-color="#9A7A5F"/>
<stop offset="0.8567" stop-color="#C9A885"/>
<stop offset="0.9987" stop-color="#C9A885"/>
</linearGradient>
<linearGradient id="paint20_linear_804_3283" x1="205.633" y1="170.894" x2="214.239" y2="198.047" gradientUnits="userSpaceOnUse">
<stop stop-color="#E9CBA3"/>
<stop offset="0.1507" stop-color="#EEDEBC"/>
<stop offset="0.3859" stop-color="#C9A885"/>
<stop offset="0.6326" stop-color="#9A7A5F"/>
<stop offset="0.8567" stop-color="#C9A885"/>
<stop offset="0.9987" stop-color="#C9A885"/>
</linearGradient>
<clipPath id="clip0_804_3283">
<rect width="375" height="200" fill="white"/>
</clipPath>
</defs>
</svg>
