<svg width="1240" height="550" viewBox="0 0 1240 550" fill="none" xmlns="http://www.w3.org/2000/svg">
<g clip-path="url(#clip0_752_8281)">
<rect width="1240" height="550" rx="8" fill="#FDFBF6"/>
<g clip-path="url(#clip1_752_8281)">
<g opacity="0.3">
<path d="M1158.58 137.137C1154.43 133.857 1152.64 131.304 1152.13 129.346C1149.23 118.284 1130.32 106.588 1112.04 95.2784C1090.98 82.2534 1071.09 69.9505 1071.07 57.3876C1071.07 52.0389 1074.64 47.216 1081.98 42.6413C1103.96 28.9579 1145.06 25.5904 1175.67 25.1803C1213.45 24.672 1248.4 28.3514 1262.67 30.9506C1305.76 38.7945 1343.59 45.9048 1370.23 53.4483C1398.34 61.4135 1413.31 69.5461 1418.77 79.8217C1421.96 85.8057 1421.85 92.4828 1418.44 100.234C1413.7 111.012 1413.35 121.167 1417.32 132.193C1420.93 142.203 1427.81 152.069 1435.08 162.517C1443.89 175.155 1453.87 189.48 1460.09 206.993C1461.13 209.927 1460.77 212.399 1459.02 214.34C1454.57 219.255 1440.96 220.526 1418.56 218.106C1398.88 215.98 1372.69 211.007 1342.82 203.718C1300.52 193.396 1253.66 179.077 1217.47 165.405C1183.63 152.611 1166.65 143.503 1158.58 137.137ZM1139.37 111.908C1146.6 117.62 1151.93 123.344 1153.42 129.011C1155.41 136.606 1178.92 149.417 1217.94 164.152C1254.08 177.801 1300.88 192.108 1343.13 202.413C1407.18 218.043 1450.13 222.161 1458.02 213.433C1459.44 211.862 1459.7 209.898 1458.82 207.426C1452.67 190.081 1442.74 175.837 1433.98 163.268C1419.27 142.151 1406.57 123.916 1417.21 99.6913C1420.45 92.3384 1420.57 86.0425 1417.59 80.4398C1406.42 59.4381 1351.35 48.4462 1262.43 32.256C1248.2 29.6683 1213.36 26.0005 1175.68 26.5088C1145.24 26.9189 1104.4 30.2459 1082.68 43.7734C1075.76 48.0824 1072.4 52.5357 1072.4 57.3876C1072.42 69.2111 1092.92 81.8896 1112.74 94.1463C1122.2 99.9917 1131.82 105.941 1139.37 111.908Z" fill="url(#paint0_linear_752_8281)"/>
<path d="M1163.74 135.56C1160.55 133.042 1158.57 130.732 1158.01 128.687C1155.24 118.625 1138.01 107.945 1121.35 97.6176C1101.99 85.6149 1083.7 74.2823 1083.66 62.6956C1083.64 57.7917 1086.87 53.3731 1093.53 49.1854C1105.03 41.7055 1124.12 36.068 1148.73 32.8912C1169.69 30.188 1194.18 29.414 1215.93 30.7772C1238.59 32.406 1256.03 34.8666 1260.84 35.5828C1304.04 43.317 1335.42 49.4511 1358.45 56.134C1383.54 63.4176 1397.57 71.1922 1402.6 80.6071C1405.63 86.2734 1405.55 92.5809 1402.34 99.8818C1397.99 109.788 1397.64 119.122 1401.23 129.259C1404.49 138.46 1410.72 147.534 1417.32 157.134C1425.26 168.692 1434.25 181.798 1439.85 197.763C1440.77 200.587 1440.36 202.955 1438.64 204.815C1427.07 217.315 1358.58 202.378 1329.67 195.377C1262.01 179.002 1185.3 152.594 1163.74 135.56ZM1146.36 112.82C1152.94 118.019 1157.8 123.217 1159.22 128.358C1163.38 143.37 1252.8 175.484 1329.96 194.17C1389.72 208.645 1430 212.313 1437.72 203.978C1439.13 202.453 1439.43 200.558 1438.65 198.179C1433.12 182.375 1424.17 169.35 1416.28 157.856C1402.94 138.431 1391.42 121.657 1401.19 99.3908C1404.23 92.4596 1404.33 86.5102 1401.5 81.2078C1390.97 61.5 1338.89 50.8374 1260.64 36.8305C1255.86 36.12 1238.47 33.6652 1215.86 32.0421C1194.2 30.6848 1169.78 31.453 1148.9 34.1504C1124.47 37.3041 1105.56 42.8722 1094.21 50.254C1087.94 54.199 1084.9 58.2712 1084.92 62.7072C1084.96 73.6008 1103.8 85.2742 1122.02 96.5663C1130.65 101.915 1139.45 107.362 1146.36 112.82Z" fill="url(#paint1_linear_752_8281)"/>
<path d="M1169.07 134.215C1166.24 131.98 1164.45 129.9 1163.89 128.035C1161.26 118.978 1145.71 109.314 1130.67 99.9745C1113 89 1096.32 78.6262 1096.25 68.0214C1096.23 63.5681 1099.11 59.5537 1105.09 55.7473C1115.5 48.6139 1133.44 42.6241 1155.57 38.8928C1176.15 35.4214 1198.63 34.2084 1217.25 35.56C1229.69 36.7152 1240.9 38.0726 1249.9 39.1585C1253.41 39.5801 1256.43 39.944 1259 40.2386C1290.96 45.8414 1323.67 51.9697 1346.67 58.8317C1369.13 65.5261 1381.76 72.7 1386.43 81.3987C1389.3 86.7531 1389.25 92.6909 1386.24 99.5586C1377.6 119.278 1387.77 134.342 1399.54 151.786C1406.61 162.263 1414.63 174.145 1419.6 188.573C1421.34 194.494 1416.72 197.203 1412.54 198.439C1390.58 204.925 1325.04 190.543 1275.59 176.253C1230.79 163.297 1184.5 146.402 1169.07 134.215ZM1153.49 113.808C1159.38 118.458 1163.67 123.067 1165.01 127.705C1167.96 137.6 1213.56 157.1 1275.91 175.115C1305.11 183.548 1334.12 190.439 1357.63 194.511C1384.03 199.086 1402.9 200.05 1412.21 197.307C1417.62 195.707 1419.67 192.963 1418.48 188.92C1413.57 174.664 1405.6 162.852 1398.57 152.433C1386.6 134.7 1376.27 119.388 1385.17 99.0792C1388.02 92.5638 1388.09 86.9553 1385.4 81.9416C1376.2 64.8157 1335.56 54.8462 1258.83 41.388C1256.29 41.0992 1253.26 40.7353 1249.76 40.3137C1240.76 39.2278 1229.56 37.8762 1217.15 36.721C1198.63 35.3809 1176.25 36.5881 1155.76 40.0422C1133.79 43.7504 1116.02 49.6709 1105.73 56.7234C1100.11 60.3046 1097.4 63.9955 1097.42 68.0156C1097.48 77.9735 1114.67 88.6534 1131.28 98.981C1139.42 104.035 1147.33 108.945 1153.49 113.808Z" fill="url(#paint2_linear_752_8281)"/>
<path d="M1174.26 132.678C1171.92 130.824 1170.3 129.033 1169.77 127.381C1167.26 119.324 1153.39 110.683 1139.99 102.325C1124.71 92.806 1108.92 82.9637 1108.83 73.3408C1108.8 69.338 1111.35 65.7279 1116.63 62.3027C1136.3 47.9608 1184.89 37.4773 1218.55 40.3249C1224.03 40.9718 1229.23 41.6303 1234.26 42.2714C1243.5 43.444 1251.47 44.4548 1257.16 44.8764L1257.22 44.8822C1294.58 51.2705 1317.81 56.2379 1334.88 61.4999C1354.69 67.6051 1365.93 74.161 1370.24 82.1377C1372.97 87.1859 1372.94 92.7714 1370.13 99.2117C1362.34 117.019 1371.34 130.645 1381.75 146.414C1387.96 155.811 1394.99 166.468 1399.34 179.354C1400.53 183.964 1398.09 187.158 1392.11 188.891C1383.2 191.467 1365.91 190.733 1342.09 186.765C1321.05 183.265 1295.13 177.258 1269.11 169.853C1243.7 162.627 1219.89 154.569 1202.06 147.164C1192.11 143.04 1180.56 137.651 1174.26 132.678ZM1160.46 114.72C1165.7 118.856 1169.53 122.945 1170.81 127.052C1172.24 131.488 1183.48 138.275 1202.47 146.159C1220.27 153.547 1244.04 161.587 1269.41 168.807C1313.18 181.26 1371.49 193.714 1391.81 187.845C1397.2 186.291 1399.32 183.617 1398.31 179.672C1394.02 166.959 1387.03 156.366 1380.86 147.026C1370.27 130.986 1361.12 117.135 1369.14 98.7842C1371.81 92.6732 1371.86 87.3997 1369.3 82.6633C1360.58 66.5308 1321.55 56.9946 1257.07 45.9681C1251.35 45.5464 1243.37 44.5356 1234.14 43.3631C1229.11 42.7277 1223.91 42.0635 1218.46 41.4223C1185.03 38.5921 1136.78 48.9774 1117.26 63.2096C1112.29 66.4268 1109.9 69.7365 1109.94 73.3408C1110.02 82.3687 1125.55 92.0494 1140.58 101.407C1147.86 105.947 1154.94 110.359 1160.46 114.72Z" fill="url(#paint3_linear_752_8281)"/>
<path d="M1179.53 131.24C1177.54 129.669 1176.16 128.144 1175.65 126.729C1173.28 119.671 1161.1 112.052 1149.32 104.688C1135.66 96.1448 1121.54 87.3133 1121.43 78.6665C1121.38 75.1085 1123.59 71.9028 1128.19 68.8646C1136.45 62.3492 1151.82 55.6201 1169.24 50.8837C1187.77 45.847 1206.23 43.7388 1219.87 45.1077L1223.76 45.6911C1236.1 47.5452 1247.75 49.2953 1255.34 49.5321L1255.41 49.5379C1319.07 60.0619 1346.74 69.4017 1354.07 82.8484C1356.67 87.6078 1356.66 92.8525 1354.04 98.8827C1347.1 114.784 1354.93 126.96 1363.98 141.065C1369.32 149.383 1375.38 158.809 1379.1 170.159L1379.11 170.211C1380.07 174.636 1377.55 177.726 1371.64 179.395C1352.58 184.772 1302.83 174.705 1262.63 163.494C1240.5 157.319 1219.69 150.376 1204.04 143.942C1195.28 140.332 1185.07 135.613 1179.53 131.24ZM1167.45 115.639C1172.03 119.255 1175.4 122.824 1176.61 126.4C1179.34 134.134 1215.63 149.325 1262.91 162.512C1285.7 168.865 1308.42 173.977 1326.91 176.894C1347.82 180.198 1363.19 180.718 1371.37 178.413C1376.74 176.9 1378.95 174.289 1378.13 170.442C1374.45 159.231 1368.44 149.868 1363.14 141.608C1353.92 127.26 1345.97 114.871 1353.11 98.4784C1355.6 92.7543 1355.62 87.7985 1353.18 83.3278C1344.92 68.183 1308.07 59.2648 1255.27 50.5372C1247.62 50.3004 1235.96 48.5444 1223.61 46.6903L1219.74 46.1127C1206.24 44.7611 1187.92 46.8578 1169.5 51.8657C1152.2 56.5674 1136.97 63.2329 1128.77 69.6905C1124.45 72.5497 1122.39 75.4724 1122.43 78.6607C1122.54 86.7588 1136.42 95.4402 1149.84 103.839C1156.3 107.859 1162.56 111.775 1167.45 115.639Z" fill="url(#paint4_linear_752_8281)"/>
<path d="M1184.81 129.836C1183.12 128.496 1181.99 127.237 1181.53 126.082C1179.3 120.029 1168.8 113.432 1158.66 107.056C1146.61 99.489 1134.15 91.6625 1134.02 83.9861C1133.96 80.8844 1135.83 78.0888 1139.72 75.4376C1153.82 63.2212 1195.13 46.7537 1221.2 49.8786C1233.09 52.1254 1245.36 54.303 1253.52 54.1759L1253.6 54.1817C1305.92 62.4472 1331.12 71.2095 1337.89 83.4836C1340.36 87.9774 1340.39 92.9043 1337.95 98.5417C1331.86 112.531 1338.51 123.269 1346.21 135.705C1350.69 142.942 1355.77 151.144 1358.87 160.946L1358.89 161.01C1359.6 165.307 1356.99 168.305 1351.12 169.922C1333.59 174.751 1290.59 166.48 1256.19 157.134C1227.22 149.261 1195.25 138.079 1184.81 129.836ZM1174.44 116.563C1178.36 119.659 1181.28 122.709 1182.41 125.747C1185.05 132.476 1216.18 145.299 1256.43 156.233C1290.71 165.55 1333.52 173.798 1350.86 169.021C1356.25 167.537 1358.58 164.978 1357.96 161.189C1354.9 151.508 1349.86 143.37 1345.41 136.19C1337.58 123.535 1330.81 112.606 1337.08 98.1663C1339.4 92.8119 1339.39 88.1506 1337.07 83.9283C1330.46 71.9373 1305.46 63.3136 1253.49 55.1001C1245.24 55.2272 1232.94 53.0438 1221.05 50.7912C1195.24 47.6952 1154.26 64.0414 1140.3 76.148L1140.26 76.1827C1136.64 78.6433 1134.9 81.1905 1134.95 83.9572C1135.08 91.1253 1147.32 98.819 1159.15 106.253C1164.75 109.782 1170.19 113.201 1174.44 116.563Z" fill="url(#paint5_linear_752_8281)"/>
<path d="M1190.1 128.427C1188.75 127.37 1187.84 126.365 1187.42 125.429C1185.32 120.375 1176.52 114.813 1168 109.43C1157.57 102.828 1146.77 96.0062 1146.6 89.3059C1146.54 86.6894 1148.1 84.2346 1151.25 81.9992C1162.72 70.7186 1200.64 51.4382 1222.5 54.6554C1231.08 56.7175 1243.4 59.386 1251.68 58.8258L1251.78 58.8315C1293.29 64.9715 1315.5 72.9771 1321.68 84.0209C1324.02 88.22 1324.08 92.9911 1321.84 98.2068C1316.61 110.29 1322.08 119.59 1328.41 130.351C1332.03 136.502 1336.14 143.479 1338.62 151.745L1338.63 151.82C1339.08 156.019 1336.34 158.948 1330.49 160.525C1323.35 162.448 1311.78 162.361 1296.1 160.27C1282.41 158.445 1266.39 155.176 1249.76 150.821C1225.65 144.49 1198.85 135.341 1190.1 128.427ZM1181.46 117.499C1184.71 120.069 1187.17 122.588 1188.21 125.089C1190.76 130.801 1216.75 141.279 1249.99 149.989C1293.46 161.379 1319.96 162.471 1330.28 159.699C1335.64 158.255 1338.18 155.644 1337.8 151.947C1335.35 143.803 1331.46 137.184 1327.69 130.778C1321.24 119.815 1315.67 110.348 1321.07 97.866C1323.23 92.8409 1323.19 88.4453 1320.94 84.431C1314.91 73.6413 1292.91 65.7743 1251.71 59.6748C1243.31 60.2293 1230.93 57.555 1222.35 55.4872C1200.75 52.3162 1163.16 71.458 1151.84 82.6288L1151.79 82.675C1148.82 84.766 1147.4 86.932 1147.46 89.2828C1147.62 95.5267 1158.22 102.233 1168.47 108.713C1173.22 111.717 1177.84 114.64 1181.46 117.499Z" fill="url(#paint6_linear_752_8281)"/>
<path d="M1166.21 104.208C1162.17 101.02 1159.31 97.8085 1159.19 94.6259C1159.11 92.4541 1160.33 90.4152 1162.81 88.5668C1171.71 78.118 1205.74 56.0766 1223.83 59.4325L1223.88 59.444C1234.97 62.8923 1243.71 64.2439 1249.87 63.4757H1249.97C1281.27 67.6576 1299.94 74.687 1305.46 84.3734C1307.75 88.3936 1307.85 92.9335 1305.75 97.8663C1301.37 108.044 1305.66 115.899 1310.62 124.996C1313.39 130.068 1316.52 135.815 1318.38 142.532L1318.39 142.619C1318.54 146.761 1315.64 149.649 1309.77 151.208C1297.81 154.385 1273 151.895 1243.42 144.543C1231.02 141.464 1219.18 137.825 1210.07 134.296C1203.34 131.691 1194.96 127.925 1193.3 124.771C1191.36 120.722 1184.25 116.194 1177.38 111.815C1173.45 109.32 1169.46 106.773 1166.21 104.208ZM1223.67 60.1834C1213.17 58.2484 1198.15 65.2259 1190.12 69.5637C1179.06 75.5419 1168.06 83.5763 1163.36 89.104L1163.3 89.1618C1160.98 90.883 1159.89 92.6621 1159.96 94.6028C1160.15 99.9341 1169.13 105.652 1177.8 111.186C1185.09 115.824 1191.96 120.208 1194 124.442C1199.13 134.18 1282.48 157.671 1309.58 150.475C1315.03 149.025 1317.73 146.414 1317.63 142.7C1315.79 136.081 1312.82 130.634 1309.95 125.372C1304.89 116.101 1300.52 108.09 1305.04 97.5717C1307.04 92.87 1306.96 88.5611 1304.79 84.7604C1299.39 75.2993 1280.93 68.3969 1249.91 64.2497C1243.65 65.0121 1234.82 63.6432 1223.67 60.1834Z" fill="url(#paint7_linear_752_8281)"/>
<path d="M1177.78 108.055C1174.37 105.363 1171.92 102.648 1171.77 99.951C1171.68 98.224 1172.54 96.6067 1174.34 95.1338C1177.65 90.074 1187.2 81.381 1196.59 74.883C1203.65 70.008 1216.73 62.141 1225.14 64.2031L1225.2 64.2204C1230.3 66.3229 1240.06 69.6268 1248.04 68.125L1248.14 68.1192C1270.18 70.5683 1284.37 76.1941 1289.19 84.3904C1291.51 88.3181 1291.66 92.7367 1289.65 97.5251C1286.12 105.802 1289.21 112.219 1292.79 119.653C1294.8 123.829 1296.88 128.15 1298.13 133.331L1298.14 133.429C1297.93 137.576 1294.83 140.482 1288.92 142.064C1278.72 144.802 1259.38 143.422 1237.19 138.379C1217.66 133.937 1201.68 127.942 1199.2 124.135C1197.42 121.097 1192.27 117.782 1186.82 114.264C1183.65 112.219 1180.42 110.146 1177.78 108.055ZM1224.97 64.8673C1210.92 61.4652 1180.61 86.747 1174.9 95.5555L1174.87 95.6017L1174.83 95.6363C1173.16 96.9879 1172.39 98.3915 1172.47 99.9164C1172.71 104.352 1180.08 109.1 1187.2 113.692C1192.72 117.25 1197.94 120.612 1199.79 123.777C1202.13 127.381 1218.29 133.377 1237.36 137.709C1259.44 142.728 1278.65 144.109 1288.75 141.4C1294.31 139.91 1297.24 137.235 1297.46 133.446C1296.23 128.358 1294.17 124.083 1292.18 119.953C1288.52 112.37 1285.37 105.825 1289.02 97.2594C1290.94 92.6848 1290.8 88.474 1288.6 84.7427C1283.9 76.7486 1269.91 71.2383 1248.13 68.8124C1239.99 70.3199 1230.13 66.9987 1224.97 64.8673Z" fill="url(#paint8_linear_752_8281)"/>
<path d="M1189.4 111.948C1186.6 109.741 1184.56 107.512 1184.35 105.294C1184.24 104.017 1184.75 102.816 1185.88 101.719C1187.68 97.3288 1195.37 88.2084 1203.45 80.8959C1217.29 68.3677 1223.82 68.0558 1226.48 68.9857L1226.53 69.0088C1233.24 72.8268 1240.61 74.2361 1246.23 72.7748L1246.33 72.7632C1263.44 73.982 1270.24 79.4172 1272.94 83.7666C1275.35 87.6597 1275.56 92.3036 1273.55 97.1786C1270.87 103.561 1272.75 108.546 1274.92 114.316C1276.06 117.349 1277.24 120.479 1277.9 124.13V124.234C1277.21 128.508 1273.85 131.535 1267.92 133.227C1248.56 138.749 1209.56 128.606 1205.11 123.488C1203.55 121.484 1200.09 119.214 1196.42 116.817C1193.96 115.217 1191.47 113.588 1189.4 111.948ZM1226.25 69.5518C1221.94 68.0731 1213.77 72.3705 1203.86 81.3464C1195.8 88.6358 1188.14 97.71 1186.42 102.002L1186.4 102.065L1186.36 102.111C1185.32 103.099 1184.86 104.121 1184.96 105.236C1185.29 108.812 1191.37 112.797 1196.75 116.315C1200.46 118.741 1203.97 121.039 1205.58 123.113C1207.82 125.683 1218.89 129.415 1231.33 131.789C1246.36 134.654 1259.63 134.971 1267.76 132.649C1273.42 131.032 1276.63 128.19 1277.3 124.193C1276.65 120.624 1275.49 117.528 1274.36 114.536C1272.14 108.644 1270.23 103.561 1273 96.9533C1274.94 92.2632 1274.74 87.8156 1272.43 84.0901C1269.81 79.8678 1263.16 74.5827 1246.35 73.3755C1240.57 74.8542 1233.07 73.4275 1226.25 69.5518Z" fill="url(#paint9_linear_752_8281)"/>
<path d="M1201.17 116.003C1198.98 114.264 1197.27 112.474 1196.93 110.712C1196.76 109.863 1196.93 109.06 1197.42 108.326C1198.1 101.597 1214.81 78.8685 1223.58 74.2997C1225.38 73.3697 1226.8 73.1965 1227.83 73.7856L1227.85 73.7972L1227.87 73.8145C1231.45 76.8585 1237.94 79.6368 1244.42 77.4361L1244.5 77.4245C1250.58 77.3032 1254.85 78.9379 1257.16 82.2822C1259.59 85.7825 1259.7 91.2293 1257.46 96.8552C1255.63 101.349 1256.26 105.069 1256.93 109.008C1257.24 110.885 1257.57 112.826 1257.67 114.963L1257.66 115.05C1256.2 119.838 1252.46 123.275 1246.53 125.262C1233.81 129.53 1215.05 125.782 1211.03 122.859C1209.96 121.998 1208.42 120.982 1206.79 119.907C1204.89 118.666 1202.88 117.349 1201.17 116.003ZM1227.54 74.2246C1226.68 73.7452 1225.43 73.9243 1223.82 74.7618C1219.82 76.8412 1213.81 82.9349 1207.73 91.056C1202.12 98.5649 1198.18 105.548 1197.93 108.436L1197.92 108.505L1197.88 108.563C1197.44 109.199 1197.29 109.869 1197.44 110.608C1198.01 113.525 1203.02 116.823 1207.06 119.468C1208.71 120.548 1210.26 121.571 1211.33 122.443C1215.28 125.308 1233.78 128.987 1246.35 124.765C1252.09 122.836 1255.71 119.532 1257.12 114.94C1257.03 112.855 1256.7 110.943 1256.39 109.095C1255.71 105.08 1255.07 101.291 1256.96 96.6588C1259.14 91.2004 1259.04 85.9384 1256.72 82.5825C1254.51 79.3999 1250.42 77.8404 1244.54 77.9502C1237.88 80.1855 1231.23 77.3437 1227.54 74.2246Z" fill="url(#paint10_linear_752_8281)"/>
<path d="M1212.79 120.081C1210.85 118.544 1209.51 116.569 1208.99 115.003C1207.98 111.907 1211.85 102.845 1215.81 95.3995C1219.67 88.1333 1225.06 79.7118 1227.77 78.3949C1228.6 77.9905 1229.01 78.3602 1229.19 78.6144C1231.5 82.0684 1236.69 84.6214 1242.61 82.08C1243.69 81.6121 1244.47 81.6121 1244.95 82.0742C1246.46 83.5355 1244.17 89.3405 1242.32 94.0017C1241.96 94.9259 1241.62 95.7808 1241.35 96.5085C1233.3 118.221 1224.95 122.651 1219.37 122.547C1216.8 122.495 1214.55 121.467 1212.79 120.081ZM1228.71 78.7414C1228.58 78.6375 1228.37 78.597 1227.97 78.7934C1225.76 79.8678 1220.81 86.9376 1216.2 95.6075C1211.28 104.866 1208.61 112.422 1209.41 114.865C1210.35 117.724 1214.16 121.998 1219.37 122.102C1224.82 122.206 1232.97 117.828 1240.93 96.3584C1241.2 95.6306 1241.54 94.7699 1241.91 93.8458C1243.51 89.791 1245.94 83.6568 1244.64 82.4034C1244.31 82.0742 1243.68 82.1089 1242.78 82.4959C1236.63 85.1413 1231.23 82.467 1228.81 78.8685C1228.79 78.8223 1228.75 78.7819 1228.71 78.7414Z" fill="url(#paint11_linear_752_8281)"/>
<path d="M1146.8 7.45929C1146.06 6.8759 1145.59 6.26942 1145.39 5.63984C1145.03 4.46152 1145.54 3.28898 1146.9 2.1511C1152.19 -2.2618 1177.27 -11.798 1206.55 -20.5199C1255.09 -34.9831 1279.83 -37.3571 1288.22 -37.7036C1324.9 -39.2227 1355.46 -34.8156 1366.11 -26.475C1366.12 -26.4692 1366.13 -26.4577 1366.14 -26.4519C1370.77 -22.7899 1368.09 -18.3885 1365.24 -13.7272C1361.4 -7.43136 1357.03 -0.292168 1365.06 9.05347C1371.94 17.0591 1382.36 25.3188 1391.54 32.6082C1403.31 41.9423 1412.61 49.3183 1411.5 53.6214C1411.19 54.8113 1410.51 55.6893 1409.48 56.2207C1404.69 58.7275 1392.02 54.0604 1364.25 43.831C1359.31 42.0116 1353.7 39.9438 1347.68 37.7489C1328.44 30.7483 1283.12 26.295 1239.31 21.9918C1187.53 16.9031 1154.09 13.2238 1146.8 7.45929ZM1365.31 -25.4064C1365.29 -25.4122 1365.29 -25.418 1365.28 -25.4295C1353.45 -34.7058 1318.07 -37.6112 1288.28 -36.3751C1270.66 -35.6473 1241.01 -29.4034 1206.93 -19.2491C1177.81 -10.5677 1152.92 -1.14125 1147.76 3.16768C1146.38 4.31712 1146.59 5.01025 1146.66 5.24129C1147.53 8.04845 1157.35 10.8498 1175.87 13.5761C1193.02 16.1003 1215.56 18.3125 1239.44 20.6576C1283.34 24.9723 1328.73 29.4314 1348.13 36.4897C1354.16 38.6846 1359.77 40.7466 1364.72 42.5719C1390.43 52.0446 1404.6 57.2661 1408.86 55.0308C1409.56 54.6669 1409.99 54.1066 1410.21 53.2749C1411.1 49.8093 1401.2 41.9538 1390.72 33.6363C1381.48 26.3123 1371.01 18.0064 1364.05 9.90833C1355.39 -0.170868 1360.22 -8.07827 1364.1 -14.4319C1367.24 -19.5611 1368.84 -22.6108 1365.31 -25.4064Z" fill="url(#paint12_linear_752_8281)"/>
<path d="M1158.62 5.81886C1157.91 5.25859 1157.46 4.68098 1157.26 4.07449C1156.91 2.99437 1157.34 1.92003 1158.52 0.874569C1163.33 -4.21413 1188.82 -13.5829 1212 -20.6239C1242.28 -29.8251 1270.16 -35.8322 1286.58 -36.7044C1288.55 -36.8084 1290.54 -36.8892 1292.5 -36.9585C1323.01 -37.952 1348.79 -33.8799 1358.17 -26.579C1358.18 -26.5674 1358.19 -26.5616 1358.21 -26.5501C1362.48 -23.1769 1360.08 -19.1279 1357.53 -14.8478C1354.12 -9.08333 1350.24 -2.55063 1357.62 5.98059C1363.96 13.3277 1373.56 20.9174 1382.01 27.6119C1392.77 36.1315 1401.28 42.8606 1400.51 46.8577C1400.41 48.1573 1399.89 49.1219 1398.97 49.7226C1394.88 52.4027 1382.22 47.8916 1354.49 38.0145C1351.19 36.842 1347.69 35.5944 1343.96 34.2717C1326.59 28.1144 1285.79 23.9614 1246.33 19.9413C1197.29 14.9508 1165.62 11.3465 1158.62 5.81886ZM1357.42 -25.5682C1357.41 -25.5739 1357.4 -25.5855 1357.39 -25.5913C1348.23 -32.7247 1322.77 -36.6928 1292.54 -35.7051C1290.59 -35.6358 1288.6 -35.5492 1286.64 -35.451C1249.68 -33.4929 1167.49 -6.88266 1159.41 1.75253L1159.37 1.79296C1158.18 2.83842 1158.39 3.47956 1158.46 3.69328C1159.33 6.39069 1168.71 9.10543 1186.35 11.774C1202.64 14.2346 1223.92 16.4006 1246.45 18.6994C1285.98 22.7253 1326.86 26.8899 1344.38 33.0934C1348.1 34.4161 1351.61 35.6637 1354.9 36.8362C1381.41 46.2743 1394.71 51.0107 1398.28 48.6771C1398.88 48.2844 1399.19 47.6605 1399.26 46.7306L1399.27 46.644C1399.95 43.4151 1390.86 36.2182 1381.23 28.5996C1372.72 21.8705 1363.08 14.2403 1356.66 6.80656C1348.69 -2.412 1352.99 -9.65516 1356.45 -15.4832C1359.25 -20.2022 1360.67 -23.0036 1357.42 -25.5682Z" fill="url(#paint13_linear_752_8281)"/>
<path d="M1170.44 4.17864C1169.76 3.64146 1169.32 3.08696 1169.13 2.50936C1168.8 1.52743 1169.14 0.551281 1170.13 -0.401764C1172.59 -3.89627 1186.3 -11.047 1217.43 -20.7277C1238.17 -27.1737 1266.78 -34.4978 1284.93 -35.7107C1286.7 -35.8263 1288.51 -35.9244 1290.3 -36.0111C1317.79 -37.2298 1341.31 -33.5678 1350.22 -26.6885C1350.23 -26.677 1350.25 -26.6654 1350.26 -26.6539C1354.16 -23.5695 1352.05 -19.8786 1349.82 -15.974C1346.83 -10.7467 1343.44 -4.81466 1350.16 2.90791C1355.98 9.59657 1364.74 16.5163 1372.47 22.6158C1382.24 30.3152 1389.96 36.4148 1389.5 40.0941C1389.66 41.5728 1389.33 42.624 1388.47 43.3171C1384.98 46.1416 1372.8 41.9655 1343.38 31.8748L1340.24 30.7947C1324.73 25.4807 1288.48 21.6396 1253.41 17.9198C1207.08 13.0044 1177.14 9.46949 1170.44 4.17864ZM1349.53 -25.7355C1349.52 -25.7471 1349.51 -25.7528 1349.5 -25.7644C1340.79 -32.4819 1317.57 -36.0515 1290.35 -34.8443C1288.57 -34.7577 1286.77 -34.6537 1285 -34.544C1266.96 -33.3368 1238.45 -26.0416 1217.78 -19.6129C1192.63 -11.7921 1173.85 -3.78653 1171.06 0.308689L1171.02 0.360676L1170.98 0.406883C1169.98 1.34838 1170.18 1.93753 1170.24 2.13392C1171.11 4.72737 1180.07 7.36124 1196.87 9.97202C1212.33 12.3749 1232.35 14.5004 1253.54 16.7473C1288.67 20.4729 1324.99 24.3255 1340.62 29.6799L1343.76 30.76C1371.05 40.1172 1384.75 44.8131 1387.73 42.3987C1388.07 42.1273 1388.5 41.5959 1388.33 40.1519L1388.32 40.071L1388.33 39.9901C1388.81 37.0039 1380.52 30.4596 1371.75 23.5342C1363.98 17.4058 1355.16 10.4457 1349.27 3.67612C1342.02 -4.67604 1345.78 -11.2665 1348.8 -16.5574C1351.25 -20.8432 1352.5 -23.3962 1349.53 -25.7355Z" fill="url(#paint14_linear_752_8281)"/>
<path d="M1182.26 2.5383C1181.61 2.02424 1181.19 1.49862 1180.99 0.94989C1180.77 0.343407 1180.73 -0.603867 1181.73 -1.66666C1186.38 -11.4744 1253.8 -32.2393 1283.27 -34.7114C1284.91 -34.8385 1286.52 -34.954 1288.1 -35.0638C1312.94 -36.5193 1333.7 -33.354 1342.27 -26.7982C1342.29 -26.7867 1342.31 -26.7751 1342.32 -26.7636C1345.85 -23.9737 1344.03 -20.6352 1342.1 -17.106C1339.54 -12.4101 1336.65 -7.08459 1342.7 -0.170666C1347.99 5.8653 1355.93 12.1092 1362.93 17.6196C1371.71 24.5162 1378.65 29.9803 1378.49 33.3362C1379 35.0459 1378.86 36.2531 1378.06 37.0386C1375.3 39.7476 1365.06 36.7036 1336.51 27.3175C1322.9 22.8469 1291.24 19.3293 1260.62 15.933C1216.92 11.0869 1188.68 7.60967 1182.26 2.5383ZM1341.65 -25.8972C1341.64 -25.9087 1341.62 -25.9203 1341.61 -25.9318C1333.37 -32.2335 1312.39 -35.393 1288.17 -33.9721C1286.6 -33.8681 1285 -33.7526 1283.37 -33.6255C1252.33 -31.0205 1186.46 -9.77045 1182.69 -1.14104L1182.65 -1.04862L1182.58 -0.979313C1181.85 -0.228424 1181.91 0.268318 1182.02 0.580223C1184.08 6.33894 1224.81 10.8616 1260.74 14.8471C1291.41 18.2491 1323.13 21.7725 1336.86 26.2836C1361.07 34.243 1374.89 38.627 1377.3 36.2646C1377.79 35.7852 1377.83 34.9015 1377.42 33.5672L1377.38 33.4633L1377.39 33.3535C1377.67 30.6041 1370.18 24.7183 1362.26 18.486C1355.22 12.9467 1347.24 6.66817 1341.88 0.557117C1335.32 -6.93441 1338.55 -12.8606 1341.15 -17.6201C1343.26 -21.4843 1344.32 -23.7831 1341.65 -25.8972Z" fill="url(#paint15_linear_752_8281)"/>
<path d="M1194.04 0.845959C1193.45 0.372322 1193.05 -0.112865 1192.85 -0.609604C1192.65 -1.15255 1192.57 -1.98431 1193.35 -2.9258C1193.93 -5.29976 1197.64 -8.19356 1204.37 -11.5148C1210.34 -14.4663 1218.62 -17.724 1228.31 -20.9297C1247.28 -27.2141 1268.71 -32.349 1281.63 -33.7121C1283.08 -33.8508 1284.51 -33.9836 1285.91 -34.1107C1307.7 -35.78 1326.25 -33.019 1334.34 -26.9022C1337.56 -24.4127 1336.04 -21.3976 1334.41 -18.2265C1332.27 -14.062 1329.86 -9.34876 1335.25 -3.23193C1340.02 2.14557 1347.13 7.71945 1353.41 12.6349C1361.2 18.7344 1367.37 23.5689 1367.48 26.6013C1368.12 27.9241 1368.81 29.7551 1367.81 30.9218C1365.78 33.2958 1358.26 31.7709 1332.8 23.8462C1321.1 20.2073 1294.11 17.0535 1268.02 14.0038C1227.9 9.31941 1200.25 5.74982 1194.04 0.845959ZM1333.77 -26.0646C1333.75 -26.0762 1333.74 -26.0877 1333.72 -26.0993C1327.53 -30.7779 1311.74 -35.081 1285.99 -33.1056C1284.59 -32.9843 1283.17 -32.8515 1281.73 -32.7129C1268.88 -31.3613 1247.54 -26.2437 1228.63 -19.9767C1207.94 -13.1263 1195.11 -6.62825 1194.3 -2.59657L1194.28 -2.46372L1194.19 -2.35975C1193.61 -1.70128 1193.69 -1.25075 1193.8 -0.96772C1195.93 4.56573 1234.29 9.05372 1268.14 13.0045C1295.48 16.1987 1321.31 19.2138 1333.1 22.8873C1354.19 29.4547 1365.22 32.3947 1367.05 30.2691C1367.51 29.7204 1367.34 28.6056 1366.52 26.9479L1366.46 26.8382L1366.47 26.7111C1366.53 24.1927 1359.85 18.9654 1352.79 13.432C1346.47 8.48766 1339.32 2.8849 1334.49 -2.56191C1328.64 -9.19281 1331.34 -14.4548 1333.51 -18.6829C1335.27 -22.1254 1336.15 -24.1759 1333.77 -26.0646Z" fill="url(#paint16_linear_752_8281)"/>
<path d="M1205.83 -0.84111C1205.28 -1.27431 1204.9 -1.71329 1204.71 -2.1696C1204.52 -2.64324 1204.41 -3.36524 1204.96 -4.19122C1205.01 -6.63449 1207.8 -9.34923 1213.47 -12.4856C1218.32 -15.1715 1225.33 -18.1288 1233.74 -21.0457C1249.01 -26.3366 1268.03 -31.1422 1279.97 -32.7249C1281.24 -32.8808 1282.48 -33.0252 1283.7 -33.1696C1302.44 -35.0469 1318.8 -32.6902 1326.39 -27.0124C1329.27 -24.8059 1328.01 -22.1547 1326.7 -19.3533C1325 -15.726 1323.06 -11.6134 1327.8 -6.30525C1332.04 -1.58044 1338.33 3.32341 1343.88 7.6439C1350.7 12.9521 1356.11 17.1686 1356.45 19.8718C1358.14 22.3786 1358.55 23.9555 1357.8 24.9894C1356.14 27.2651 1348.9 26.0984 1329.08 20.3685C1319.33 17.5498 1298.16 14.9275 1275.73 12.155C1243.21 8.12909 1212.36 4.31112 1205.83 -0.84111ZM1325.88 -26.2268C1325.86 -26.2384 1325.85 -26.2557 1325.83 -26.2673C1318.42 -31.8065 1302.31 -34.0938 1283.81 -32.2397C1282.6 -32.0953 1281.35 -31.9509 1280.09 -31.8007C1268.21 -30.2239 1249.27 -25.4413 1234.05 -20.1678C1216.04 -13.9296 1205.78 -8.05539 1205.9 -4.05837L1205.9 -3.89664L1205.81 -3.76379C1205.37 -3.19196 1205.47 -2.78764 1205.57 -2.53349C1207.83 2.81512 1243.97 7.28579 1275.85 11.2308C1298.31 14.0091 1319.53 16.6372 1329.35 19.4732C1342.79 23.3605 1355.44 26.6529 1357.05 24.4406C1357.53 23.7879 1357.05 22.3901 1355.63 20.2934L1355.56 20.1895L1355.55 20.0624C1355.4 17.7809 1349.54 13.212 1343.33 8.37746C1337.74 4.0281 1331.41 -0.904648 1327.12 -5.68721C1321.98 -11.4517 1324.14 -16.0552 1325.87 -19.7519C1327.28 -22.767 1327.98 -24.5691 1325.88 -26.2268Z" fill="url(#paint17_linear_752_8281)"/>
<path d="M1217.61 -2.51602C1217.11 -2.90879 1216.76 -3.30733 1216.56 -3.71166C1216.29 -4.28349 1216.3 -4.87842 1216.59 -5.44447C1216.37 -6.53614 1216.65 -7.69135 1217.43 -8.86967C1223.49 -18.1402 1260.29 -28.6757 1278.32 -31.7197L1281.5 -32.2107C1297.44 -34.3189 1311.25 -32.4128 1318.44 -27.1162C1320.95 -25.1985 1320 -22.9055 1319 -20.4853C1317.72 -17.3893 1316.26 -13.8775 1320.35 -9.37796C1324.06 -5.31162 1329.53 -1.07778 1334.37 2.65932C1340.23 7.19352 1344.88 10.7862 1345.43 13.1602C1348.04 16.2041 1348.86 18.0987 1348.11 19.3001C1347.13 20.8712 1343.7 21.6625 1325.36 16.8915C1317.65 14.8872 1301.32 12.7327 1284.02 10.4512C1254.48 6.55815 1224.01 2.53802 1217.61 -2.51602ZM1318 -26.3884C1317.98 -26.4057 1317.96 -26.4231 1317.94 -26.4346C1315.31 -28.3696 1304.92 -34.4518 1281.62 -31.3674L1278.46 -30.8822C1260.56 -27.8555 1224.07 -17.4702 1218.14 -8.40181C1217.47 -7.36789 1217.24 -6.38019 1217.46 -5.47913L1217.5 -5.30585L1217.41 -5.15567C1217.18 -4.786 1217.16 -4.43944 1217.33 -4.07555C1217.49 -3.74632 1217.78 -3.42286 1218.19 -3.0994C1224.29 1.71782 1257.29 6.07296 1284.13 9.61368C1301.45 11.901 1317.81 14.0555 1325.57 16.0771C1334.27 18.3413 1345.99 21.0907 1347.38 18.8611C1347.89 18.0525 1346.99 16.2908 1344.7 13.6396L1344.63 13.5529L1344.61 13.4374C1344.25 11.3927 1339.19 7.48232 1333.84 3.34089C1328.98 -0.413536 1323.47 -4.67626 1319.71 -8.80035C1315.27 -13.6984 1316.9 -17.6377 1318.21 -20.803C1319.29 -23.4022 1319.81 -24.956 1318 -26.3884Z" fill="url(#paint18_linear_752_8281)"/>
<path d="M1229.4 -4.17934C1228.96 -4.5259 1228.63 -4.87824 1228.43 -5.23636C1228.15 -5.72154 1228.09 -6.21828 1228.25 -6.70347C1227.69 -8.00308 1227.76 -9.35468 1228.43 -10.7236C1230.34 -14.582 1237.2 -18.6541 1248.81 -22.836C1260.08 -26.8965 1272.05 -29.7037 1276.67 -30.7203C1277.56 -30.8993 1278.43 -31.0784 1279.3 -31.2574C1292.38 -33.5852 1303.75 -32.1123 1310.5 -27.22C1312.65 -25.5911 1311.99 -23.6619 1311.3 -21.6114C1310.44 -19.0469 1309.47 -16.1415 1312.89 -12.4449C1316.08 -9.03122 1320.74 -5.46162 1324.85 -2.31368C1329.76 1.44653 1333.66 4.42697 1334.4 6.46591C1338.25 10.1741 1339.62 12.4788 1338.84 13.9343C1338.1 15.3033 1335.49 16.4816 1321.65 13.426C1316.18 12.2188 1305.73 10.746 1293.63 9.04203C1262.04 4.58292 1235.3 0.481926 1229.4 -4.17934ZM1310.11 -26.5557C1310.09 -26.5731 1310.07 -26.5904 1310.04 -26.6077C1303.47 -31.373 1292.31 -32.7996 1279.44 -30.5066C1278.59 -30.3275 1277.71 -30.1484 1276.82 -29.9752C1272.22 -28.9586 1260.29 -26.163 1249.06 -22.1197C1237.81 -18.065 1230.91 -14.0102 1229.12 -10.3886C1228.52 -9.16984 1228.48 -8.02041 1229.01 -6.88253L1229.08 -6.72658L1229.01 -6.57062C1228.87 -6.25294 1228.9 -5.94681 1229.09 -5.61757C1232.02 -0.419134 1267.69 4.60025 1293.73 8.27381C1305.85 9.98352 1316.31 11.4564 1321.8 12.6694C1331.79 14.8758 1337.29 15.1762 1338.15 13.5647C1338.72 12.5019 1337.25 10.2781 1333.78 6.9511L1333.71 6.88178L1333.68 6.78937C1333.11 4.98147 1328.86 1.73533 1324.37 -1.70719C1320.24 -4.87247 1315.55 -8.45939 1312.32 -11.925C1308.59 -15.9567 1309.68 -19.2317 1310.56 -21.8598C1311.24 -23.841 1311.72 -25.2792 1310.11 -26.5557Z" fill="url(#paint19_linear_752_8281)"/>
<path d="M1241.13 -5.90633C1240.78 -6.1778 1240.52 -6.4435 1240.32 -6.7092C1240.02 -7.13085 1239.89 -7.55828 1239.93 -7.97993C1238.87 -9.60877 1238.63 -11.2549 1239.22 -12.8838C1241.81 -20.0345 1259.84 -25.2907 1271.77 -28.7737C1272.92 -29.1087 1274.01 -29.4264 1275.01 -29.721C1275.72 -29.9116 1276.42 -30.108 1277.09 -30.3043C1287.26 -32.8342 1296.31 -31.7772 1302.56 -27.3297C1304.33 -26.0012 1303.98 -24.4301 1303.62 -22.7608C1303.17 -20.7277 1302.67 -18.423 1305.44 -15.5234C1308.11 -12.7567 1311.96 -9.85137 1315.36 -7.2868C1319.16 -4.41611 1322.45 -1.93818 1323.36 -0.234251C1328.71 4.14977 1330.9 7.15331 1330.09 8.95544C1329.26 10.8153 1325.28 11.1388 1317.94 9.94315C1315.57 9.55615 1311.96 9.03053 1307.77 8.41827C1286.68 5.33964 1248.25 -0.280458 1241.13 -5.90633ZM1302.23 -26.7116C1302.2 -26.7347 1302.18 -26.7521 1302.15 -26.7752C1296.06 -31.1014 1287.22 -32.1238 1277.27 -29.6459C1276.6 -29.4495 1275.9 -29.2589 1275.2 -29.0683C1274.2 -28.7737 1273.12 -28.456 1271.97 -28.121C1260.89 -24.8864 1242.34 -19.48 1239.87 -12.6585C1239.34 -11.1914 1239.57 -9.75317 1240.58 -8.26295L1240.66 -8.14743L1240.63 -8.00881C1240.58 -7.72578 1240.66 -7.43698 1240.89 -7.1193C1241.06 -6.8767 1241.3 -6.63988 1241.61 -6.39729C1248.51 -0.944704 1288.32 4.87178 1307.88 7.72514C1312.07 8.33741 1315.68 8.86303 1318.06 9.25002C1326.64 10.6478 1329 9.70055 1329.48 8.66086C1329.93 7.65583 1329.15 5.38006 1322.88 0.239384L1322.83 0.193178L1322.79 0.129642C1322 -1.42989 1318.58 -4.01756 1314.95 -6.74963C1311.54 -9.32575 1307.66 -12.2484 1304.95 -15.0556C1301.93 -18.2209 1302.5 -20.8259 1302.96 -22.9168C1303.3 -24.5052 1303.55 -25.672 1302.23 -26.7116Z" fill="url(#paint20_linear_752_8281)"/>
<path d="M700.523 411.367C691.116 403.939 682.207 396.551 673.852 389.244C627.968 349.124 599.927 312.81 590.503 281.319C580.859 249.1 591.15 222.704 621.1 202.875C712.017 142.659 777.981 112.947 821.627 93.2799C841.273 84.431 856.791 77.4362 867.505 70.7649C885.324 59.6633 925.507 57.9709 972.362 66.3462C1022.79 75.3626 1069.8 93.8344 1101.35 117.037C1144.86 149.036 1200.52 173.197 1239.55 187.834C1285.01 204.885 1334.93 219.013 1373.08 225.626C1397.7 229.895 1415.59 243.515 1424.83 265.008C1440.81 302.228 1428.82 358.187 1393.52 411.049C1376.79 436.106 1359.49 462.017 1341.33 485.866C1321.26 512.24 1302.27 533.172 1283.26 549.865C1260.57 569.798 1237.28 584.377 1212.05 594.433C1183.88 605.661 1153.94 611.045 1120.52 610.9C1063.44 610.652 942.621 563.438 826.721 496.078C779.316 468.526 736.3 439.629 700.523 411.367ZM1404.78 240.598C1396.08 233.724 1385.34 229.109 1372.84 226.938C1334.62 220.307 1284.62 206.155 1239.08 189.081C1199.97 174.416 1144.19 150.197 1100.55 118.105C1069.17 95.0243 1022.36 76.6333 972.125 67.6573C925.582 59.3398 885.764 60.9629 868.21 71.897C857.422 78.6145 841.869 85.6266 822.176 94.4986C778.565 114.143 712.659 143.832 621.834 203.984C592.44 223.455 582.328 249.343 591.781 280.938C601.136 312.186 629.044 348.287 674.731 388.239C714.798 423.277 767.591 460.169 827.391 494.923C943.107 562.174 1063.65 609.318 1120.52 609.566C1153.78 609.71 1183.55 604.356 1211.55 593.191C1236.63 583.193 1259.8 568.695 1282.38 548.86C1324.73 511.656 1359.14 460.128 1392.4 410.304C1427.45 357.811 1439.41 302.338 1423.6 265.527C1419.24 255.373 1412.89 247.004 1404.78 240.598Z" fill="url(#paint21_linear_752_8281)"/>
<path d="M720.291 398.353C712.85 392.479 705.767 386.634 699.055 380.84C656.756 344.319 630.836 311.256 622.019 282.573C613.109 253.577 622.1 229.78 648.748 211.845C728.842 157.082 790.596 127.544 831.462 107.997C850.645 98.8193 865.799 91.5704 876.588 84.772C894.031 73.7859 931.867 71.4755 975.334 78.7476C1021.87 86.5337 1065.85 103.423 1095.98 125.095C1136.27 154.42 1187.33 176.929 1223.07 190.647C1265.06 206.762 1309.45 219.897 1344.86 226.678C1367.21 230.964 1383.42 243.729 1391.75 263.604C1406.22 298.099 1395.16 349.575 1362.9 397.943C1332.51 443.609 1301.08 490.834 1261.36 525.64C1240.43 543.973 1218.95 557.408 1195.69 566.708C1169.73 577.087 1142.17 582.124 1111.42 582.118C1058.62 582.274 947.009 539.508 839.995 478.121C794.84 452.209 753.969 424.958 720.291 398.353ZM1372.84 240.338C1365.1 234.216 1355.61 230.016 1344.62 227.908C1309.14 221.11 1264.67 207.958 1222.62 191.814C1186.81 178.067 1135.64 155.511 1095.24 126.105C1065.26 104.543 1021.48 87.7293 975.12 79.9779C931.948 72.7578 894.448 74.9989 877.253 85.829C866.401 92.6736 851.224 99.9341 831.999 109.124C791.169 128.653 729.466 158.168 649.447 212.879C623.308 230.473 614.48 253.791 623.21 282.203C631.958 310.656 657.744 343.521 699.87 379.893C736.884 411.852 785.549 445.44 840.608 477.029C947.449 538.324 1058.8 581.021 1111.41 580.859C1142 580.865 1169.41 575.857 1195.21 565.541C1218.35 556.294 1239.7 542.934 1260.52 524.693C1300.11 489.996 1331.49 442.846 1361.84 397.244C1393.87 349.217 1404.89 298.191 1390.58 264.084C1386.52 254.386 1380.53 246.415 1372.84 240.338Z" fill="url(#paint22_linear_752_8281)"/>
<path d="M740.088 385.421C734.578 381.066 729.293 376.74 724.234 372.442C685.508 339.513 661.716 309.697 653.512 283.826C645.337 258.048 653.038 236.849 676.396 220.815C746.181 171.159 801.605 142.948 842.071 122.351C860.434 113.005 874.94 105.618 885.665 98.7731C902.999 87.7351 937.626 84.8817 978.294 91.143C1020.96 97.7103 1061.89 113.023 1090.6 133.152C1157.78 181.457 1262.58 216.177 1316.63 227.729C1336.7 232.026 1351.24 243.948 1358.67 262.201C1371.61 293.969 1361.49 340.963 1332.27 384.832C1306.08 424.34 1276.39 469.127 1239.44 501.404C1220.29 518.137 1200.62 530.423 1179.32 538.977C1155.58 548.508 1130.39 553.198 1102.31 553.331C1077.97 553.614 1040.71 544.545 994.57 527.119C950.241 510.374 900.05 486.594 853.242 460.157C810.353 435.932 771.638 410.345 740.088 385.421ZM1340.9 240.044C1334.11 234.678 1325.89 230.912 1316.39 228.879C1262.24 217.309 1157.24 182.52 1089.93 134.111C1061.37 114.08 1020.61 98.8424 978.121 92.304C937.724 86.0889 903.398 88.8788 886.301 99.7666C875.53 106.64 861.006 114.033 842.609 123.396C802.172 143.976 746.794 172.169 677.073 221.78C654.183 237.491 646.632 258.25 654.634 283.474C662.769 309.131 686.445 338.768 724.997 371.553C758.959 400.433 803.507 430.717 853.82 459.135C900.576 485.543 950.71 509.294 994.98 526.021C1040.99 543.402 1078.1 552.441 1102.3 552.158C1130.24 552.031 1155.29 547.364 1178.89 537.891C1200.06 529.389 1219.62 517.167 1238.67 500.526C1275.5 468.353 1305.15 423.641 1331.3 384.191C1360.3 340.633 1370.38 294.067 1357.59 262.651C1353.82 253.392 1348.19 245.797 1340.9 240.044Z" fill="url(#paint23_linear_752_8281)"/>
<path d="M759.93 372.598C756.305 369.733 752.79 366.885 749.39 364.043C714.243 334.707 692.573 308.143 684.982 285.079C677.558 262.518 683.97 243.913 704.05 229.785C764.163 184.749 816.048 156.579 853.935 136.005C870.263 127.139 884.359 119.486 894.754 112.774C911.724 101.846 944.061 98.3972 981.272 103.538C1020.07 108.898 1057.97 122.634 1085.24 141.209C1112.01 160.178 1148.27 179.216 1190.11 196.267C1223.69 209.956 1259.53 221.802 1288.43 228.78C1306.23 233.089 1319.09 244.167 1325.62 260.82C1337.01 289.867 1327.83 332.362 1301.66 371.726C1274.33 413.151 1249.13 449.679 1217.54 477.173C1200.16 492.3 1182.31 503.448 1162.97 511.246C1141.44 519.927 1118.62 524.271 1093.21 524.537C1070.88 525.022 1036.87 517.12 994.859 501.681C954.67 486.917 909.076 465.788 866.476 442.188C825.853 419.69 789.307 395.806 759.93 372.598ZM1308.95 239.702C1303.12 235.099 1296.16 231.778 1288.17 229.843C1259.22 222.859 1223.33 210.99 1189.69 197.283C1147.77 180.198 1111.44 161.119 1084.61 142.11C1057.48 123.627 1019.75 109.967 981.116 104.624C944.159 99.5178 912.094 102.908 895.344 113.692C884.919 120.427 870.801 128.092 854.456 136.964C816.597 157.521 764.747 185.673 704.692 230.663C685.04 244.497 678.761 262.685 686.017 284.738C693.545 307.6 715.099 334.002 750.084 363.206C780.999 389.007 821.425 415.987 866.996 441.234C909.544 464.806 955.086 485.912 995.223 500.658C1037.11 516.046 1070.98 523.924 1093.18 523.445C1118.47 523.179 1141.15 518.859 1162.55 510.235C1181.78 502.484 1199.53 491.399 1216.81 476.353C1248.29 448.951 1273.45 412.487 1300.73 371.131C1326.71 332.056 1335.85 289.942 1324.59 261.224C1321.13 252.381 1315.84 245.149 1308.95 239.702Z" fill="url(#paint24_linear_752_8281)"/>
<path d="M779.814 359.919C778.01 358.493 776.24 357.072 774.5 355.657C742.932 329.919 723.384 306.601 716.406 286.35C709.739 267.006 714.885 250.995 731.698 238.761C782.861 197.682 831.936 169.206 867.771 148.412C881.982 140.17 894.251 133.048 903.837 126.781C920.697 115.801 950.004 111.85 984.238 115.939C1019.19 120.115 1054.05 132.268 1079.87 149.273C1130.07 184.218 1208.53 215.53 1260.2 229.831C1275.75 234.152 1286.94 244.399 1292.57 259.457C1302.39 285.778 1294.14 323.773 1271.03 358.614C1247.82 394.004 1224.58 427.852 1195.63 452.937C1180.02 466.464 1163.98 476.463 1146.6 483.515C1127.29 491.348 1106.84 495.345 1084.1 495.749C1063.78 496.436 1033.01 489.696 995.125 476.261C959.064 463.467 918.06 444.995 879.675 424.236C841.331 403.511 806.965 381.366 779.814 359.919ZM1276.98 239.304C1272.14 235.475 1266.42 232.615 1259.93 230.813C1208.19 216.489 1129.58 185.125 1079.31 150.116C1053.62 133.204 1018.92 121.109 984.122 116.95C950.12 112.884 921.061 116.777 904.392 127.63C894.789 133.909 882.503 141.036 868.28 149.284C832.473 170.061 783.439 198.514 732.311 239.558C715.879 251.515 710.855 267.139 717.359 286.015C724.274 306.087 743.713 329.249 775.136 354.871C803.01 377.583 839.313 401.27 880.15 423.352C918.494 444.082 959.446 462.537 995.46 475.313C1033.22 488.708 1063.86 495.426 1084.07 494.744C1106.69 494.345 1127.02 490.366 1146.21 482.585C1163.49 475.579 1179.43 465.633 1194.96 452.18C1223.82 427.176 1247.01 393.397 1270.18 358.065C1293.12 323.49 1301.33 285.842 1291.61 259.821C1288.46 251.359 1283.51 244.456 1276.98 239.304Z" fill="url(#paint25_linear_752_8281)"/>
<path d="M799.761 347.437C799.691 347.385 799.628 347.333 799.558 347.281C771.563 325.136 754.143 305.07 747.771 287.632C741.874 271.488 745.771 258.065 759.346 247.731C802.281 209.69 849.917 180.163 884.7 158.607C895.593 151.855 904.999 146.027 912.92 140.788C929.439 129.906 956.514 125.372 987.204 128.346C1018.33 131.367 1050.16 141.931 1074.5 157.342C1096.36 172.227 1124.16 187.216 1157.13 201.904C1181.94 212.954 1209.22 223.518 1231.98 230.894C1245.28 235.232 1254.8 244.653 1259.52 258.145C1267.77 281.741 1260.44 315.219 1240.4 345.52C1221.09 375.18 1200.02 406.041 1173.7 428.718C1159.86 440.64 1145.64 449.5 1130.22 455.796C1113.12 462.773 1095.06 466.43 1074.98 466.967C1038.67 468.734 965.459 444.354 892.823 406.301C856.78 387.413 824.605 367.064 799.761 347.437ZM1245.01 238.813C1241.16 235.769 1236.71 233.407 1231.71 231.778C1208.92 224.39 1181.6 213.809 1156.77 202.753C1123.74 188.042 1095.89 173.024 1074 158.116C1049.79 142.792 1018.12 132.274 987.123 129.27C956.642 126.313 929.786 130.795 913.441 141.562C905.508 146.806 896.096 152.64 885.197 159.398C850.443 180.943 802.842 210.441 759.942 248.453C746.702 258.532 742.915 271.598 748.65 287.315C754.958 304.591 772.28 324.518 800.136 346.554C800.2 346.606 800.269 346.658 800.333 346.71C825.131 366.296 857.26 386.616 893.262 405.475C965.759 443.458 1038.78 467.793 1074.95 466.037C1094.92 465.5 1112.89 461.867 1129.88 454.93C1145.21 448.668 1159.35 439.866 1173.11 428.007C1199.34 405.412 1220.35 374.614 1239.63 345.006C1259.51 314.941 1266.8 281.775 1258.65 258.452C1255.81 250.313 1251.19 243.688 1245.01 238.813Z" fill="url(#paint26_linear_752_8281)"/>
<path d="M819.673 335.158C798.084 318.101 784.428 302.575 779.062 288.949C773.957 275.999 776.622 265.158 786.977 256.725C822.107 220.503 870.853 188.469 906.439 165.076C912.024 161.408 917.297 157.937 922.009 154.789C938.453 143.832 962.661 138.841 990.182 140.742C1017.93 142.659 1045.97 151.416 1069.14 165.4C1084.67 175.675 1128.85 202.713 1203.78 231.951C1214.86 236.306 1222.73 244.924 1226.52 256.886C1233.14 277.744 1226.73 306.682 1209.78 332.408C1194.14 356.662 1175.48 384.237 1151.8 404.487C1126.79 425.888 1098.68 436.908 1065.88 438.185C1049.54 439.282 1025.24 434.875 995.593 425.449C967.361 416.467 936.36 403.65 905.942 388.384C874.53 372.615 846.384 355.518 824.547 338.941C822.888 337.67 821.257 336.411 819.673 335.158ZM1213.01 238.184C1210.18 235.948 1206.99 234.123 1203.47 232.743C1191.48 228.064 1167.34 218.302 1140.3 205.485C1111.92 192.027 1087.83 178.783 1068.69 166.122C1045.65 152.219 1017.74 143.503 990.124 141.597C962.788 139.708 938.771 144.646 922.483 155.499C917.771 158.653 912.498 162.119 906.908 165.792C871.344 189.162 822.639 221.173 787.567 257.337L787.532 257.372C777.478 265.545 774.894 276.069 779.848 288.643C785.474 302.916 801.108 320.076 825.067 338.265C846.864 354.813 874.964 371.882 906.329 387.627C936.706 402.876 967.662 415.676 995.853 424.64C1025.39 434.038 1049.59 438.428 1065.84 437.336C1098.45 436.071 1126.39 425.114 1151.25 403.841C1174.84 383.665 1193.47 356.154 1209.07 331.946V331.94C1225.88 306.422 1232.26 277.761 1225.71 257.141C1223.21 249.239 1218.88 242.822 1213.01 238.184Z" fill="url(#paint27_linear_752_8281)"/>
<path d="M840.065 323.611C824.732 311.499 814.498 300.12 810.214 290.353C805.912 280.545 807.392 272.257 814.614 265.718C841.464 229.479 904.271 186.956 931.098 168.796C964.655 146.16 1019.21 148.077 1063.77 173.463C1097.95 195.221 1141.67 216.506 1167.8 229.219C1170.57 230.571 1173.17 231.836 1175.57 233.014C1184.47 237.398 1190.69 245.259 1193.55 255.743C1198.5 273.845 1192.99 298.197 1179.17 319.302C1165.4 340.957 1149.89 363.327 1129.9 380.257C1108.57 398.324 1084.65 407.855 1056.79 409.397C1028.57 411.962 974.478 396.701 919.008 370.519C892.337 357.927 868.291 344.151 849.466 330.67C846.147 328.29 843.014 325.933 840.065 323.611ZM1180.98 237.317C1179.21 235.925 1177.3 234.718 1175.23 233.696C1172.83 232.523 1170.23 231.252 1167.45 229.907C1141.32 217.182 1097.57 195.886 1063.37 174.116C1019.07 148.88 964.852 146.951 931.526 169.426C904.728 187.568 841.961 230.057 815.209 266.197L815.186 266.226L815.157 266.249C808.185 272.545 806.756 280.551 810.919 290.035C815.972 301.553 829.455 315.386 849.911 330.034C868.696 343.487 892.702 357.239 919.332 369.814C974.686 395.945 1028.62 411.176 1056.72 408.623C1118.61 405.204 1150.82 362.415 1178.52 318.881V318.875C1192.22 297.948 1197.69 273.833 1192.8 255.933C1190.67 248.113 1186.63 241.782 1180.98 237.317Z" fill="url(#paint28_linear_752_8281)"/>
<path d="M860.417 312.677C851.045 305.272 844.413 298.226 841.158 291.953C837.654 285.201 838.018 279.401 842.233 274.723C846.83 262.72 860.37 246.761 882.486 227.278C898.593 213.087 919.627 196.873 940.181 182.797C973.195 160.259 1017.39 159.779 1058.4 181.526C1072.21 189.855 1086.79 198.271 1100.89 206.41C1119.13 216.933 1136.34 226.88 1147.36 234.077C1156.61 240.165 1161.67 251.243 1161.62 265.256C1161.57 278.535 1156.8 293.455 1148.54 306.191C1130.12 335.724 1117.19 348.339 1107.99 356.021C1090.35 370.75 1070.62 378.79 1047.68 380.604C1023.36 383.584 979.046 372.916 932.029 352.757C901.999 339.882 876.947 325.737 860.417 312.677ZM1148.91 236.041C1148.29 235.55 1147.65 235.088 1146.99 234.654C1135.99 227.469 1118.78 217.528 1100.55 207.004C1086.45 198.86 1071.87 190.445 1058.07 182.121C1017.31 160.507 973.38 160.969 940.58 183.363C920.049 197.422 899.044 213.618 882.954 227.792C860.885 247.235 847.396 263.125 842.863 275.029L842.84 275.092L842.8 275.139C838.753 279.592 838.412 285.143 841.782 291.641C850.703 308.836 885.394 332.015 932.318 352.133C979.231 372.246 1023.41 382.897 1047.62 379.928C1070.44 378.126 1090.04 370.137 1107.56 355.501C1125.01 340.928 1138.33 321.301 1147.98 305.833L1147.98 305.827C1156.17 293.2 1160.9 278.414 1160.95 265.262C1160.99 252.491 1156.74 242.221 1148.91 236.041Z" fill="url(#paint29_linear_752_8281)"/>
<path d="M880.734 302.991C876.86 299.929 873.865 296.995 871.899 294.263C869.026 290.272 868.332 286.754 869.847 283.808C867.106 272.863 882.081 254.888 895.153 241.712C909.891 226.856 930.127 210.071 949.276 196.804C965.771 185.408 982.064 179.239 999.091 177.951C1016.48 176.64 1034.13 180.446 1053.05 189.589C1080.56 204.873 1106.52 222.761 1119.18 235.162C1125.32 241.233 1128.43 250.769 1127.93 262.015C1127.46 272.539 1123.81 283.86 1117.93 293.085C1102.95 317.875 1080.39 346.958 1038.59 351.821C1018.34 355.2 983.509 349.06 945.419 335.388C917.58 325.396 893.997 313.468 880.734 302.991ZM1107.17 225.58C1093.26 214.594 1073.45 201.621 1052.76 190.121C1033.95 181.029 1016.41 177.246 999.132 178.551C982.214 179.828 966.02 185.962 949.617 197.295C913.828 222.085 865.609 265.308 870.459 283.762L870.488 283.878L870.431 283.982C868.968 286.731 869.627 290.07 872.385 293.905C881.011 305.884 909.758 321.942 945.616 334.811C983.613 348.448 1018.33 354.576 1038.49 351.215C1080.04 346.38 1102.49 317.436 1117.4 292.767L1117.41 292.761C1123.24 283.623 1126.84 272.406 1127.31 261.986C1127.8 250.914 1124.75 241.539 1118.74 235.59C1115.63 232.546 1111.72 229.167 1107.17 225.58Z" fill="url(#paint30_linear_752_8281)"/>
<path d="M900.923 296.654C899.252 295.332 898.119 294.09 897.599 292.963C894.488 291.161 892.835 288.458 892.667 284.929C892.187 274.601 904.369 259.399 914.672 248.471C926.935 235.463 943.263 221.381 958.359 210.805C975.444 198.848 988.915 192.541 1002.05 190.352C1016.06 188.018 1030.56 190.335 1047.67 197.647C1066.59 206.785 1083.58 221.941 1090.97 236.266C1097.55 249.152 1094.28 268.606 1087.31 279.973C1073.61 304.001 1054.15 318.488 1029.49 323.028C1019.88 325.269 1007.38 325.65 992.355 324.154C979.341 322.86 964.794 320.169 950.282 316.362C927.56 310.407 908.596 302.713 900.923 296.654ZM898.004 292.594L898.038 292.675C898.518 293.772 899.617 294.985 901.247 296.273C918.13 309.616 992.182 331.195 1029.38 322.519C1053.9 318.008 1073.23 303.603 1086.85 279.713L1086.86 279.707C1093.75 268.467 1097 249.239 1090.5 236.514C1083.16 222.288 1066.26 207.224 1047.45 198.138C1030.45 190.872 1016.04 188.561 1002.13 190.883C989.083 193.061 975.669 199.339 958.66 211.244C943.592 221.803 927.294 235.856 915.054 248.834C904.82 259.693 892.719 274.763 893.187 284.912C893.344 288.279 894.939 290.855 897.928 292.559L898.004 292.594Z" fill="url(#paint31_linear_752_8281)"/>
<path d="M915.713 298.572C914.042 297.249 912.938 295.568 912.412 293.541C911.093 288.446 912.839 278.506 928.618 260.075C939.192 247.72 953.71 234.539 967.442 224.8C983.677 213.294 994.304 206.074 1005.01 202.753C1016.08 199.322 1026.88 200.177 1042.3 205.705C1050.8 208.754 1056.73 214.317 1059.94 222.247C1066.88 239.396 1059.01 262.131 1056.69 266.844C1052.35 275.641 1044.49 283.017 1033.32 288.776C1023.7 293.732 1011.62 297.503 997.397 299.993C971.692 304.492 943.355 303.944 925.403 301.928C921.182 301.46 917.945 300.334 915.713 298.572ZM1051.05 210.978C1048.5 208.968 1045.54 207.351 1042.15 206.138C1026.84 200.645 1016.12 199.79 1005.14 203.192C994.506 206.49 983.903 213.699 967.702 225.176C942.662 242.92 908.717 277.443 912.845 293.437C914.019 297.977 918.263 300.692 925.455 301.5C943.378 303.516 971.668 304.065 997.328 299.571C1011.5 297.087 1023.55 293.327 1033.12 288.395C1044.21 282.682 1052 275.375 1056.3 266.665C1058.6 261.992 1066.41 239.431 1059.53 222.432C1057.65 217.771 1054.81 213.947 1051.05 210.978Z" fill="url(#paint32_linear_752_8281)"/>
</g>
</g>
</g>
<defs>
<linearGradient id="paint0_linear_752_8281" x1="1265.87" y1="25.1221" x2="1265.87" y2="219.285" gradientUnits="userSpaceOnUse">
<stop stop-color="#E9CBA3"/>
<stop offset="0.1507" stop-color="#EEDEBC"/>
<stop offset="0.3859" stop-color="#C9A885"/>
<stop offset="0.6326" stop-color="#9A7A5F"/>
<stop offset="0.8567" stop-color="#C9A885"/>
<stop offset="0.9987" stop-color="#C9A885"/>
</linearGradient>
<linearGradient id="paint1_linear_752_8281" x1="1261.99" y1="30.1221" x2="1261.99" y2="209.649" gradientUnits="userSpaceOnUse">
<stop stop-color="#E9CBA3"/>
<stop offset="0.1507" stop-color="#EEDEBC"/>
<stop offset="0.3859" stop-color="#C9A885"/>
<stop offset="0.6326" stop-color="#9A7A5F"/>
<stop offset="0.8567" stop-color="#C9A885"/>
<stop offset="0.9987" stop-color="#C9A885"/>
</linearGradient>
<linearGradient id="paint2_linear_752_8281" x1="1258.11" y1="35.0166" x2="1258.11" y2="200.031" gradientUnits="userSpaceOnUse">
<stop stop-color="#E9CBA3"/>
<stop offset="0.1507" stop-color="#EEDEBC"/>
<stop offset="0.3859" stop-color="#C9A885"/>
<stop offset="0.6326" stop-color="#9A7A5F"/>
<stop offset="0.8567" stop-color="#C9A885"/>
<stop offset="0.9987" stop-color="#C9A885"/>
</linearGradient>
<linearGradient id="paint3_linear_752_8281" x1="1254.24" y1="39.8603" x2="1254.24" y2="190.398" gradientUnits="userSpaceOnUse">
<stop stop-color="#E9CBA3"/>
<stop offset="0.1507" stop-color="#EEDEBC"/>
<stop offset="0.3859" stop-color="#C9A885"/>
<stop offset="0.6326" stop-color="#9A7A5F"/>
<stop offset="0.8567" stop-color="#C9A885"/>
<stop offset="0.9987" stop-color="#C9A885"/>
</linearGradient>
<linearGradient id="paint4_linear_752_8281" x1="1250.38" y1="44.6975" x2="1250.38" y2="180.876" gradientUnits="userSpaceOnUse">
<stop stop-color="#E9CBA3"/>
<stop offset="0.1507" stop-color="#EEDEBC"/>
<stop offset="0.3859" stop-color="#C9A885"/>
<stop offset="0.6326" stop-color="#9A7A5F"/>
<stop offset="0.8567" stop-color="#C9A885"/>
<stop offset="0.9987" stop-color="#C9A885"/>
</linearGradient>
<linearGradient id="paint5_linear_752_8281" x1="1246.51" y1="49.4918" x2="1246.51" y2="171.341" gradientUnits="userSpaceOnUse">
<stop stop-color="#E9CBA3"/>
<stop offset="0.1507" stop-color="#EEDEBC"/>
<stop offset="0.3859" stop-color="#C9A885"/>
<stop offset="0.6326" stop-color="#9A7A5F"/>
<stop offset="0.8567" stop-color="#C9A885"/>
<stop offset="0.9987" stop-color="#C9A885"/>
</linearGradient>
<linearGradient id="paint6_linear_752_8281" x1="1242.65" y1="54.2983" x2="1242.65" y2="161.899" gradientUnits="userSpaceOnUse">
<stop stop-color="#E9CBA3"/>
<stop offset="0.1507" stop-color="#EEDEBC"/>
<stop offset="0.3859" stop-color="#C9A885"/>
<stop offset="0.6326" stop-color="#9A7A5F"/>
<stop offset="0.8567" stop-color="#C9A885"/>
<stop offset="0.9987" stop-color="#C9A885"/>
</linearGradient>
<linearGradient id="paint7_linear_752_8281" x1="1238.79" y1="59.0867" x2="1238.79" y2="152.566" gradientUnits="userSpaceOnUse">
<stop stop-color="#E9CBA3"/>
<stop offset="0.1507" stop-color="#EEDEBC"/>
<stop offset="0.3859" stop-color="#C9A885"/>
<stop offset="0.6326" stop-color="#9A7A5F"/>
<stop offset="0.8567" stop-color="#C9A885"/>
<stop offset="0.9987" stop-color="#C9A885"/>
</linearGradient>
<linearGradient id="paint8_linear_752_8281" x1="1234.96" y1="63.8708" x2="1234.96" y2="143.447" gradientUnits="userSpaceOnUse">
<stop stop-color="#E9CBA3"/>
<stop offset="0.1507" stop-color="#EEDEBC"/>
<stop offset="0.3859" stop-color="#C9A885"/>
<stop offset="0.6326" stop-color="#9A7A5F"/>
<stop offset="0.8567" stop-color="#C9A885"/>
<stop offset="0.9987" stop-color="#C9A885"/>
</linearGradient>
<linearGradient id="paint9_linear_752_8281" x1="1231.12" y1="68.6684" x2="1231.12" y2="134.831" gradientUnits="userSpaceOnUse">
<stop stop-color="#E9CBA3"/>
<stop offset="0.1507" stop-color="#EEDEBC"/>
<stop offset="0.3859" stop-color="#C9A885"/>
<stop offset="0.6326" stop-color="#9A7A5F"/>
<stop offset="0.8567" stop-color="#C9A885"/>
<stop offset="0.9987" stop-color="#C9A885"/>
</linearGradient>
<linearGradient id="paint10_linear_752_8281" x1="1227.96" y1="73.4373" x2="1227.96" y2="127.183" gradientUnits="userSpaceOnUse">
<stop stop-color="#E9CBA3"/>
<stop offset="0.1507" stop-color="#EEDEBC"/>
<stop offset="0.3859" stop-color="#C9A885"/>
<stop offset="0.6326" stop-color="#9A7A5F"/>
<stop offset="0.8567" stop-color="#C9A885"/>
<stop offset="0.9987" stop-color="#C9A885"/>
</linearGradient>
<linearGradient id="paint11_linear_752_8281" x1="1227.14" y1="78.2176" x2="1227.14" y2="122.548" gradientUnits="userSpaceOnUse">
<stop stop-color="#E9CBA3"/>
<stop offset="0.1507" stop-color="#EEDEBC"/>
<stop offset="0.3859" stop-color="#C9A885"/>
<stop offset="0.6326" stop-color="#9A7A5F"/>
<stop offset="0.8567" stop-color="#C9A885"/>
<stop offset="0.9987" stop-color="#C9A885"/>
</linearGradient>
<linearGradient id="paint12_linear_752_8281" x1="1278.43" y1="-37.9982" x2="1278.43" y2="56.8869" gradientUnits="userSpaceOnUse">
<stop stop-color="#E9CBA3"/>
<stop offset="0.1507" stop-color="#EEDEBC"/>
<stop offset="0.3859" stop-color="#C9A885"/>
<stop offset="0.6326" stop-color="#9A7A5F"/>
<stop offset="0.8567" stop-color="#C9A885"/>
<stop offset="0.9987" stop-color="#C9A885"/>
</linearGradient>
<linearGradient id="paint13_linear_752_8281" x1="1278.85" y1="-37.1096" x2="1278.85" y2="50.4823" gradientUnits="userSpaceOnUse">
<stop stop-color="#E9CBA3"/>
<stop offset="0.1507" stop-color="#EEDEBC"/>
<stop offset="0.3859" stop-color="#C9A885"/>
<stop offset="0.6326" stop-color="#9A7A5F"/>
<stop offset="0.8567" stop-color="#C9A885"/>
<stop offset="0.9987" stop-color="#C9A885"/>
</linearGradient>
<linearGradient id="paint14_linear_752_8281" x1="1279.27" y1="-36.243" x2="1279.27" y2="44.1809" gradientUnits="userSpaceOnUse">
<stop stop-color="#E9CBA3"/>
<stop offset="0.1507" stop-color="#EEDEBC"/>
<stop offset="0.3859" stop-color="#C9A885"/>
<stop offset="0.6326" stop-color="#9A7A5F"/>
<stop offset="0.8567" stop-color="#C9A885"/>
<stop offset="0.9987" stop-color="#C9A885"/>
</linearGradient>
<linearGradient id="paint15_linear_752_8281" x1="1279.83" y1="-35.4114" x2="1279.83" y2="37.9907" gradientUnits="userSpaceOnUse">
<stop stop-color="#E9CBA3"/>
<stop offset="0.1507" stop-color="#EEDEBC"/>
<stop offset="0.3859" stop-color="#C9A885"/>
<stop offset="0.6326" stop-color="#9A7A5F"/>
<stop offset="0.8567" stop-color="#C9A885"/>
<stop offset="0.9987" stop-color="#C9A885"/>
</linearGradient>
<linearGradient id="paint16_linear_752_8281" x1="1280.51" y1="-34.5926" x2="1280.51" y2="31.9438" gradientUnits="userSpaceOnUse">
<stop stop-color="#E9CBA3"/>
<stop offset="0.1507" stop-color="#EEDEBC"/>
<stop offset="0.3859" stop-color="#C9A885"/>
<stop offset="0.6326" stop-color="#9A7A5F"/>
<stop offset="0.8567" stop-color="#C9A885"/>
<stop offset="0.9987" stop-color="#C9A885"/>
</linearGradient>
<linearGradient id="paint17_linear_752_8281" x1="1281.35" y1="-33.7986" x2="1281.35" y2="26.0836" gradientUnits="userSpaceOnUse">
<stop stop-color="#E9CBA3"/>
<stop offset="0.1507" stop-color="#EEDEBC"/>
<stop offset="0.3859" stop-color="#C9A885"/>
<stop offset="0.6326" stop-color="#9A7A5F"/>
<stop offset="0.8567" stop-color="#C9A885"/>
<stop offset="0.9987" stop-color="#C9A885"/>
</linearGradient>
<linearGradient id="paint18_linear_752_8281" x1="1282.37" y1="-33.0543" x2="1282.37" y2="20.5171" gradientUnits="userSpaceOnUse">
<stop stop-color="#E9CBA3"/>
<stop offset="0.1507" stop-color="#EEDEBC"/>
<stop offset="0.3859" stop-color="#C9A885"/>
<stop offset="0.6326" stop-color="#9A7A5F"/>
<stop offset="0.8567" stop-color="#C9A885"/>
<stop offset="0.9987" stop-color="#C9A885"/>
</linearGradient>
<linearGradient id="paint19_linear_752_8281" x1="1283.46" y1="-32.3411" x2="1283.46" y2="15.3408" gradientUnits="userSpaceOnUse">
<stop stop-color="#E9CBA3"/>
<stop offset="0.1507" stop-color="#EEDEBC"/>
<stop offset="0.3859" stop-color="#C9A885"/>
<stop offset="0.6326" stop-color="#9A7A5F"/>
<stop offset="0.8567" stop-color="#C9A885"/>
<stop offset="0.9987" stop-color="#C9A885"/>
</linearGradient>
<linearGradient id="paint20_linear_752_8281" x1="1284.58" y1="-31.6535" x2="1284.58" y2="10.6485" gradientUnits="userSpaceOnUse">
<stop stop-color="#E9CBA3"/>
<stop offset="0.1507" stop-color="#EEDEBC"/>
<stop offset="0.3859" stop-color="#C9A885"/>
<stop offset="0.6326" stop-color="#9A7A5F"/>
<stop offset="0.8567" stop-color="#C9A885"/>
<stop offset="0.9987" stop-color="#C9A885"/>
</linearGradient>
<linearGradient id="paint21_linear_752_8281" x1="1009.39" y1="61.0703" x2="1009.39" y2="610.904" gradientUnits="userSpaceOnUse">
<stop stop-color="#E9CBA3"/>
<stop offset="0.1507" stop-color="#EEDEBC"/>
<stop offset="0.3859" stop-color="#C9A885"/>
<stop offset="0.6326" stop-color="#9A7A5F"/>
<stop offset="0.8567" stop-color="#C9A885"/>
<stop offset="0.9987" stop-color="#C9A885"/>
</linearGradient>
<linearGradient id="paint22_linear_752_8281" x1="1008.34" y1="74.5561" x2="1008.34" y2="582.115" gradientUnits="userSpaceOnUse">
<stop stop-color="#E9CBA3"/>
<stop offset="0.1507" stop-color="#EEDEBC"/>
<stop offset="0.3859" stop-color="#C9A885"/>
<stop offset="0.6326" stop-color="#9A7A5F"/>
<stop offset="0.8567" stop-color="#C9A885"/>
<stop offset="0.9987" stop-color="#C9A885"/>
</linearGradient>
<linearGradient id="paint23_linear_752_8281" x1="1007.28" y1="87.8809" x2="1007.28" y2="553.334" gradientUnits="userSpaceOnUse">
<stop stop-color="#E9CBA3"/>
<stop offset="0.1507" stop-color="#EEDEBC"/>
<stop offset="0.3859" stop-color="#C9A885"/>
<stop offset="0.6326" stop-color="#9A7A5F"/>
<stop offset="0.8567" stop-color="#C9A885"/>
<stop offset="0.9987" stop-color="#C9A885"/>
</linearGradient>
<linearGradient id="paint24_linear_752_8281" x1="1006.21" y1="101.205" x2="1006.21" y2="524.561" gradientUnits="userSpaceOnUse">
<stop stop-color="#E9CBA3"/>
<stop offset="0.1507" stop-color="#EEDEBC"/>
<stop offset="0.3859" stop-color="#C9A885"/>
<stop offset="0.6326" stop-color="#9A7A5F"/>
<stop offset="0.8567" stop-color="#C9A885"/>
<stop offset="0.9987" stop-color="#C9A885"/>
</linearGradient>
<linearGradient id="paint25_linear_752_8281" x1="1005.11" y1="114.365" x2="1005.11" y2="495.801" gradientUnits="userSpaceOnUse">
<stop stop-color="#E9CBA3"/>
<stop offset="0.1507" stop-color="#EEDEBC"/>
<stop offset="0.3859" stop-color="#C9A885"/>
<stop offset="0.6326" stop-color="#9A7A5F"/>
<stop offset="0.8567" stop-color="#C9A885"/>
<stop offset="0.9987" stop-color="#C9A885"/>
</linearGradient>
<linearGradient id="paint26_linear_752_8281" x1="1003.99" y1="127.45" x2="1003.99" y2="467.057" gradientUnits="userSpaceOnUse">
<stop stop-color="#E9CBA3"/>
<stop offset="0.1507" stop-color="#EEDEBC"/>
<stop offset="0.3859" stop-color="#C9A885"/>
<stop offset="0.6326" stop-color="#9A7A5F"/>
<stop offset="0.8567" stop-color="#C9A885"/>
<stop offset="0.9987" stop-color="#C9A885"/>
</linearGradient>
<linearGradient id="paint27_linear_752_8281" x1="1002.82" y1="140.348" x2="1002.82" y2="438.344" gradientUnits="userSpaceOnUse">
<stop stop-color="#E9CBA3"/>
<stop offset="0.1507" stop-color="#EEDEBC"/>
<stop offset="0.3859" stop-color="#C9A885"/>
<stop offset="0.6326" stop-color="#9A7A5F"/>
<stop offset="0.8567" stop-color="#C9A885"/>
<stop offset="0.9987" stop-color="#C9A885"/>
</linearGradient>
<linearGradient id="paint28_linear_752_8281" x1="1001.57" y1="153.036" x2="1001.57" y2="409.672" gradientUnits="userSpaceOnUse">
<stop stop-color="#E9CBA3"/>
<stop offset="0.1507" stop-color="#EEDEBC"/>
<stop offset="0.3859" stop-color="#C9A885"/>
<stop offset="0.6326" stop-color="#9A7A5F"/>
<stop offset="0.8567" stop-color="#C9A885"/>
<stop offset="0.9987" stop-color="#C9A885"/>
</linearGradient>
<linearGradient id="paint29_linear_752_8281" x1="1000.2" y1="165.548" x2="1000.2" y2="381.099" gradientUnits="userSpaceOnUse">
<stop stop-color="#E9CBA3"/>
<stop offset="0.1507" stop-color="#EEDEBC"/>
<stop offset="0.3859" stop-color="#C9A885"/>
<stop offset="0.6326" stop-color="#9A7A5F"/>
<stop offset="0.8567" stop-color="#C9A885"/>
<stop offset="0.9987" stop-color="#C9A885"/>
</linearGradient>
<linearGradient id="paint30_linear_752_8281" x1="998.518" y1="177.696" x2="998.518" y2="352.728" gradientUnits="userSpaceOnUse">
<stop stop-color="#E9CBA3"/>
<stop offset="0.1507" stop-color="#EEDEBC"/>
<stop offset="0.3859" stop-color="#C9A885"/>
<stop offset="0.6326" stop-color="#9A7A5F"/>
<stop offset="0.8567" stop-color="#C9A885"/>
<stop offset="0.9987" stop-color="#C9A885"/>
</linearGradient>
<linearGradient id="paint31_linear_752_8281" x1="993.594" y1="189.479" x2="993.594" y2="325.051" gradientUnits="userSpaceOnUse">
<stop stop-color="#E9CBA3"/>
<stop offset="0.1507" stop-color="#EEDEBC"/>
<stop offset="0.3859" stop-color="#C9A885"/>
<stop offset="0.6326" stop-color="#9A7A5F"/>
<stop offset="0.8567" stop-color="#C9A885"/>
<stop offset="0.9987" stop-color="#C9A885"/>
</linearGradient>
<linearGradient id="paint32_linear_752_8281" x1="987.402" y1="200.725" x2="987.402" y2="303.439" gradientUnits="userSpaceOnUse">
<stop stop-color="#E9CBA3"/>
<stop offset="0.1507" stop-color="#EEDEBC"/>
<stop offset="0.3859" stop-color="#C9A885"/>
<stop offset="0.6326" stop-color="#9A7A5F"/>
<stop offset="0.8567" stop-color="#C9A885"/>
<stop offset="0.9987" stop-color="#C9A885"/>
</linearGradient>
<clipPath id="clip0_752_8281">
<rect width="1240" height="550" rx="8" fill="white"/>
</clipPath>
<clipPath id="clip1_752_8281">
<rect width="1390" height="784" fill="white" transform="translate(400 -52)"/>
</clipPath>
</defs>
</svg>
