<svg width="1600" height="500" viewBox="0 0 1600 500" fill="none" xmlns="http://www.w3.org/2000/svg">
<g clip-path="url(#clip0_752_8170)">
<rect width="1600" height="500" fill="#FAF6ED"/>
<g opacity="0.7">
<path d="M463.806 653.316C457.373 648.239 451.031 642.89 444.794 637.286C409.71 605.759 395.229 575.369 400.526 544.383C405.116 517.535 423.768 494.342 440.222 473.884C451.206 460.225 461.581 447.327 465.93 435.443C480.407 395.886 474.505 379.871 470.979 370.304C468.939 364.762 467.588 361.104 471.733 356.373C475.795 351.736 498.352 359.536 542.718 380.918C561.905 390.166 572.083 403.308 580.265 413.868C584.363 419.159 587.908 423.734 591.784 426.777C602.461 435.159 606.29 436.294 614.683 438.781C621.681 440.858 632.26 443.992 652.89 453.265C671.02 461.414 695.271 479.266 716.177 499.859C728.075 511.575 738.541 523.743 747.284 536.03C757.072 549.783 764.46 563.372 769.246 576.427C778.109 600.606 777.971 622.541 768.831 641.621C759.826 660.418 746.446 676.356 729.062 688.993C711.795 701.546 691.457 710.204 668.619 714.728C635.378 721.313 598.345 718.55 561.534 706.735C541.909 700.436 522.296 691.571 503.24 680.385C489.853 672.512 476.651 663.454 463.806 653.316ZM558.317 391.631C553.778 388.049 548.536 384.657 542.35 381.675C522.172 371.951 506.792 365.165 495.324 360.936C478.786 354.834 473.711 355.387 472.363 356.925C468.546 361.282 469.69 364.384 471.766 370.013C475.332 379.689 481.299 395.882 466.717 435.73C462.32 447.745 451.905 460.694 440.878 474.407C424.489 494.786 405.91 517.888 401.357 544.521C396.111 575.202 410.504 605.34 445.359 636.657C464.003 653.414 483.624 667.876 503.667 679.643C522.668 690.8 542.223 699.64 561.789 705.92C598.469 717.691 635.353 720.448 668.455 713.891C691.172 709.393 711.398 700.782 728.566 688.302C745.837 675.749 759.13 659.916 768.073 641.246C777.111 622.377 777.242 600.664 768.46 576.704C763.702 563.721 756.347 550.198 746.602 536.506C737.885 524.263 727.452 512.128 715.591 500.448C694.75 479.924 670.594 462.134 652.547 454.025C631.969 444.774 621.422 441.65 614.446 439.581C605.947 437.061 602.068 435.912 591.267 427.432C591.248 427.417 591.23 427.403 591.212 427.388C587.267 424.276 583.715 419.686 579.602 414.377C574.116 407.304 567.73 399.061 558.317 391.631Z" fill="url(#paint0_linear_752_8170)"/>
<path d="M476.589 643.905C471.387 639.799 466.251 635.501 461.187 631.014C429.254 602.85 415.557 575.606 419.312 547.725C422.576 523.507 438.499 502.299 452.55 483.59C462.338 470.557 471.58 458.247 475.15 446.76C487.011 410.326 481.474 394.806 478.167 385.533C476.167 379.93 474.844 376.228 478.808 371.58C481.001 368.918 488.439 369.504 500.909 373.322C512.129 376.755 526.985 382.682 543.866 390.453C561.541 398.508 571.129 410.097 578.834 419.41C582.56 423.912 585.777 427.799 589.274 430.567C600.348 439.36 603.795 440.654 614.005 444.509C620.865 447.098 630.26 450.647 646.755 458.218C663.65 465.971 686.255 482.655 705.744 501.753C716.891 512.677 726.687 523.994 734.861 535.387C744.034 548.169 750.948 560.78 755.411 572.864C763.465 594.668 763.494 614.468 755.498 631.712C747.415 649.04 735.313 663.774 719.525 675.509C703.839 687.171 685.326 695.269 664.499 699.586C634.409 705.819 600.844 703.597 567.428 693.157C549.61 687.589 531.786 679.695 514.446 669.684C501.587 662.269 488.909 653.629 476.589 643.905ZM560.051 401.228C555.435 397.584 550.037 394.137 543.531 391.173C507.823 374.733 483.252 367.42 479.405 372.089C475.737 376.395 476.928 379.737 478.902 385.271C482.247 394.639 487.838 410.316 475.897 447C472.291 458.611 463.005 470.975 453.176 484.062C439.184 502.695 423.327 523.816 420.088 547.831C416.369 575.431 429.982 602.446 461.704 630.425C478.72 645.498 496.596 658.476 514.836 669.007C532.125 678.989 549.895 686.862 567.657 692.411C600.946 702.811 634.376 705.026 664.332 698.822C685.041 694.531 703.449 686.48 719.044 674.887C734.727 663.233 746.748 648.596 754.773 631.388C762.678 614.341 762.638 594.744 754.66 573.144C748.763 557.18 735.393 531.936 705.179 502.321C685.752 483.28 663.235 466.655 646.416 458.938C629.947 451.378 620.566 447.836 613.718 445.251C603.7 441.469 599.948 440.047 588.775 431.189C585.212 428.37 581.97 424.45 578.218 419.916C573.413 414.097 567.861 407.388 560.051 401.228Z" fill="url(#paint1_linear_752_8170)"/>
<path d="M489.525 634.654C485.507 631.483 481.529 628.181 477.573 624.741C448.769 599.911 435.873 575.794 438.142 551.005C440.12 529.404 453.355 510.19 465.027 493.24C473.555 480.855 481.613 469.156 484.363 458.072C493.645 424.803 488.458 409.799 485.361 400.835C483.39 395.13 482.086 391.362 485.868 386.784C490.829 380.377 520.001 389.133 545.002 399.984C561.26 406.868 570.298 416.955 577.559 425.061C580.852 428.737 583.697 431.912 586.757 434.356C599.285 444.41 602.057 445.65 617.444 452.556C623.24 455.156 630.449 458.392 640.606 463.171C650.995 468.054 663.913 476.622 676.983 487.298C691.693 499.313 705.296 512.946 716.319 526.724C729.364 543.03 738.413 558.943 743.214 574.027C748.806 591.598 748.449 607.679 742.154 621.817C734.993 637.679 724.166 651.214 709.977 662.05C695.868 672.825 679.176 680.371 660.365 684.476C633.429 690.353 603.325 688.669 573.304 679.603C544.43 670.887 516.3 655.785 489.525 634.654ZM562.102 410.933C557.359 407.188 551.709 403.624 544.715 400.664C514.941 387.74 490.439 382.097 486.45 387.246C482.924 391.511 484.104 394.929 486.064 400.595C489.19 409.639 494.425 424.777 485.084 458.261C482.301 469.469 474.21 481.218 465.642 493.662C454.018 510.539 440.845 529.67 438.886 551.078C436.638 575.609 449.453 599.526 478.065 624.188C508.3 650.497 540.416 668.905 573.53 678.905C603.427 687.934 633.404 689.614 660.215 683.763C678.921 679.683 695.515 672.181 709.536 661.476C723.627 650.712 734.377 637.272 741.488 621.526C747.706 607.559 748.052 591.656 742.519 574.26C737.747 559.263 728.741 543.427 715.751 527.194C704.76 513.459 691.194 499.862 676.524 487.88C663.497 477.24 650.635 468.705 640.3 463.847C630.151 459.069 622.941 455.836 617.149 453.24C601.689 446.301 598.906 445.05 586.301 434.941C583.194 432.457 580.331 429.265 577.016 425.563C572.932 421.003 568.284 415.813 562.102 410.933Z" fill="url(#paint2_linear_752_8170)"/>
<path d="M502.228 625.246C499.459 623.061 496.705 620.803 493.966 618.472C468.269 596.948 456.193 575.929 457.045 554.216C457.792 535.227 467.916 518.754 477.708 502.826C484.902 491.124 491.696 480.069 493.59 469.389C500.341 439.334 495.678 425.443 492.592 416.25C490.556 410.184 489.328 406.523 492.942 401.995C497.299 396.01 520.675 399.312 546.146 409.523C561.177 415.275 569.73 423.952 576.604 430.923C579.234 433.592 581.719 436.109 584.243 438.149L585.518 439.185C600.188 451.123 601.387 452.098 634.468 468.124C643.768 472.618 655.826 480.666 667.556 490.186C681.045 501.139 693.548 513.499 703.708 525.932C715.78 540.699 724.242 555.096 728.854 568.714C734.235 584.602 734.224 599.137 728.821 611.919C722.585 626.319 713.037 638.657 700.444 648.603C687.916 658.494 673.042 665.487 656.237 669.385C632.449 674.905 605.809 673.753 579.191 666.054C552.714 658.407 526.868 644.694 502.228 625.246ZM564.707 420.85C559.738 416.93 553.694 413.144 545.898 410.163C521.12 400.232 497.612 396.755 493.492 402.413C490.101 406.661 491.285 410.188 493.248 416.032C496.17 424.734 501.058 439.298 494.268 469.524C492.356 480.32 485.525 491.426 478.298 503.186C468.553 519.041 458.477 535.434 457.737 554.241C456.892 575.725 468.892 596.566 494.414 617.944C521.44 640.945 550.029 656.912 579.384 665.4C605.889 673.065 632.413 674.211 656.084 668.72C672.787 664.843 687.57 657.894 700.021 648.068C712.527 638.196 722.006 625.944 728.195 611.653C733.528 599.035 733.535 584.66 728.21 568.936C723.623 555.394 715.201 541.074 703.183 526.368C693.052 513.975 680.586 501.648 667.13 490.72C655.443 481.229 643.429 473.218 634.176 468.745C601.026 452.683 599.82 451.705 585.092 439.719L583.817 438.683C581.26 436.618 578.761 434.087 576.12 431.403C572.863 428.105 569.227 424.421 564.707 420.85Z" fill="url(#paint3_linear_752_8170)"/>
<path d="M514.887 615.861C513.371 614.665 511.863 613.446 510.355 612.199C459.661 571.271 476.108 539.947 490.625 512.31C496.388 501.335 501.831 490.972 502.814 480.706C507.109 453.942 502.749 440.629 499.863 431.821C497.798 425.516 496.552 421.709 500.013 417.203C502.049 414.232 508.151 412.639 516.745 412.847C525.87 413.068 536.718 415.276 547.29 419.058C561.523 423.752 569.413 430.916 576.375 437.236C578.222 438.912 579.967 440.498 581.733 441.942C584.385 444.131 586.655 446.091 588.658 447.818C597.908 455.8 603.492 460.618 628.329 473.08C644.183 481.011 670.583 500.688 691.092 525.139C702.192 538.376 710.064 551.249 714.49 563.402C719.663 577.606 719.995 590.599 715.481 602.021C710.17 614.963 701.901 626.116 690.903 635.17C679.952 644.185 666.893 650.632 652.095 654.327C631.455 659.48 608.275 658.854 585.056 652.523C560.991 645.96 537.407 633.636 514.887 615.861ZM568.233 431.04C562.871 426.807 556.321 422.705 547.079 419.658C524.365 411.534 504.319 412.039 500.526 417.574C497.259 421.832 498.465 425.516 500.465 431.621C503.368 440.487 507.758 453.887 503.441 480.782C502.45 491.153 496.978 501.572 491.186 512.601C483.835 526.598 476.236 541.074 476.655 557.304C477.132 575.769 488.286 593.562 510.759 611.704C534.573 631.399 559.625 644.927 585.227 651.909C608.341 658.214 631.411 658.836 651.942 653.709C666.649 650.036 679.621 643.636 690.498 634.679C701.416 625.69 709.623 614.625 714.891 601.784C720.683 587.126 721.171 561.995 690.604 525.547C670.153 501.161 643.837 481.55 628.041 473.648C603.132 461.149 597.525 456.309 588.239 448.298C586.24 446.571 583.974 444.618 581.325 442.433C579.544 440.974 577.795 439.385 575.941 437.705C573.559 435.538 571.06 433.272 568.233 431.04Z" fill="url(#paint4_linear_752_8170)"/>
<path d="M525.094 604.639C506.563 590.013 496.738 575.489 495.073 560.289C493.561 546.463 498.785 533.837 503.838 521.626C508.049 511.452 512.027 501.844 512.038 492.018C513.987 468.669 509.907 456.021 507.204 447.654C505.051 440.978 503.75 436.945 507.084 432.407C511.207 425.999 529.771 422.995 548.427 428.588C563.213 432.41 570.921 438.825 578.375 445.029L579.223 445.734C582.801 448.741 585.639 451.465 588.382 454.098C595.737 461.153 602.68 467.818 622.195 478.04C636.424 485.466 660.11 503.128 678.484 524.354C693.97 542.245 710.647 568.525 702.152 592.129C693.398 615.104 673.647 632.304 647.957 639.319C630.46 644.097 610.738 643.992 590.917 639.014C569.249 633.57 547.906 622.635 527.473 606.508C527.229 606.315 526.988 606.126 526.748 605.933C526.187 605.497 525.637 605.068 525.094 604.639ZM573.486 441.789C567.264 436.876 560.015 432.188 548.27 429.152C528.329 423.174 511.124 427.214 507.568 432.737C504.402 437.05 505.667 440.974 507.765 447.472C510.479 455.887 514.584 468.6 512.624 492.044C512.614 501.96 508.614 511.622 504.381 521.848C499.357 533.99 494.159 546.543 495.656 560.223C497.35 575.704 507.637 590.497 527.108 605.464C527.349 605.657 527.593 605.849 527.833 606.039C548.208 622.119 569.471 633.017 591.059 638.439C610.782 643.396 630.402 643.501 647.8 638.748C660.514 635.275 671.683 629.414 680.991 621.322C690.324 613.21 697.256 603.319 701.598 591.922C709.995 568.591 693.42 542.507 678.036 524.732C659.713 503.56 636.1 485.957 621.918 478.553C602.33 468.291 595.358 461.6 587.974 454.516C585.238 451.891 582.407 449.174 578.845 446.178L577.999 445.476C576.524 444.25 575.034 443.01 573.486 441.789Z" fill="url(#paint5_linear_752_8170)"/>
<path d="M538.106 595.875C524.551 585.18 516.715 574.398 514.205 563.045C511.706 551.743 514.606 541.027 517.415 530.663C519.812 521.808 522.293 512.655 521.269 503.335C521.061 483.611 517.229 471.778 514.694 463.945C512.337 456.662 510.912 452.262 514.154 447.611C517.896 441.429 533.56 434.643 549.559 438.12C561.319 439.96 569.439 443.374 576.706 449.523C580.542 452.818 583.54 456.073 586.717 459.516C593.431 466.796 600.374 474.324 616.049 482.989C628.723 489.96 649.717 505.63 665.862 523.557C679.854 539.092 695.194 561.878 688.808 582.224C681.912 602.377 665.508 617.737 643.801 624.374C629.44 628.763 613.171 629.159 596.749 625.523C578.586 621.497 560.546 612.795 543.133 599.653C541.385 598.399 539.706 597.137 538.106 595.875ZM575.056 448.862C568.196 443.447 560.43 440.363 549.465 438.647C533.673 435.218 518.275 441.84 514.606 447.905C511.502 452.353 512.818 456.414 515.204 463.782C517.75 471.644 521.597 483.524 521.804 503.303C522.839 512.695 520.344 521.903 517.936 530.801C515.145 541.103 512.26 551.754 514.734 562.929C517.51 575.486 526.908 587.355 543.461 599.224C560.82 612.323 578.79 620.992 596.877 625.003C613.208 628.621 629.382 628.228 643.655 623.865C665.199 617.279 681.475 602.042 688.313 582.06C694.619 561.962 679.377 539.347 665.476 523.917C649.371 506.037 628.435 490.415 615.801 483.462C600.05 474.753 593.077 467.193 586.334 459.884C583.169 456.451 580.178 453.207 576.367 449.934C575.93 449.567 575.493 449.211 575.056 448.862Z" fill="url(#paint6_linear_752_8170)"/>
<path d="M550.769 587.162C528.934 569.929 530.114 554.925 531.352 539.136C531.964 531.35 532.595 523.299 530.504 514.648C528.496 498.957 525.039 488.677 522.515 481.168C519.604 472.506 517.998 467.738 521.229 462.818C523.189 459.371 527.535 455.382 532.565 452.418C538.645 448.836 545.082 447.145 550.692 447.654C560.299 447.651 568.145 448.065 574.2 453.316C577.992 456.662 581.154 460.553 584.506 464.669C590.553 472.102 597.405 480.528 609.918 487.946C618.599 493.062 637.495 506.153 653.254 522.765C661.454 531.408 667.559 539.718 671.406 547.463C675.949 556.612 677.322 564.976 675.479 572.322C670.47 589.704 657.414 603.275 639.659 609.562C628.42 613.544 615.597 614.421 602.574 612.097C588.17 609.53 573.69 603.231 559.534 593.384C556.262 591.279 553.355 589.206 550.769 587.162ZM573.198 453.12C567.362 448.512 559.832 448.138 550.667 448.142C537.837 446.978 524.956 457.244 521.641 463.073C518.529 467.807 520.107 472.498 522.97 481.015C525.502 488.542 528.966 498.851 530.977 514.561C533.083 523.259 532.449 531.35 531.833 539.172C531.134 548.092 530.471 556.518 533.8 565.282C537.553 575.158 545.815 583.958 559.803 592.98C573.908 602.795 588.323 609.064 602.658 611.621C615.597 613.93 628.337 613.061 639.498 609.108C657.104 602.871 670.047 589.417 675.013 572.198C676.823 564.976 675.464 556.725 670.973 547.681C667.148 539.979 661.068 531.71 652.904 523.103C637.181 506.532 618.333 493.473 609.674 488.368C597.088 480.906 590.207 472.444 584.134 464.978C580.797 460.876 577.646 457 573.883 453.683C573.653 453.487 573.428 453.298 573.198 453.12Z" fill="url(#paint7_linear_752_8170)"/>
<path d="M562.699 578.631C549.509 568.223 547.556 558.187 545.21 546.154C543.986 539.874 542.722 533.375 539.738 525.961C536.751 515.244 533.746 507.208 531.331 500.753C527.189 489.677 524.908 483.575 528.3 478.029C531.746 471.578 542.514 458.4 551.785 457.203C552.412 457.032 553.038 456.854 553.669 456.68C560.226 454.836 567.012 452.934 571.686 457.112C575.296 460.403 578.586 464.989 582.068 469.844C587.704 477.698 594.09 486.6 603.78 492.909C614.29 499.706 666.503 535.008 662.142 562.42C659.082 577.122 649.389 588.995 635.542 595.006C627.28 598.591 618.137 599.867 608.359 598.798C597.704 597.635 586.793 593.704 575.93 587.118C570.568 584.231 566.229 581.416 562.699 578.631ZM570.965 457.065C566.477 453.523 560.029 455.334 553.785 457.091C553.151 457.269 552.518 457.447 551.887 457.618L551.858 457.625C542.74 458.789 532.096 471.84 528.679 478.24C525.389 483.615 527.644 489.647 531.739 500.597C534.154 507.062 537.163 515.106 540.15 525.819C543.141 533.252 544.412 539.768 545.64 546.067C548.59 561.209 550.922 573.169 576.149 586.74C586.968 593.3 597.82 597.209 608.41 598.366C618.111 599.424 627.182 598.158 635.375 594.606C649.09 588.653 658.693 576.893 661.72 562.34C663.457 551.416 656.263 537.936 640.336 522.284C626.318 508.506 609.936 497.404 603.547 493.269C593.791 486.913 587.38 477.978 581.719 470.091C578.251 465.254 574.972 460.687 571.399 457.429C571.253 457.301 571.111 457.181 570.965 457.065Z" fill="url(#paint8_linear_752_8170)"/>
<path d="M572.364 570.467C564.564 564.314 560.299 556.863 554.397 546.565C552.722 543.638 550.988 540.612 548.977 537.267C547.716 534.641 546.529 532.186 545.41 529.874C535.684 509.768 531.243 500.593 535.371 493.233C538.197 487.593 546.805 470.407 552.878 466.771C558.328 462.036 565.104 457.105 569.173 460.902C572.535 464.102 575.978 469.535 579.62 475.291C584.761 483.407 590.582 492.604 597.638 497.866C598.986 498.862 600.614 500.03 602.501 501.382C610.232 506.921 621.918 515.295 631.564 524.441C643.108 535.383 648.904 544.827 648.799 552.51C647.877 564.54 641.451 575.184 631.604 580.995C620.687 587.438 606.738 587.391 592.33 580.856C583.467 577.642 577.227 574.307 572.364 570.467ZM568.601 460.913C564.707 457.84 558.302 462.56 553.115 467.069L553.086 467.087C547.112 470.647 538.529 487.778 535.706 493.408C531.669 500.6 536.081 509.721 545.749 529.703C546.867 532.016 548.055 534.467 549.308 537.081C551.312 540.416 553.046 543.445 554.721 546.372C564.259 563.02 569.515 572.191 592.473 580.496C606.774 586.984 620.599 587.042 631.408 580.66C641.149 574.911 647.505 564.38 648.416 552.485C648.522 544.925 642.762 535.579 631.302 524.71C621.674 515.583 610.002 507.219 602.279 501.684C600.392 500.331 598.76 499.164 597.409 498.164C590.294 492.859 584.451 483.633 579.296 475.487C575.664 469.753 572.236 464.338 568.907 461.171C568.812 461.083 568.706 460.996 568.601 460.913Z" fill="url(#paint9_linear_752_8170)"/>
<path d="M571.792 561.9C567.257 558.321 562.758 553.896 558.215 548.558C543.046 528.59 538.329 516.594 542.445 508.437C544.237 504.619 546.908 496.691 549.264 489.699C551.13 484.16 552.893 478.931 554 476.375C554.736 474.036 556.299 471.193 558.179 468.782C560.237 466.142 562.31 464.454 564.014 464.033C565.067 463.771 565.96 463.996 566.663 464.691C569.788 467.833 573.508 474.506 577.446 481.567C582.127 489.96 586.965 498.64 591.507 502.822C593.988 505.088 598.33 508.142 603.357 511.684C615.834 520.466 632.927 532.499 635.458 542.579C637.196 552.292 634.595 562.151 628.675 568.318C623.703 573.5 616.818 575.667 608.767 574.584C598.76 574.402 590.6 572.645 583.107 569.049C579.278 567.216 575.522 564.845 571.792 561.9ZM566.215 464.738C565.635 464.28 564.922 464.153 564.091 464.356C560.608 465.214 555.803 471.745 554.306 476.491C553.199 479.051 551.439 484.277 549.574 489.808C547.214 496.808 544.54 504.746 542.736 508.582C538.686 516.615 543.392 528.506 558.466 548.354C566.707 558.038 574.812 564.714 583.238 568.754C590.688 572.329 598.804 574.078 608.782 574.256C616.741 575.325 623.528 573.194 628.428 568.093C634.278 562.002 636.843 552.252 635.127 542.652C632.628 532.703 615.597 520.714 603.161 511.957C598.123 508.412 593.773 505.35 591.278 503.07C586.695 498.851 581.843 490.149 577.151 481.731C573.224 474.687 569.515 468.036 566.422 464.927C566.36 464.858 566.288 464.796 566.215 464.738Z" fill="url(#paint10_linear_752_8170)"/>
<path d="M569.133 561.22C568.564 560.772 568.003 560.314 567.453 559.845C558.455 552.216 552.532 544.914 549.844 538.147C547.734 532.834 547.625 527.954 549.519 523.645C552.623 516.586 556.007 494.055 555.177 485.971C554.867 482.96 555.669 479.011 557.373 475.135C558.918 471.629 560.907 468.92 562.441 468.229C563.122 467.924 563.716 468.015 564.153 468.487C567.216 471.807 571.905 481.477 576.437 490.826C579.952 498.077 583.271 504.924 585.38 507.797C587.77 511.055 594.924 515.128 602.501 519.437C610.304 523.877 618.373 528.467 622.089 532.648C625.976 537.023 629.007 543.78 629.994 550.281C631.149 557.878 629.466 564.267 625.255 568.271C620.326 572.955 611.073 575.125 600.505 574.078C589.321 572.969 578.262 568.424 569.133 561.22ZM563.796 468.538C563.461 468.276 563.053 468.258 562.55 468.484C559.577 469.822 554.769 479.313 555.45 485.942C556.284 494.055 552.889 516.67 549.771 523.754C547.906 527.994 548.015 532.801 550.099 538.041C552.769 544.769 558.667 552.031 567.628 559.631C577.016 567.594 588.702 572.627 600.523 573.798C610.858 574.82 620.257 572.624 625.054 568.064C629.196 564.125 630.85 557.823 629.71 550.321C628.73 543.87 625.725 537.172 621.87 532.834C618.184 528.685 610.137 524.106 602.352 519.677C594.749 515.354 587.569 511.27 585.143 507.961C583.019 505.066 579.693 498.208 576.174 490.946C571.65 481.615 566.972 471.967 563.938 468.676C563.898 468.626 563.847 468.578 563.796 468.538Z" fill="url(#paint11_linear_752_8170)"/>
<path d="M-28.4728 507.535C-34.3997 502.858 -40.0134 498.207 -45.2773 493.607C-74.1871 468.349 -91.855 445.487 -97.7929 425.661C-103.869 405.377 -97.3849 388.758 -78.5149 376.274C-21.2307 338.365 20.3307 319.659 47.8308 307.277C60.2092 301.706 69.9867 297.302 76.7369 293.102C87.9642 286.113 113.282 285.047 142.804 290.32C174.577 295.997 204.197 307.626 224.073 322.234C251.489 342.379 286.559 357.591 311.148 366.805C339.796 377.54 371.245 386.435 395.28 390.598C410.795 393.286 422.07 401.86 427.888 415.391C437.96 438.825 430.401 474.054 408.161 507.335C397.619 523.11 386.72 539.423 375.281 554.437C362.633 571.041 350.666 584.22 338.692 594.729C324.394 607.278 309.72 616.457 293.823 622.788C276.075 629.857 257.212 633.246 236.153 633.155C200.186 632.999 124.065 603.275 51.0401 560.867C21.1722 543.521 -5.93069 525.328 -28.4728 507.535ZM415.254 400.024C409.772 395.697 403.01 392.791 395.135 391.424C371.052 387.249 339.544 378.34 310.853 367.591C286.213 358.358 251.066 343.11 223.574 322.906C203.797 308.375 174.304 296.797 142.655 291.146C113.33 285.909 88.2411 286.931 77.1814 293.815C70.3838 298.044 60.5845 302.459 48.1768 308.044C20.6987 320.412 -20.8264 339.103 -78.0522 376.973C-96.5726 389.231 -102.944 405.529 -96.9878 425.421C-91.0937 445.094 -73.5096 467.821 -44.7236 492.975C-19.4785 515.033 13.7845 538.259 51.4627 560.139C124.371 602.478 200.321 632.159 236.156 632.315C257.106 632.406 275.863 629.035 293.509 622.006C309.312 615.711 323.909 606.584 338.135 594.096C364.819 570.674 386.497 538.234 407.458 506.866C429.542 473.818 437.075 438.894 427.112 415.719C424.365 409.326 420.365 404.057 415.254 400.024Z" fill="url(#paint12_linear_752_8170)"/>
<path d="M-16.0178 499.342C-20.7062 495.644 -25.1687 491.964 -29.398 488.316C-56.0493 465.323 -72.3803 444.508 -77.9356 426.45C-83.5493 408.195 -77.8846 393.213 -61.0946 381.922C-10.63 347.445 28.2795 328.848 54.0273 316.542C66.1143 310.764 75.6623 306.2 82.4599 301.92C93.4504 295.004 117.289 293.549 144.676 298.128C173.998 303.03 201.706 313.662 220.692 327.306C246.076 345.768 278.246 359.94 300.766 368.576C327.221 378.722 355.191 386.991 377.503 391.26C391.583 393.958 401.797 401.995 407.047 414.508C416.161 436.224 409.196 468.632 388.869 499.084C369.718 527.833 349.916 557.565 324.889 579.478C311.706 591.02 298.172 599.478 283.514 605.333C267.161 611.867 249.791 615.038 230.419 615.035C197.152 615.133 126.83 588.209 59.4042 549.561C30.9534 533.248 5.20193 516.091 -16.0178 499.342ZM395.135 399.86C390.253 396.006 384.279 393.362 377.354 392.035C354.998 387.755 326.98 379.474 300.482 369.311C277.918 360.656 245.679 346.456 220.226 327.943C201.338 314.368 173.75 303.782 144.542 298.902C117.34 294.357 93.7127 295.768 82.8788 302.586C76.0412 306.895 66.4786 311.466 54.3661 317.252C28.6402 329.546 -10.2365 348.128 -60.6539 382.573C-77.1233 393.649 -82.6859 408.329 -77.1852 426.217C-71.6735 444.13 -55.4263 464.821 -28.8844 487.72C-5.56275 507.84 25.0993 528.986 59.7903 548.874C127.107 587.463 197.269 614.344 230.411 614.242C249.686 614.246 266.957 611.093 283.215 604.598C297.79 598.776 311.247 590.365 324.361 578.881C349.307 557.037 369.081 527.353 388.202 498.644C408.384 468.407 415.323 436.283 406.311 414.81C403.754 408.704 399.98 403.686 395.135 399.86Z" fill="url(#paint13_linear_752_8170)"/>
<path d="M-3.54459 491.2C-7.01625 488.458 -10.3458 485.735 -13.5333 483.029C-37.9333 462.298 -52.9237 443.527 -58.0929 427.239C-63.2439 411.01 -58.3916 397.664 -43.6744 387.569C0.294994 356.307 35.2155 338.547 60.712 325.579C72.2817 319.696 81.4217 315.045 88.1792 310.735C99.1005 303.786 120.918 301.99 146.542 305.932C173.422 310.066 199.214 319.707 217.304 332.379C259.627 362.791 325.658 384.649 359.719 391.922C372.363 394.628 381.521 402.133 386.206 413.624C394.355 433.625 387.98 463.211 369.573 490.829C353.07 515.703 334.364 543.899 311.083 564.22C299.018 574.754 286.625 582.489 273.204 587.875C258.247 593.875 242.375 596.828 224.681 596.911C209.345 597.089 185.87 591.38 156.796 580.409C128.866 569.867 97.2427 554.896 67.75 538.252C40.7272 523.001 16.3345 506.891 -3.54459 491.2ZM375.008 399.675C370.727 396.297 365.547 393.926 359.566 392.646C325.447 385.362 259.292 363.46 216.878 332.983C198.882 320.372 173.204 310.779 146.432 306.663C120.98 302.75 99.3519 304.506 88.5799 311.361C81.7933 315.688 72.6424 320.343 61.0508 326.238C35.5725 339.194 0.681137 356.943 -43.2482 388.177C-57.6703 398.068 -62.4279 411.137 -57.3862 427.017C-52.2607 443.17 -37.3431 461.829 -13.0525 482.469C8.34573 500.651 36.414 519.717 68.1143 537.608C97.5742 554.234 129.162 569.187 157.055 579.718C186.045 590.66 209.425 596.351 224.674 596.173C242.276 596.093 258.061 593.155 272.927 587.191C286.271 581.838 298.595 574.144 310.598 563.667C333.803 543.412 352.48 515.263 368.957 490.426C387.233 463.003 393.579 433.687 385.521 413.908C383.15 408.079 379.598 403.297 375.008 399.675Z" fill="url(#paint14_linear_752_8170)"/>
<path d="M8.95773 483.127C6.67366 481.324 4.45879 479.531 2.31678 477.742C-19.8282 459.272 -33.4817 442.548 -38.2648 428.028C-42.9422 413.824 -38.9023 402.111 -26.2506 393.217C11.6243 364.863 44.3154 347.129 68.1871 334.176C78.4746 328.594 87.3559 323.775 93.9058 319.55C104.598 312.67 124.972 310.499 148.418 313.735C172.865 317.11 196.74 325.757 213.927 337.452C230.79 349.394 253.635 361.38 279.998 372.114C301.16 380.733 323.738 388.191 341.945 392.584C353.162 395.297 361.267 402.271 365.38 412.755C372.556 431.043 366.771 457.796 350.284 482.578C333.064 508.659 317.188 531.655 297.284 548.965C286.333 558.488 275.084 565.507 262.899 570.416C249.336 575.881 234.958 578.616 218.947 578.783C204.879 579.089 183.448 574.114 156.978 564.394C131.657 555.099 102.929 541.797 76.0885 526.939C50.4937 512.775 27.4672 497.738 8.95773 483.127ZM354.877 399.46C351.205 396.562 346.816 394.471 341.781 393.253C323.545 388.857 300.93 381.384 279.736 372.754C253.325 361.998 230.43 349.987 213.53 338.019C196.434 326.383 172.665 317.783 148.319 314.419C125.034 311.204 104.831 313.339 94.2774 320.128C87.7093 324.368 78.8134 329.194 68.515 334.779C44.6615 347.721 11.9922 365.445 -25.8462 393.769C-38.2284 402.479 -42.1845 413.93 -37.6127 427.814C-32.8697 442.207 -19.2891 458.829 2.75393 477.214C22.2324 493.458 47.7033 510.444 76.4164 526.339C103.224 541.179 131.919 554.467 157.208 563.75C183.597 573.438 204.94 578.398 218.929 578.096C234.859 577.929 249.154 575.209 262.633 569.78C274.749 564.899 285.932 557.921 296.825 548.448C316.66 531.197 332.506 508.24 349.701 482.204C366.068 457.603 371.828 431.09 364.731 413.01C362.553 407.442 359.22 402.889 354.877 399.46Z" fill="url(#paint15_linear_752_8170)"/>
<path d="M21.4856 475.145C20.349 474.247 19.2343 473.352 18.1378 472.462C-1.75229 456.258 -14.0688 441.577 -18.4658 428.828C-22.666 416.65 -19.4238 406.57 -8.83038 398.868C23.4054 373.005 54.326 355.078 76.9046 341.987C85.8587 336.797 93.5889 332.314 99.6288 328.368C110.251 321.455 128.717 318.968 150.287 321.543C172.308 324.172 194.271 331.823 210.543 342.528C242.171 364.529 291.608 384.242 324.164 393.246C333.96 395.966 341.009 402.417 344.553 411.897C350.746 428.468 345.548 452.388 330.987 474.323C316.361 496.604 301.721 517.913 283.477 533.706C273.641 542.223 263.536 548.517 252.586 552.957C240.418 557.888 227.537 560.405 213.206 560.659C200.401 561.092 181.014 556.848 157.146 548.39C134.425 540.335 108.59 528.706 84.4052 515.637C60.2457 502.589 38.5925 488.647 21.4856 475.145ZM334.736 399.209C331.683 396.798 328.08 394.998 323.993 393.864C291.389 384.846 241.865 365.1 210.186 343.059C194.001 332.412 172.14 324.797 150.214 322.179C128.79 319.619 110.481 322.07 99.9785 328.903C93.9277 332.856 86.1866 337.343 77.2251 342.536C54.6648 355.616 23.7697 373.529 -8.44423 399.369C-18.7973 406.897 -21.9629 416.733 -17.8647 428.617C-13.5078 441.254 -1.2605 455.836 18.5385 471.967C36.1008 486.265 58.9744 501.178 84.7039 515.08C108.863 528.132 134.666 539.75 157.357 547.794C181.149 556.227 200.456 560.456 213.188 560.027C227.442 559.776 240.251 557.27 252.342 552.372C263.226 547.961 273.273 541.699 283.058 533.23C301.24 517.488 315.851 496.222 330.452 473.978C344.903 452.21 350.076 428.508 343.952 412.126C341.967 406.799 338.845 402.453 334.736 399.209Z" fill="url(#paint16_linear_752_8170)"/>
<path d="M34.0535 467.287C34.0097 467.254 33.9697 467.222 33.926 467.189C16.2872 453.247 5.31123 440.614 1.29678 429.635C-2.41894 419.472 0.0363481 411.021 8.58981 404.515C35.6418 380.566 65.6554 361.976 87.5709 348.405C94.434 344.154 100.361 340.485 105.352 337.187C115.759 330.336 132.819 327.481 152.155 329.354C171.769 331.256 191.819 337.907 207.155 347.609C220.929 356.98 238.448 366.416 259.223 375.664C274.851 382.62 292.042 389.271 306.38 393.915C314.762 396.646 320.762 402.577 323.734 411.071C328.929 425.926 324.31 447.003 311.684 466.08C299.517 484.753 286.246 504.182 269.663 518.459C260.942 525.964 251.981 531.543 242.265 535.506C231.493 539.899 220.109 542.201 207.461 542.539C184.58 543.652 138.454 528.303 92.6891 504.346C69.9794 492.455 49.7069 479.644 34.0535 467.287ZM314.591 398.9C312.165 396.984 309.36 395.497 306.209 394.471C291.852 389.82 274.639 383.158 258.993 376.198C238.185 366.936 220.638 357.481 206.842 348.096C191.586 338.448 171.634 331.827 152.104 329.936C132.899 328.074 115.978 330.896 105.68 337.674C100.682 340.976 94.751 344.649 87.8841 348.903C65.9869 362.467 35.9951 381.038 8.96502 404.97C0.62285 411.315 -1.76323 419.541 1.8505 429.435C5.82487 440.312 16.7389 452.858 34.2903 466.731C34.3303 466.763 34.374 466.796 34.4141 466.829C50.0384 479.16 70.2818 491.953 92.966 503.826C138.644 527.739 184.65 543.059 207.443 541.954C220.026 541.616 231.344 539.328 242.05 534.961C251.708 531.019 260.618 525.477 269.288 518.011C285.812 503.786 299.054 484.396 311.199 465.756C323.727 446.828 328.317 425.948 323.184 411.264C321.396 406.14 318.481 401.97 314.591 398.9Z" fill="url(#paint17_linear_752_8170)"/>
<path d="M46.5995 459.556C32.997 448.817 24.3926 439.043 21.012 430.464C17.7954 422.311 19.4747 415.486 25.9991 410.177C48.1332 387.373 78.8462 367.205 101.268 352.477C104.787 350.168 108.109 347.983 111.078 346.001C121.439 339.103 136.691 335.961 154.031 337.157C171.514 338.364 189.181 343.877 203.778 352.681C213.567 359.15 241.402 376.172 288.61 394.58C295.593 397.322 300.551 402.747 302.941 410.278C307.112 423.41 303.072 441.628 292.395 457.825C282.541 473.094 270.782 490.454 255.864 503.204C240.101 516.677 222.393 523.615 201.727 524.419C191.433 525.109 176.118 522.335 157.441 516.4C139.653 510.746 120.12 502.676 100.955 493.065C81.1631 483.138 63.4296 472.374 49.6705 461.937C48.6249 461.137 47.5977 460.345 46.5995 459.556ZM294.428 398.504C292.646 397.096 290.635 395.947 288.417 395.078C280.865 392.133 265.653 385.987 248.618 377.918C230.736 369.445 215.556 361.107 203.494 353.136C188.977 344.383 171.393 338.895 153.995 337.695C136.771 336.506 121.639 339.615 111.377 346.448C108.408 348.434 105.086 350.616 101.563 352.928C79.1558 367.641 48.4683 387.794 26.3707 410.562L26.3488 410.584C20.0139 415.729 18.3855 422.355 21.5074 430.271C25.0519 439.257 34.9023 450.061 49.9983 461.512C63.7319 471.93 81.4363 482.676 101.199 492.589C120.338 502.189 139.842 510.247 157.605 515.891C176.216 521.808 191.466 524.571 201.702 523.884C222.248 523.088 239.85 516.189 255.518 502.796C270.381 490.094 282.115 472.774 291.947 457.534V457.53C302.537 441.464 306.555 423.42 302.431 410.438C300.854 405.464 298.129 401.424 294.428 398.504Z" fill="url(#paint18_linear_752_8170)"/>
<path d="M59.4479 452.287C49.787 444.661 43.3391 437.497 40.6398 431.348C37.9295 425.173 38.862 419.955 43.412 415.839C60.3295 393.024 99.902 366.252 116.805 354.82C137.948 340.568 172.322 341.776 200.398 357.758C221.931 371.456 249.478 384.856 265.94 392.86C267.689 393.711 269.328 394.508 270.84 395.249C276.446 398.009 280.362 402.959 282.169 409.559C285.288 420.955 281.812 436.286 273.106 449.574C264.428 463.207 254.658 477.291 242.065 487.949C228.623 499.324 213.552 505.324 195.997 506.295C178.216 507.909 144.137 498.302 109.188 481.818C92.3831 473.891 77.2324 465.218 65.3712 456.73C63.2802 455.232 61.3058 453.748 59.4479 452.287ZM274.246 397.958C273.135 397.082 271.929 396.322 270.625 395.678C269.113 394.94 267.474 394.14 265.725 393.293C249.256 385.282 221.69 371.874 200.146 358.169C172.235 342.281 138.072 341.067 117.074 355.216C100.19 366.638 60.6427 393.387 43.7872 416.141L43.7726 416.159L43.7544 416.173C39.3611 420.137 38.4613 425.177 41.0842 431.148C44.2681 438.399 52.7632 447.108 65.6517 456.33C77.4874 464.8 92.6126 473.458 109.392 481.374C144.268 497.826 178.249 507.415 195.957 505.808C234.95 503.655 255.245 476.716 272.694 449.308V449.305C281.328 436.13 284.778 420.948 281.696 409.679C280.352 404.755 277.805 400.769 274.246 397.958Z" fill="url(#paint19_linear_752_8170)"/>
<path d="M72.2708 445.403C66.3657 440.741 62.1873 436.304 60.1364 432.355C57.9288 428.104 58.1583 424.453 60.814 421.508C63.7101 413.951 72.2417 403.904 86.1756 391.638C96.3247 382.704 109.577 372.496 122.528 363.634C143.329 349.445 171.175 349.143 197.014 362.834C205.716 368.078 214.904 373.376 223.785 378.5C235.275 385.125 246.123 391.387 253.066 395.918C258.895 399.751 262.083 406.726 262.05 415.548C262.017 423.908 259.015 433.301 253.81 441.319C242.203 459.912 234.058 467.854 228.258 472.691C217.144 481.963 204.715 487.025 190.256 488.167C174.938 490.044 147.015 483.327 117.391 470.636C98.4703 462.53 82.6858 453.625 72.2708 445.403ZM254.043 397.155C253.653 396.846 253.249 396.555 252.833 396.282C245.901 391.758 235.056 385.5 223.574 378.874C214.689 373.747 205.501 368.449 196.806 363.209C171.124 349.601 143.445 349.892 122.779 363.991C109.843 372.842 96.6088 383.038 86.4707 391.962C72.5659 404.202 64.0671 414.206 61.2111 421.701L61.1965 421.741L61.171 421.77C58.621 424.573 58.406 428.068 60.5298 432.159C66.1508 442.985 88.008 457.578 117.574 470.243C147.132 482.905 174.971 489.611 190.223 487.742C204.598 486.607 216.947 481.578 227.989 472.363C238.983 463.189 247.373 450.832 253.453 441.094L253.456 441.09C258.618 433.141 261.598 423.832 261.627 415.551C261.649 407.511 258.972 401.046 254.043 397.155Z" fill="url(#paint20_linear_752_8170)"/>
<path d="M85.0718 439.304C82.6311 437.377 80.7441 435.53 79.5055 433.81C77.695 431.297 77.2579 429.082 78.2123 427.228C76.4856 420.337 85.9206 409.02 94.1571 400.726C103.443 391.373 116.193 380.805 128.258 372.452C138.651 365.278 148.917 361.394 159.645 360.583C170.599 359.758 181.721 362.154 193.64 367.911C210.977 377.533 227.33 388.795 235.307 396.602C239.176 400.424 241.136 406.428 240.819 413.508C240.524 420.133 238.229 427.261 234.524 433.068C225.082 448.676 210.867 466.985 184.529 470.047C171.776 472.174 149.827 468.309 125.828 459.701C108.288 453.41 93.4286 445.901 85.0718 439.304ZM227.745 390.569C218.98 383.653 206.496 375.485 193.458 368.245C181.612 362.521 170.555 360.139 159.671 360.961C149.011 361.765 138.808 365.627 128.473 372.762C105.924 388.369 75.5421 415.58 78.5984 427.199L78.6167 427.272L78.5802 427.337C77.6586 429.068 78.0739 431.17 79.8115 433.584C85.2467 441.126 103.359 451.236 125.952 459.338C149.893 467.923 171.768 471.781 184.468 469.665C210.649 466.621 224.794 448.399 234.189 432.868L234.193 432.864C237.865 427.112 240.138 420.05 240.429 413.489C240.739 406.518 238.819 400.617 235.031 396.871C233.074 394.955 230.608 392.827 227.745 390.569Z" fill="url(#paint21_linear_752_8170)"/>
<path d="M97.7928 435.316C96.74 434.483 96.026 433.701 95.6981 432.992C93.7383 431.857 92.6964 430.156 92.5908 427.934C92.2884 421.432 99.9639 411.861 106.456 404.981C114.182 396.791 124.469 387.926 133.981 381.267C144.746 373.74 153.234 369.769 161.51 368.391C170.337 366.922 179.473 368.38 190.252 372.984C202.176 378.737 212.878 388.278 217.534 397.297C221.679 405.41 219.618 417.657 215.228 424.814C206.594 439.941 194.336 449.061 178.796 451.92C172.745 453.33 164.869 453.57 155.401 452.629C147.201 451.814 138.036 450.12 128.892 447.723C114.575 443.974 102.627 439.13 97.7928 435.316ZM95.9531 432.759L95.975 432.81C96.2773 433.501 96.9695 434.265 97.9968 435.076C108.634 443.476 155.292 457.061 178.726 451.6C194.176 448.759 206.358 439.69 214.94 424.65L214.944 424.646C219.286 417.57 221.333 405.464 217.239 397.453C212.616 388.497 201.968 379.013 190.114 373.293C179.4 368.718 170.326 367.264 161.561 368.725C153.339 370.096 144.888 374.049 134.17 381.544C124.677 388.191 114.408 397.039 106.696 405.21C100.248 412.046 92.6235 421.534 92.9186 427.923C93.017 430.043 94.0224 431.665 95.9058 432.737L95.9531 432.759Z" fill="url(#paint22_linear_752_8170)"/>
<path d="M107.111 436.523C106.058 435.69 105.363 434.632 105.031 433.355C104.201 430.148 105.301 423.89 115.242 412.286C121.905 404.508 131.052 396.209 139.704 390.078C149.933 382.835 156.629 378.289 163.372 376.198C170.348 374.038 177.156 374.576 186.868 378.056C192.223 379.976 195.961 383.478 197.983 388.471C202.354 399.268 197.396 413.581 195.935 416.548C193.203 422.086 188.249 426.73 181.211 430.355C175.153 433.476 167.539 435.85 158.578 437.417C142.381 440.25 124.528 439.905 113.217 438.636C110.557 438.341 108.517 437.632 107.111 436.523ZM192.383 381.376C190.777 380.111 188.908 379.093 186.777 378.329C177.127 374.871 170.373 374.333 163.459 376.475C156.756 378.551 150.075 383.089 139.868 390.315C124.091 401.486 102.703 423.221 105.304 433.29C106.044 436.148 108.718 437.857 113.249 438.367C124.542 439.636 142.367 439.981 158.534 437.152C167.466 435.588 175.054 433.221 181.087 430.115C188.07 426.519 192.981 421.919 195.688 416.435C197.137 413.493 202.063 399.289 197.728 388.587C196.54 385.653 194.751 383.246 192.383 381.376Z" fill="url(#paint23_linear_752_8170)"/>
</g>
</g>
<defs>
<linearGradient id="paint0_linear_752_8170" x1="587.63" y1="355.084" x2="587.63" y2="718.211" gradientUnits="userSpaceOnUse">
<stop stop-color="#E9CBA3"/>
<stop offset="0.1507" stop-color="#EEDEBC"/>
<stop offset="0.3859" stop-color="#C9A885"/>
<stop offset="0.6326" stop-color="#9A7A5F"/>
<stop offset="0.8567" stop-color="#C9A885"/>
<stop offset="0.9987" stop-color="#C9A885"/>
</linearGradient>
<linearGradient id="paint1_linear_752_8170" x1="590.087" y1="369.943" x2="590.087" y2="703.051" gradientUnits="userSpaceOnUse">
<stop stop-color="#E9CBA3"/>
<stop offset="0.1507" stop-color="#EEDEBC"/>
<stop offset="0.3859" stop-color="#C9A885"/>
<stop offset="0.6326" stop-color="#9A7A5F"/>
<stop offset="0.8567" stop-color="#C9A885"/>
<stop offset="0.9987" stop-color="#C9A885"/>
</linearGradient>
<linearGradient id="paint2_linear_752_8170" x1="592.526" y1="384.612" x2="592.526" y2="687.918" gradientUnits="userSpaceOnUse">
<stop stop-color="#E9CBA3"/>
<stop offset="0.1507" stop-color="#EEDEBC"/>
<stop offset="0.3859" stop-color="#C9A885"/>
<stop offset="0.6326" stop-color="#9A7A5F"/>
<stop offset="0.8567" stop-color="#C9A885"/>
<stop offset="0.9987" stop-color="#C9A885"/>
</linearGradient>
<linearGradient id="paint3_linear_752_8170" x1="594.944" y1="399.017" x2="594.944" y2="672.823" gradientUnits="userSpaceOnUse">
<stop stop-color="#E9CBA3"/>
<stop offset="0.1507" stop-color="#EEDEBC"/>
<stop offset="0.3859" stop-color="#C9A885"/>
<stop offset="0.6326" stop-color="#9A7A5F"/>
<stop offset="0.8567" stop-color="#C9A885"/>
<stop offset="0.9987" stop-color="#C9A885"/>
</linearGradient>
<linearGradient id="paint4_linear_752_8170" x1="597.33" y1="412.827" x2="597.33" y2="657.784" gradientUnits="userSpaceOnUse">
<stop stop-color="#E9CBA3"/>
<stop offset="0.1507" stop-color="#EEDEBC"/>
<stop offset="0.3859" stop-color="#C9A885"/>
<stop offset="0.6326" stop-color="#9A7A5F"/>
<stop offset="0.8567" stop-color="#C9A885"/>
<stop offset="0.9987" stop-color="#C9A885"/>
</linearGradient>
<linearGradient id="paint5_linear_752_8170" x1="599.629" y1="425.649" x2="599.629" y2="642.823" gradientUnits="userSpaceOnUse">
<stop stop-color="#E9CBA3"/>
<stop offset="0.1507" stop-color="#EEDEBC"/>
<stop offset="0.3859" stop-color="#C9A885"/>
<stop offset="0.6326" stop-color="#9A7A5F"/>
<stop offset="0.8567" stop-color="#C9A885"/>
<stop offset="0.9987" stop-color="#C9A885"/>
</linearGradient>
<linearGradient id="paint6_linear_752_8170" x1="601.283" y1="437.177" x2="601.283" y2="627.989" gradientUnits="userSpaceOnUse">
<stop stop-color="#E9CBA3"/>
<stop offset="0.1507" stop-color="#EEDEBC"/>
<stop offset="0.3859" stop-color="#C9A885"/>
<stop offset="0.6326" stop-color="#9A7A5F"/>
<stop offset="0.8567" stop-color="#C9A885"/>
<stop offset="0.9987" stop-color="#C9A885"/>
</linearGradient>
<linearGradient id="paint7_linear_752_8170" x1="597.857" y1="447.568" x2="597.857" y2="613.369" gradientUnits="userSpaceOnUse">
<stop stop-color="#E9CBA3"/>
<stop offset="0.1507" stop-color="#EEDEBC"/>
<stop offset="0.3859" stop-color="#C9A885"/>
<stop offset="0.6326" stop-color="#9A7A5F"/>
<stop offset="0.8567" stop-color="#C9A885"/>
<stop offset="0.9987" stop-color="#C9A885"/>
</linearGradient>
<linearGradient id="paint8_linear_752_8170" x1="594.528" y1="454.6" x2="594.528" y2="599.162" gradientUnits="userSpaceOnUse">
<stop stop-color="#E9CBA3"/>
<stop offset="0.1507" stop-color="#EEDEBC"/>
<stop offset="0.3859" stop-color="#C9A885"/>
<stop offset="0.6326" stop-color="#9A7A5F"/>
<stop offset="0.8567" stop-color="#C9A885"/>
<stop offset="0.9987" stop-color="#C9A885"/>
</linearGradient>
<linearGradient id="paint9_linear_752_8170" x1="591.317" y1="459.551" x2="591.317" y2="585.788" gradientUnits="userSpaceOnUse">
<stop stop-color="#E9CBA3"/>
<stop offset="0.1507" stop-color="#EEDEBC"/>
<stop offset="0.3859" stop-color="#C9A885"/>
<stop offset="0.6326" stop-color="#9A7A5F"/>
<stop offset="0.8567" stop-color="#C9A885"/>
<stop offset="0.9987" stop-color="#C9A885"/>
</linearGradient>
<linearGradient id="paint10_linear_752_8170" x1="588.506" y1="463.93" x2="588.506" y2="574.857" gradientUnits="userSpaceOnUse">
<stop stop-color="#E9CBA3"/>
<stop offset="0.1507" stop-color="#EEDEBC"/>
<stop offset="0.3859" stop-color="#C9A885"/>
<stop offset="0.6326" stop-color="#9A7A5F"/>
<stop offset="0.8567" stop-color="#C9A885"/>
<stop offset="0.9987" stop-color="#C9A885"/>
</linearGradient>
<linearGradient id="paint11_linear_752_8170" x1="589.259" y1="468.049" x2="589.259" y2="574.335" gradientUnits="userSpaceOnUse">
<stop stop-color="#E9CBA3"/>
<stop offset="0.1507" stop-color="#EEDEBC"/>
<stop offset="0.3859" stop-color="#C9A885"/>
<stop offset="0.6326" stop-color="#9A7A5F"/>
<stop offset="0.8567" stop-color="#C9A885"/>
<stop offset="0.9987" stop-color="#C9A885"/>
</linearGradient>
<linearGradient id="paint12_linear_752_8170" x1="166.137" y1="286.999" x2="166.137" y2="633.157" gradientUnits="userSpaceOnUse">
<stop stop-color="#E9CBA3"/>
<stop offset="0.1507" stop-color="#EEDEBC"/>
<stop offset="0.3859" stop-color="#C9A885"/>
<stop offset="0.6326" stop-color="#9A7A5F"/>
<stop offset="0.8567" stop-color="#C9A885"/>
<stop offset="0.9987" stop-color="#C9A885"/>
</linearGradient>
<linearGradient id="paint13_linear_752_8170" x1="165.475" y1="295.489" x2="165.475" y2="615.032" gradientUnits="userSpaceOnUse">
<stop stop-color="#E9CBA3"/>
<stop offset="0.1507" stop-color="#EEDEBC"/>
<stop offset="0.3859" stop-color="#C9A885"/>
<stop offset="0.6326" stop-color="#9A7A5F"/>
<stop offset="0.8567" stop-color="#C9A885"/>
<stop offset="0.9987" stop-color="#C9A885"/>
</linearGradient>
<linearGradient id="paint14_linear_752_8170" x1="164.806" y1="303.878" x2="164.806" y2="596.913" gradientUnits="userSpaceOnUse">
<stop stop-color="#E9CBA3"/>
<stop offset="0.1507" stop-color="#EEDEBC"/>
<stop offset="0.3859" stop-color="#C9A885"/>
<stop offset="0.6326" stop-color="#9A7A5F"/>
<stop offset="0.8567" stop-color="#C9A885"/>
<stop offset="0.9987" stop-color="#C9A885"/>
</linearGradient>
<linearGradient id="paint15_linear_752_8170" x1="164.128" y1="312.266" x2="164.128" y2="578.799" gradientUnits="userSpaceOnUse">
<stop stop-color="#E9CBA3"/>
<stop offset="0.1507" stop-color="#EEDEBC"/>
<stop offset="0.3859" stop-color="#C9A885"/>
<stop offset="0.6326" stop-color="#9A7A5F"/>
<stop offset="0.8567" stop-color="#C9A885"/>
<stop offset="0.9987" stop-color="#C9A885"/>
</linearGradient>
<linearGradient id="paint16_linear_752_8170" x1="163.438" y1="320.551" x2="163.438" y2="560.692" gradientUnits="userSpaceOnUse">
<stop stop-color="#E9CBA3"/>
<stop offset="0.1507" stop-color="#EEDEBC"/>
<stop offset="0.3859" stop-color="#C9A885"/>
<stop offset="0.6326" stop-color="#9A7A5F"/>
<stop offset="0.8567" stop-color="#C9A885"/>
<stop offset="0.9987" stop-color="#C9A885"/>
</linearGradient>
<linearGradient id="paint17_linear_752_8170" x1="162.729" y1="328.79" x2="162.729" y2="542.596" gradientUnits="userSpaceOnUse">
<stop stop-color="#E9CBA3"/>
<stop offset="0.1507" stop-color="#EEDEBC"/>
<stop offset="0.3859" stop-color="#C9A885"/>
<stop offset="0.6326" stop-color="#9A7A5F"/>
<stop offset="0.8567" stop-color="#C9A885"/>
<stop offset="0.9987" stop-color="#C9A885"/>
</linearGradient>
<linearGradient id="paint18_linear_752_8170" x1="161.993" y1="336.91" x2="161.993" y2="524.519" gradientUnits="userSpaceOnUse">
<stop stop-color="#E9CBA3"/>
<stop offset="0.1507" stop-color="#EEDEBC"/>
<stop offset="0.3859" stop-color="#C9A885"/>
<stop offset="0.6326" stop-color="#9A7A5F"/>
<stop offset="0.8567" stop-color="#C9A885"/>
<stop offset="0.9987" stop-color="#C9A885"/>
</linearGradient>
<linearGradient id="paint19_linear_752_8170" x1="161.21" y1="344.897" x2="161.21" y2="506.468" gradientUnits="userSpaceOnUse">
<stop stop-color="#E9CBA3"/>
<stop offset="0.1507" stop-color="#EEDEBC"/>
<stop offset="0.3859" stop-color="#C9A885"/>
<stop offset="0.6326" stop-color="#9A7A5F"/>
<stop offset="0.8567" stop-color="#C9A885"/>
<stop offset="0.9987" stop-color="#C9A885"/>
</linearGradient>
<linearGradient id="paint20_linear_752_8170" x1="160.345" y1="352.775" x2="160.345" y2="488.479" gradientUnits="userSpaceOnUse">
<stop stop-color="#E9CBA3"/>
<stop offset="0.1507" stop-color="#EEDEBC"/>
<stop offset="0.3859" stop-color="#C9A885"/>
<stop offset="0.6326" stop-color="#9A7A5F"/>
<stop offset="0.8567" stop-color="#C9A885"/>
<stop offset="0.9987" stop-color="#C9A885"/>
</linearGradient>
<linearGradient id="paint21_linear_752_8170" x1="159.284" y1="360.423" x2="159.284" y2="470.618" gradientUnits="userSpaceOnUse">
<stop stop-color="#E9CBA3"/>
<stop offset="0.1507" stop-color="#EEDEBC"/>
<stop offset="0.3859" stop-color="#C9A885"/>
<stop offset="0.6326" stop-color="#9A7A5F"/>
<stop offset="0.8567" stop-color="#C9A885"/>
<stop offset="0.9987" stop-color="#C9A885"/>
</linearGradient>
<linearGradient id="paint22_linear_752_8170" x1="156.182" y1="367.841" x2="156.182" y2="453.193" gradientUnits="userSpaceOnUse">
<stop stop-color="#E9CBA3"/>
<stop offset="0.1507" stop-color="#EEDEBC"/>
<stop offset="0.3859" stop-color="#C9A885"/>
<stop offset="0.6326" stop-color="#9A7A5F"/>
<stop offset="0.8567" stop-color="#C9A885"/>
<stop offset="0.9987" stop-color="#C9A885"/>
</linearGradient>
<linearGradient id="paint23_linear_752_8170" x1="152.28" y1="374.921" x2="152.28" y2="439.587" gradientUnits="userSpaceOnUse">
<stop stop-color="#E9CBA3"/>
<stop offset="0.1507" stop-color="#EEDEBC"/>
<stop offset="0.3859" stop-color="#C9A885"/>
<stop offset="0.6326" stop-color="#9A7A5F"/>
<stop offset="0.8567" stop-color="#C9A885"/>
<stop offset="0.9987" stop-color="#C9A885"/>
</linearGradient>
<clipPath id="clip0_752_8170">
<rect width="1600" height="500" fill="white"/>
</clipPath>
</defs>
</svg>
