<svg width="22" height="17" viewBox="0 0 22 17" fill="none" xmlns="http://www.w3.org/2000/svg">
<path d="M7.2 0C7.84 0 8.16 0.351999 8.16 1.056C8.16 1.568 7.68 2.432 6.72 3.648C5.76 4.8 5.28 5.856 5.28 6.816C5.28 7.776 5.76 8.736 6.72 9.696C7.744 10.656 8.256 11.68 8.256 12.768C8.256 13.856 7.84 14.784 7.008 15.552C6.176 16.32 5.056 16.704 3.648 16.704C1.216 16.704 0 15.328 0 12.576C0 9.76 0.896 6.976 2.688 4.224C4.48 1.408 5.984 0 7.2 0ZM20.736 0C21.376 0 21.696 0.351999 21.696 1.056C21.696 1.568 21.216 2.432 20.256 3.648C19.296 4.8 18.816 5.856 18.816 6.816C18.816 7.776 19.296 8.736 20.256 9.696C21.28 10.656 21.792 11.68 21.792 12.768C21.792 13.856 21.376 14.784 20.544 15.552C19.712 16.32 18.592 16.704 17.184 16.704C14.752 16.704 13.536 15.328 13.536 12.576C13.536 9.76 14.432 6.976 16.224 4.224C18.016 1.408 19.52 0 20.736 0Z" fill="white"/>
</svg>
